<svg xmlns="http://www.w3.org/2000/svg" width="900" height="430" viewBox="0 0 900 430">
<rect width="100%" height="100%" fill="white"/>
<text x="450" y="32" text-anchor="middle" font-family="Arial" font-size="18">6-vs-7 tradeoff classification counts</text>
<line x1="80" y1="60" x2="80" y2="340" stroke="#333"/>
<line x1="80" y1="340" x2="870" y2="340" stroke="#333"/>
<rect x="105" y="340.00" width="32" height="0.00" fill="#4c78a8"/>
<text x="121" y="334.00" text-anchor="middle" font-family="Arial" font-size="11">0</text>
<rect x="143" y="126.67" width="32" height="213.33" fill="#f58518"/>
<text x="159" y="120.67" text-anchor="middle" font-family="Arial" font-size="11">8</text>
<rect x="181" y="340.00" width="32" height="0.00" fill="#9a9a9a"/>
<text x="197" y="334.00" text-anchor="middle" font-family="Arial" font-size="11">0</text>
<text x="153" y="358" text-anchor="end" font-family="Arial" font-size="10" transform="rotate(-30 153,358)">absolute network growth</text>
<rect x="250" y="206.67" width="32" height="133.33" fill="#4c78a8"/>
<text x="266" y="200.67" text-anchor="middle" font-family="Arial" font-size="11">5</text>
<rect x="288" y="100.00" width="32" height="240.00" fill="#f58518"/>
<text x="304" y="94.00" text-anchor="middle" font-family="Arial" font-size="11">9</text>
<rect x="326" y="233.33" width="32" height="106.67" fill="#9a9a9a"/>
<text x="342" y="227.33" text-anchor="middle" font-family="Arial" font-size="11">4</text>
<text x="298" y="358" text-anchor="end" font-family="Arial" font-size="10" transform="rotate(-30 298,358)">normalized fraction</text>
<rect x="395" y="286.67" width="32" height="53.33" fill="#4c78a8"/>
<text x="411" y="280.67" text-anchor="middle" font-family="Arial" font-size="11">2</text>
<rect x="433" y="340.00" width="32" height="0.00" fill="#f58518"/>
<text x="449" y="334.00" text-anchor="middle" font-family="Arial" font-size="11">0</text>
<rect x="471" y="340.00" width="32" height="0.00" fill="#9a9a9a"/>
<text x="487" y="334.00" text-anchor="middle" font-family="Arial" font-size="11">0</text>
<text x="443" y="358" text-anchor="end" font-family="Arial" font-size="10" transform="rotate(-30 443,358)">perturbation retention</text>
<rect x="540" y="206.67" width="32" height="133.33" fill="#4c78a8"/>
<text x="556" y="200.67" text-anchor="middle" font-family="Arial" font-size="11">5</text>
<rect x="578" y="260.00" width="32" height="80.00" fill="#f58518"/>
<text x="594" y="254.00" text-anchor="middle" font-family="Arial" font-size="11">3</text>
<rect x="616" y="313.33" width="32" height="26.67" fill="#9a9a9a"/>
<text x="632" y="307.33" text-anchor="middle" font-family="Arial" font-size="11">1</text>
<text x="588" y="358" text-anchor="end" font-family="Arial" font-size="10" transform="rotate(-30 588,358)">geometric register</text>
<rect x="685" y="313.33" width="32" height="26.67" fill="#4c78a8"/>
<text x="701" y="307.33" text-anchor="middle" font-family="Arial" font-size="11">1</text>
<rect x="723" y="233.33" width="32" height="106.67" fill="#f58518"/>
<text x="739" y="227.33" text-anchor="middle" font-family="Arial" font-size="11">4</text>
<rect x="761" y="313.33" width="32" height="26.67" fill="#9a9a9a"/>
<text x="777" y="307.33" text-anchor="middle" font-family="Arial" font-size="11">1</text>
<text x="733" y="358" text-anchor="end" font-family="Arial" font-size="10" transform="rotate(-30 733,358)">possible edge effect</text>
<rect x="600" y="65" width="14" height="14" fill="#4c78a8"/>
<text x="620" y="77" font-family="Arial" font-size="12">favors_6</text>
<rect x="600" y="87" width="14" height="14" fill="#f58518"/>
<text x="620" y="99" font-family="Arial" font-size="12">favors_7</text>
<rect x="600" y="109" width="14" height="14" fill="#9a9a9a"/>
<text x="620" y="121" font-family="Arial" font-size="12">mixed_or_negligible</text>
</svg>
