<svg xmlns="http://www.w3.org/2000/svg" width="1835" height="430" viewBox="0 0 1835 430">
<rect width="100%" height="100%" fill="white"/>
<text x="918" y="28" text-anchor="middle" font-family="Arial" font-size="17">Seed starting-ensemble cost audit</text>
<line x1="70" y1="80" x2="70" y2="330" stroke="#333"/>
<line x1="70" y1="330" x2="1811" y2="330" stroke="#333"/>
<text x="18" y="205" text-anchor="middle" font-family="Arial" font-size="12" transform="rotate(-90 18,205)">overall cost</text>
<rect x="96" y="175.37" width="44" height="154.63" fill="#f58518"/>
<text x="118" y="169.37" text-anchor="middle" font-family="Arial" font-size="10">96.94</text>
<text x="118" y="344" text-anchor="end" font-family="Arial" font-size="9" transform="rotate(-40 118,344)">4 angular randomized loose initial</text>
<rect x="174" y="236.19" width="44" height="93.81" fill="#4c78a8"/>
<text x="196" y="230.19" text-anchor="middle" font-family="Arial" font-size="10">58.81</text>
<text x="196" y="344" text-anchor="end" font-family="Arial" font-size="9" transform="rotate(-40 196,344)">4 loose initial</text>
<rect x="252" y="161.20" width="44" height="168.80" fill="#54a24b"/>
<text x="274" y="155.20" text-anchor="middle" font-family="Arial" font-size="10">105.82</text>
<text x="274" y="344" text-anchor="end" font-family="Arial" font-size="9" transform="rotate(-40 274,344)">4 radially separated</text>
<rect x="330" y="213.02" width="44" height="116.98" fill="#f58518"/>
<text x="352" y="207.02" text-anchor="middle" font-family="Arial" font-size="10">73.34</text>
<text x="352" y="344" text-anchor="end" font-family="Arial" font-size="9" transform="rotate(-40 352,344)">5 angular randomized loose initial</text>
<rect x="408" y="233.90" width="44" height="96.10" fill="#4c78a8"/>
<text x="430" y="227.90" text-anchor="middle" font-family="Arial" font-size="10">60.25</text>
<text x="430" y="344" text-anchor="end" font-family="Arial" font-size="9" transform="rotate(-40 430,344)">5 loose initial</text>
<rect x="486" y="170.52" width="44" height="159.48" fill="#54a24b"/>
<text x="508" y="164.52" text-anchor="middle" font-family="Arial" font-size="10">99.98</text>
<text x="508" y="344" text-anchor="end" font-family="Arial" font-size="9" transform="rotate(-40 508,344)">5 radially separated</text>
<rect x="564" y="205.01" width="44" height="124.99" fill="#f58518"/>
<text x="586" y="199.01" text-anchor="middle" font-family="Arial" font-size="10">78.36</text>
<text x="586" y="344" text-anchor="end" font-family="Arial" font-size="9" transform="rotate(-40 586,344)">6 angular randomized loose initial</text>
<rect x="642" y="218.21" width="44" height="111.79" fill="#4c78a8"/>
<text x="664" y="212.21" text-anchor="middle" font-family="Arial" font-size="10">70.08</text>
<text x="664" y="344" text-anchor="end" font-family="Arial" font-size="9" transform="rotate(-40 664,344)">6 loose initial</text>
<rect x="720" y="139.81" width="44" height="190.19" fill="#54a24b"/>
<text x="742" y="133.81" text-anchor="middle" font-family="Arial" font-size="10">119.23</text>
<text x="742" y="344" text-anchor="end" font-family="Arial" font-size="9" transform="rotate(-40 742,344)">6 radially separated</text>
<rect x="798" y="184.80" width="44" height="145.20" fill="#f58518"/>
<text x="820" y="178.80" text-anchor="middle" font-family="Arial" font-size="10">91.02</text>
<text x="820" y="344" text-anchor="end" font-family="Arial" font-size="9" transform="rotate(-40 820,344)">7 angular randomized loose initial</text>
<rect x="876" y="204.09" width="44" height="125.91" fill="#4c78a8"/>
<text x="898" y="198.09" text-anchor="middle" font-family="Arial" font-size="10">78.93</text>
<text x="898" y="344" text-anchor="end" font-family="Arial" font-size="9" transform="rotate(-40 898,344)">7 loose initial</text>
<rect x="954" y="102.76" width="44" height="227.24" fill="#54a24b"/>
<text x="976" y="96.76" text-anchor="middle" font-family="Arial" font-size="10">142.46</text>
<text x="976" y="344" text-anchor="end" font-family="Arial" font-size="9" transform="rotate(-40 976,344)">7 radially separated</text>
<rect x="1032" y="193.52" width="44" height="136.48" fill="#f58518"/>
<text x="1054" y="187.52" text-anchor="middle" font-family="Arial" font-size="10">85.56</text>
<text x="1054" y="344" text-anchor="end" font-family="Arial" font-size="9" transform="rotate(-40 1054,344)">8 angular randomized loose initial</text>
<rect x="1110" y="201.78" width="44" height="128.22" fill="#4c78a8"/>
<text x="1132" y="195.78" text-anchor="middle" font-family="Arial" font-size="10">80.38</text>
<text x="1132" y="344" text-anchor="end" font-family="Arial" font-size="9" transform="rotate(-40 1132,344)">8 loose initial</text>
<rect x="1188" y="98.00" width="44" height="232.00" fill="#54a24b"/>
<text x="1210" y="92.00" text-anchor="middle" font-family="Arial" font-size="10">145.44</text>
<text x="1210" y="344" text-anchor="end" font-family="Arial" font-size="9" transform="rotate(-40 1210,344)">8 radially separated</text>
</svg>
