<svg xmlns="http://www.w3.org/2000/svg" width="1030" height="430" viewBox="0 0 1030 430">
<rect width="100%" height="100%" fill="white"/>
<text x="515" y="28" text-anchor="middle" font-family="Arial" font-size="17">Seed starting-ensemble cost audit</text>
<line x1="70" y1="80" x2="70" y2="330" stroke="#333"/>
<line x1="70" y1="330" x2="1006" y2="330" stroke="#333"/>
<text x="18" y="205" text-anchor="middle" font-family="Arial" font-size="12" transform="rotate(-90 18,205)">overall cost</text>
<rect x="96" y="98.00" width="44" height="232.00" fill="#f58518"/>
<text x="118" y="92.00" text-anchor="middle" font-family="Arial" font-size="10">90.93</text>
<text x="118" y="344" text-anchor="end" font-family="Arial" font-size="9" transform="rotate(-40 118,344)">4 angular randomized loose initial</text>
<rect x="174" y="172.76" width="44" height="157.24" fill="#4c78a8"/>
<text x="196" y="166.76" text-anchor="middle" font-family="Arial" font-size="10">61.63</text>
<text x="196" y="344" text-anchor="end" font-family="Arial" font-size="9" transform="rotate(-40 196,344)">4 loose initial</text>
<rect x="252" y="146.62" width="44" height="183.38" fill="#f58518"/>
<text x="274" y="140.62" text-anchor="middle" font-family="Arial" font-size="10">71.87</text>
<text x="274" y="344" text-anchor="end" font-family="Arial" font-size="9" transform="rotate(-40 274,344)">5 angular randomized loose initial</text>
<rect x="330" y="166.98" width="44" height="163.02" fill="#4c78a8"/>
<text x="352" y="160.98" text-anchor="middle" font-family="Arial" font-size="10">63.89</text>
<text x="352" y="344" text-anchor="end" font-family="Arial" font-size="9" transform="rotate(-40 352,344)">5 loose initial</text>
<rect x="408" y="131.90" width="44" height="198.10" fill="#f58518"/>
<text x="430" y="125.90" text-anchor="middle" font-family="Arial" font-size="10">77.64</text>
<text x="430" y="344" text-anchor="end" font-family="Arial" font-size="9" transform="rotate(-40 430,344)">6 angular randomized loose initial</text>
<rect x="486" y="151.70" width="44" height="178.30" fill="#4c78a8"/>
<text x="508" y="145.70" text-anchor="middle" font-family="Arial" font-size="10">69.88</text>
<text x="508" y="344" text-anchor="end" font-family="Arial" font-size="9" transform="rotate(-40 508,344)">6 loose initial</text>
<rect x="564" y="134.86" width="44" height="195.14" fill="#f58518"/>
<text x="586" y="128.86" text-anchor="middle" font-family="Arial" font-size="10">76.48</text>
<text x="586" y="344" text-anchor="end" font-family="Arial" font-size="9" transform="rotate(-40 586,344)">7 angular randomized loose initial</text>
<rect x="642" y="145.68" width="44" height="184.32" fill="#4c78a8"/>
<text x="664" y="139.68" text-anchor="middle" font-family="Arial" font-size="10">72.24</text>
<text x="664" y="344" text-anchor="end" font-family="Arial" font-size="9" transform="rotate(-40 664,344)">7 loose initial</text>
</svg>
