<svg xmlns="http://www.w3.org/2000/svg" width="2410" height="430" viewBox="0 0 2410 430">
<rect width="100%" height="100%" fill="white"/>
<text x="1205" y="28" text-anchor="middle" font-family="Arial" font-size="17">Seed starting-ensemble cost audit</text>
<line x1="70" y1="80" x2="70" y2="330" stroke="#333"/>
<line x1="70" y1="330" x2="2386" y2="330" stroke="#333"/>
<text x="18" y="205" text-anchor="middle" font-family="Arial" font-size="12" transform="rotate(-90 18,205)">overall cost</text>
<rect x="96" y="196.26" width="44" height="133.74" fill="#f58518"/>
<text x="118" y="190.26" text-anchor="middle" font-family="Arial" font-size="10">96.94</text>
<text x="118" y="344" text-anchor="end" font-family="Arial" font-size="9" transform="rotate(-40 118,344)">4 angular randomized loose initial</text>
<rect x="174" y="238.74" width="44" height="91.26" fill="#b279a2"/>
<text x="196" y="232.74" text-anchor="middle" font-family="Arial" font-size="10">66.15</text>
<text x="196" y="344" text-anchor="end" font-family="Arial" font-size="9" transform="rotate(-40 196,344)">4 axially misregistered</text>
<rect x="252" y="248.86" width="44" height="81.14" fill="#4c78a8"/>
<text x="274" y="242.86" text-anchor="middle" font-family="Arial" font-size="10">58.81</text>
<text x="274" y="344" text-anchor="end" font-family="Arial" font-size="9" transform="rotate(-40 274,344)">4 loose initial</text>
<rect x="330" y="183.99" width="44" height="146.01" fill="#54a24b"/>
<text x="352" y="177.99" text-anchor="middle" font-family="Arial" font-size="10">105.82</text>
<text x="352" y="344" text-anchor="end" font-family="Arial" font-size="9" transform="rotate(-40 352,344)">4 radially separated</text>
<rect x="408" y="213.34" width="44" height="116.66" fill="#f58518"/>
<text x="430" y="207.34" text-anchor="middle" font-family="Arial" font-size="10">84.55</text>
<text x="430" y="344" text-anchor="end" font-family="Arial" font-size="9" transform="rotate(-40 430,344)">5 angular randomized loose initial</text>
<rect x="486" y="221.41" width="44" height="108.59" fill="#b279a2"/>
<text x="508" y="215.41" text-anchor="middle" font-family="Arial" font-size="10">78.70</text>
<text x="508" y="344" text-anchor="end" font-family="Arial" font-size="9" transform="rotate(-40 508,344)">5 axially misregistered</text>
<rect x="564" y="231.86" width="44" height="98.14" fill="#4c78a8"/>
<text x="586" y="225.86" text-anchor="middle" font-family="Arial" font-size="10">71.13</text>
<text x="586" y="344" text-anchor="end" font-family="Arial" font-size="9" transform="rotate(-40 586,344)">5 loose initial</text>
<rect x="642" y="161.52" width="44" height="168.48" fill="#54a24b"/>
<text x="664" y="155.52" text-anchor="middle" font-family="Arial" font-size="10">122.11</text>
<text x="664" y="344" text-anchor="end" font-family="Arial" font-size="9" transform="rotate(-40 664,344)">5 radially separated</text>
<rect x="720" y="220.99" width="44" height="109.01" fill="#f58518"/>
<text x="742" y="214.99" text-anchor="middle" font-family="Arial" font-size="10">79.01</text>
<text x="742" y="344" text-anchor="end" font-family="Arial" font-size="9" transform="rotate(-40 742,344)">6 angular randomized loose initial</text>
<rect x="798" y="233.30" width="44" height="96.70" fill="#b279a2"/>
<text x="820" y="227.30" text-anchor="middle" font-family="Arial" font-size="10">70.09</text>
<text x="820" y="344" text-anchor="end" font-family="Arial" font-size="9" transform="rotate(-40 820,344)">6 axially misregistered</text>
<rect x="876" y="243.53" width="44" height="86.47" fill="#4c78a8"/>
<text x="898" y="237.53" text-anchor="middle" font-family="Arial" font-size="10">62.67</text>
<text x="898" y="344" text-anchor="end" font-family="Arial" font-size="9" transform="rotate(-40 898,344)">6 loose initial</text>
<rect x="954" y="180.08" width="44" height="149.92" fill="#54a24b"/>
<text x="976" y="174.08" text-anchor="middle" font-family="Arial" font-size="10">108.66</text>
<text x="976" y="344" text-anchor="end" font-family="Arial" font-size="9" transform="rotate(-40 976,344)">6 radially separated</text>
<rect x="1032" y="212.81" width="44" height="117.19" fill="#f58518"/>
<text x="1054" y="206.81" text-anchor="middle" font-family="Arial" font-size="10">84.94</text>
<text x="1054" y="344" text-anchor="end" font-family="Arial" font-size="9" transform="rotate(-40 1054,344)">7 angular randomized loose initial</text>
<rect x="1110" y="211.59" width="44" height="118.41" fill="#b279a2"/>
<text x="1132" y="205.59" text-anchor="middle" font-family="Arial" font-size="10">85.82</text>
<text x="1132" y="344" text-anchor="end" font-family="Arial" font-size="9" transform="rotate(-40 1132,344)">7 axially misregistered</text>
<rect x="1188" y="228.89" width="44" height="101.11" fill="#4c78a8"/>
<text x="1210" y="222.89" text-anchor="middle" font-family="Arial" font-size="10">73.29</text>
<text x="1210" y="344" text-anchor="end" font-family="Arial" font-size="9" transform="rotate(-40 1210,344)">7 loose initial</text>
<rect x="1266" y="149.37" width="44" height="180.63" fill="#54a24b"/>
<text x="1288" y="143.37" text-anchor="middle" font-family="Arial" font-size="10">130.92</text>
<text x="1288" y="344" text-anchor="end" font-family="Arial" font-size="9" transform="rotate(-40 1288,344)">7 radially separated</text>
<rect x="1344" y="195.61" width="44" height="134.39" fill="#f58518"/>
<text x="1366" y="189.61" text-anchor="middle" font-family="Arial" font-size="10">97.41</text>
<text x="1366" y="344" text-anchor="end" font-family="Arial" font-size="9" transform="rotate(-40 1366,344)">8 angular randomized loose initial</text>
<rect x="1422" y="190.11" width="44" height="139.89" fill="#b279a2"/>
<text x="1444" y="184.11" text-anchor="middle" font-family="Arial" font-size="10">101.39</text>
<text x="1444" y="344" text-anchor="end" font-family="Arial" font-size="9" transform="rotate(-40 1444,344)">8 axially misregistered</text>
<rect x="1500" y="207.17" width="44" height="122.83" fill="#4c78a8"/>
<text x="1522" y="201.17" text-anchor="middle" font-family="Arial" font-size="10">89.03</text>
<text x="1522" y="344" text-anchor="end" font-family="Arial" font-size="9" transform="rotate(-40 1522,344)">8 loose initial</text>
<rect x="1578" y="98.00" width="44" height="232.00" fill="#54a24b"/>
<text x="1600" y="92.00" text-anchor="middle" font-family="Arial" font-size="10">168.15</text>
<text x="1600" y="344" text-anchor="end" font-family="Arial" font-size="9" transform="rotate(-40 1600,344)">8 radially separated</text>
</svg>
