<svg xmlns="http://www.w3.org/2000/svg" width="980" height="440" viewBox="0 0 980 440">
<rect width="100%" height="100%" fill="white"/>
<text x="490" y="30" text-anchor="middle" font-family="Arial" font-size="17">4p5_5p0 atom-pair class contributions</text>
<line x1="80" y1="55" x2="80" y2="350" stroke="#333"/>
<line x1="80" y1="350" x2="950" y2="350" stroke="#333"/>
<rect x="110" y="327.34" width="30" height="22.66" fill="#4c78a8"/>
<text x="125" y="322.34" text-anchor="middle" font-family="Arial" font-size="8">351</text>
<rect x="144" y="328.31" width="30" height="21.69" fill="#f58518"/>
<text x="159" y="323.31" text-anchor="middle" font-family="Arial" font-size="8">336</text>
<rect x="178" y="337.22" width="30" height="12.78" fill="#54a24b"/>
<text x="193" y="332.22" text-anchor="middle" font-family="Arial" font-size="8">198</text>
<rect x="212" y="261.31" width="30" height="88.69" fill="#b279a2"/>
<text x="227" y="256.31" text-anchor="middle" font-family="Arial" font-size="8">1374</text>
<rect x="246" y="348.26" width="30" height="1.74" fill="#e45756"/>
<text x="261" y="343.26" text-anchor="middle" font-family="Arial" font-size="8">27</text>
<text x="195" y="368" text-anchor="middle" font-family="Arial" font-size="12">central6</text>
<rect x="330" y="321.53" width="30" height="28.47" fill="#4c78a8"/>
<text x="345" y="316.53" text-anchor="middle" font-family="Arial" font-size="8">441</text>
<rect x="364" y="322.95" width="30" height="27.05" fill="#f58518"/>
<text x="379" y="317.95" text-anchor="middle" font-family="Arial" font-size="8">419</text>
<rect x="398" y="334.90" width="30" height="15.10" fill="#54a24b"/>
<text x="413" y="329.90" text-anchor="middle" font-family="Arial" font-size="8">234</text>
<rect x="432" y="240.98" width="30" height="109.02" fill="#b279a2"/>
<text x="447" y="235.98" text-anchor="middle" font-family="Arial" font-size="8">1689</text>
<rect x="466" y="347.87" width="30" height="2.13" fill="#e45756"/>
<text x="481" y="342.87" text-anchor="middle" font-family="Arial" font-size="8">33</text>
<text x="415" y="368" text-anchor="middle" font-family="Arial" font-size="12">central7</text>
<rect x="550" y="285.52" width="30" height="64.48" fill="#4c78a8"/>
<text x="565" y="280.52" text-anchor="middle" font-family="Arial" font-size="8">999</text>
<rect x="584" y="287.26" width="30" height="62.74" fill="#f58518"/>
<text x="599" y="282.26" text-anchor="middle" font-family="Arial" font-size="8">972</text>
<rect x="618" y="316.31" width="30" height="33.69" fill="#54a24b"/>
<text x="633" y="311.31" text-anchor="middle" font-family="Arial" font-size="8">522</text>
<rect x="652" y="100.00" width="30" height="250.00" fill="#b279a2"/>
<text x="667" y="95.00" text-anchor="middle" font-family="Arial" font-size="8">3873</text>
<rect x="686" y="344.77" width="30" height="5.23" fill="#e45756"/>
<text x="701" y="339.77" text-anchor="middle" font-family="Arial" font-size="8">81</text>
<text x="635" y="368" text-anchor="middle" font-family="Arial" font-size="12">full</text>
<rect x="690" y="55" width="12" height="12" fill="#4c78a8"/>
<text x="707" y="65" font-family="Arial" font-size="11">backbone_like_vs_backbone_like</text>
<rect x="690" y="74" width="12" height="12" fill="#f58518"/>
<text x="707" y="84" font-family="Arial" font-size="11">backbone_like_vs_base_like</text>
<rect x="690" y="93" width="12" height="12" fill="#54a24b"/>
<text x="707" y="103" font-family="Arial" font-size="11">backbone_like_vs_scaffold_linker</text>
<rect x="690" y="112" width="12" height="12" fill="#b279a2"/>
<text x="707" y="122" font-family="Arial" font-size="11">base_like_vs_base_like</text>
<rect x="690" y="131" width="12" height="12" fill="#e45756"/>
<text x="707" y="141" font-family="Arial" font-size="11">scaffold_linker_vs_scaffold_linker</text>
</svg>
