<svg xmlns="http://www.w3.org/2000/svg" width="980" height="440" viewBox="0 0 980 440">
<rect width="100%" height="100%" fill="white"/>
<text x="490" y="30" text-anchor="middle" font-family="Arial" font-size="17">guessed_6p5_7p5 atom-pair class contributions</text>
<line x1="80" y1="55" x2="80" y2="350" stroke="#333"/>
<line x1="80" y1="350" x2="950" y2="350" stroke="#333"/>
<rect x="110" y="324.50" width="28" height="25.50" fill="#4c78a8"/>
<text x="124" y="319.50" text-anchor="middle" font-family="Arial" font-size="8">1338</text>
<rect x="142" y="294.64" width="28" height="55.36" fill="#f58518"/>
<text x="156" y="289.64" text-anchor="middle" font-family="Arial" font-size="8">2905</text>
<rect x="174" y="328.28" width="28" height="21.72" fill="#54a24b"/>
<text x="188" y="323.28" text-anchor="middle" font-family="Arial" font-size="8">1140</text>
<rect x="206" y="267.10" width="28" height="82.90" fill="#b279a2"/>
<text x="220" y="262.10" text-anchor="middle" font-family="Arial" font-size="8">4350</text>
<rect x="238" y="343.90" width="28" height="6.10" fill="#e45756"/>
<text x="252" y="338.90" text-anchor="middle" font-family="Arial" font-size="8">320</text>
<rect x="270" y="345.77" width="28" height="4.23" fill="#72b7b2"/>
<text x="284" y="340.77" text-anchor="middle" font-family="Arial" font-size="8">222</text>
<text x="206" y="368" text-anchor="middle" font-family="Arial" font-size="12">central6</text>
<rect x="352" y="319.43" width="28" height="30.57" fill="#4c78a8"/>
<text x="366" y="314.43" text-anchor="middle" font-family="Arial" font-size="8">1604</text>
<rect x="384" y="283.09" width="28" height="66.91" fill="#f58518"/>
<text x="398" y="278.09" text-anchor="middle" font-family="Arial" font-size="8">3511</text>
<rect x="416" y="323.59" width="28" height="26.41" fill="#54a24b"/>
<text x="430" y="318.59" text-anchor="middle" font-family="Arial" font-size="8">1386</text>
<rect x="448" y="246.64" width="28" height="103.36" fill="#b279a2"/>
<text x="462" y="241.64" text-anchor="middle" font-family="Arial" font-size="8">5424</text>
<rect x="480" y="342.36" width="28" height="7.64" fill="#e45756"/>
<text x="494" y="337.36" text-anchor="middle" font-family="Arial" font-size="8">401</text>
<rect x="512" y="344.74" width="28" height="5.26" fill="#72b7b2"/>
<text x="526" y="339.74" text-anchor="middle" font-family="Arial" font-size="8">276</text>
<text x="448" y="368" text-anchor="middle" font-family="Arial" font-size="12">central7</text>
<rect x="594" y="274.99" width="28" height="75.01" fill="#4c78a8"/>
<text x="608" y="269.99" text-anchor="middle" font-family="Arial" font-size="8">3936</text>
<rect x="626" y="193.17" width="28" height="156.83" fill="#f58518"/>
<text x="640" y="188.17" text-anchor="middle" font-family="Arial" font-size="8">8230</text>
<rect x="658" y="286.89" width="28" height="63.11" fill="#54a24b"/>
<text x="672" y="281.89" text-anchor="middle" font-family="Arial" font-size="8">3312</text>
<rect x="690" y="100.00" width="28" height="250.00" fill="#b279a2"/>
<text x="704" y="95.00" text-anchor="middle" font-family="Arial" font-size="8">13119</text>
<rect x="722" y="332.70" width="28" height="17.30" fill="#e45756"/>
<text x="736" y="327.70" text-anchor="middle" font-family="Arial" font-size="8">908</text>
<rect x="754" y="337.42" width="28" height="12.58" fill="#72b7b2"/>
<text x="768" y="332.42" text-anchor="middle" font-family="Arial" font-size="8">660</text>
<text x="690" y="368" text-anchor="middle" font-family="Arial" font-size="12">full</text>
<rect x="690" y="55" width="12" height="12" fill="#4c78a8"/>
<text x="707" y="65" font-family="Arial" font-size="11">backbone_like_vs_backbone_like</text>
<rect x="690" y="74" width="12" height="12" fill="#f58518"/>
<text x="707" y="84" font-family="Arial" font-size="11">backbone_like_vs_base_like</text>
<rect x="690" y="93" width="12" height="12" fill="#54a24b"/>
<text x="707" y="103" font-family="Arial" font-size="11">backbone_like_vs_scaffold_linker</text>
<rect x="690" y="112" width="12" height="12" fill="#b279a2"/>
<text x="707" y="122" font-family="Arial" font-size="11">base_like_vs_base_like</text>
<rect x="690" y="131" width="12" height="12" fill="#e45756"/>
<text x="707" y="141" font-family="Arial" font-size="11">base_like_vs_scaffold_linker</text>
<rect x="690" y="150" width="12" height="12" fill="#72b7b2"/>
<text x="707" y="160" font-family="Arial" font-size="11">scaffold_linker_vs_scaffold_linker</text>
</svg>
