<svg xmlns="http://www.w3.org/2000/svg" width="980" height="440" viewBox="0 0 980 440">
<rect width="100%" height="100%" fill="white"/>
<text x="490" y="30" text-anchor="middle" font-family="Arial" font-size="17">guessed_5p0_6p0 backbone-involving vs non-backbone</text>
<line x1="80" y1="55" x2="80" y2="350" stroke="#333"/>
<line x1="80" y1="350" x2="950" y2="350" stroke="#333"/>
<rect x="110" y="263.26" width="30" height="86.74" fill="#4c78a8"/>
<text x="125" y="258.26" text-anchor="middle" font-family="Arial" font-size="8">2846</text>
<rect x="144" y="262.78" width="30" height="87.22" fill="#f58518"/>
<text x="159" y="257.78" text-anchor="middle" font-family="Arial" font-size="8">2862</text>
<text x="144" y="368" text-anchor="middle" font-family="Arial" font-size="12">central6</text>
<rect x="228" y="241.56" width="30" height="108.44" fill="#4c78a8"/>
<text x="243" y="236.56" text-anchor="middle" font-family="Arial" font-size="8">3558</text>
<rect x="262" y="241.11" width="30" height="108.89" fill="#f58518"/>
<text x="277" y="236.11" text-anchor="middle" font-family="Arial" font-size="8">3573</text>
<text x="262" y="368" text-anchor="middle" font-family="Arial" font-size="12">central7</text>
<rect x="346" y="100.00" width="30" height="250.00" fill="#4c78a8"/>
<text x="361" y="95.00" text-anchor="middle" font-family="Arial" font-size="8">8203</text>
<rect x="380" y="100.67" width="30" height="249.33" fill="#f58518"/>
<text x="395" y="95.67" text-anchor="middle" font-family="Arial" font-size="8">8181</text>
<text x="380" y="368" text-anchor="middle" font-family="Arial" font-size="12">full</text>
<rect x="690" y="55" width="12" height="12" fill="#4c78a8"/>
<text x="707" y="65" font-family="Arial" font-size="11">backbone_involving</text>
<rect x="690" y="74" width="12" height="12" fill="#f58518"/>
<text x="707" y="84" font-family="Arial" font-size="11">non_backbone</text>
</svg>
