<svg xmlns="http://www.w3.org/2000/svg" width="980" height="440" viewBox="0 0 980 440">
<rect width="100%" height="100%" fill="white"/>
<text x="490" y="30" text-anchor="middle" font-family="Arial" font-size="17">guessed_6p5_7p5 backbone-involving vs non-backbone</text>
<line x1="80" y1="55" x2="80" y2="350" stroke="#333"/>
<line x1="80" y1="350" x2="950" y2="350" stroke="#333"/>
<rect x="110" y="263.05" width="30" height="86.95" fill="#4c78a8"/>
<text x="125" y="258.05" text-anchor="middle" font-family="Arial" font-size="8">5383</text>
<rect x="144" y="270.98" width="30" height="79.02" fill="#f58518"/>
<text x="159" y="265.98" text-anchor="middle" font-family="Arial" font-size="8">4892</text>
<text x="144" y="368" text-anchor="middle" font-family="Arial" font-size="12">central6</text>
<rect x="228" y="245.00" width="30" height="105.00" fill="#4c78a8"/>
<text x="243" y="240.00" text-anchor="middle" font-family="Arial" font-size="8">6501</text>
<rect x="262" y="251.46" width="30" height="98.54" fill="#f58518"/>
<text x="277" y="246.46" text-anchor="middle" font-family="Arial" font-size="8">6101</text>
<text x="262" y="368" text-anchor="middle" font-family="Arial" font-size="12">central7</text>
<rect x="346" y="100.00" width="30" height="250.00" fill="#4c78a8"/>
<text x="361" y="95.00" text-anchor="middle" font-family="Arial" font-size="8">15478</text>
<rect x="380" y="112.78" width="30" height="237.22" fill="#f58518"/>
<text x="395" y="107.78" text-anchor="middle" font-family="Arial" font-size="8">14687</text>
<text x="380" y="368" text-anchor="middle" font-family="Arial" font-size="12">full</text>
<rect x="690" y="55" width="12" height="12" fill="#4c78a8"/>
<text x="707" y="65" font-family="Arial" font-size="11">backbone_involving</text>
<rect x="690" y="74" width="12" height="12" fill="#f58518"/>
<text x="707" y="84" font-family="Arial" font-size="11">non_backbone</text>
</svg>
