<svg xmlns="http://www.w3.org/2000/svg" width="980" height="440" viewBox="0 0 980 440">
<rect width="100%" height="100%" fill="white"/>
<text x="490" y="30" text-anchor="middle" font-family="Arial" font-size="17">guessed_5p0_6p0 atom-pair class contributions</text>
<line x1="80" y1="55" x2="80" y2="350" stroke="#333"/>
<line x1="80" y1="350" x2="950" y2="350" stroke="#333"/>
<rect x="110" y="319.89" width="28" height="30.11" fill="#4c78a8"/>
<text x="124" y="314.89" text-anchor="middle" font-family="Arial" font-size="8">900</text>
<rect x="142" y="300.56" width="28" height="49.44" fill="#f58518"/>
<text x="156" y="295.56" text-anchor="middle" font-family="Arial" font-size="8">1478</text>
<rect x="174" y="334.34" width="28" height="15.66" fill="#54a24b"/>
<text x="188" y="329.34" text-anchor="middle" font-family="Arial" font-size="8">468</text>
<rect x="206" y="262.59" width="28" height="87.41" fill="#b279a2"/>
<text x="220" y="257.59" text-anchor="middle" font-family="Arial" font-size="8">2613</text>
<rect x="238" y="346.19" width="28" height="3.81" fill="#e45756"/>
<text x="252" y="341.19" text-anchor="middle" font-family="Arial" font-size="8">114</text>
<rect x="270" y="345.48" width="28" height="4.52" fill="#72b7b2"/>
<text x="284" y="340.48" text-anchor="middle" font-family="Arial" font-size="8">135</text>
<text x="206" y="368" text-anchor="middle" font-family="Arial" font-size="12">central6</text>
<rect x="352" y="311.26" width="28" height="38.74" fill="#4c78a8"/>
<text x="366" y="306.26" text-anchor="middle" font-family="Arial" font-size="8">1158</text>
<rect x="384" y="288.98" width="28" height="61.02" fill="#f58518"/>
<text x="398" y="283.98" text-anchor="middle" font-family="Arial" font-size="8">1824</text>
<rect x="416" y="330.73" width="28" height="19.27" fill="#54a24b"/>
<text x="430" y="325.73" text-anchor="middle" font-family="Arial" font-size="8">576</text>
<rect x="448" y="240.51" width="28" height="109.49" fill="#b279a2"/>
<text x="462" y="235.51" text-anchor="middle" font-family="Arial" font-size="8">3273</text>
<rect x="480" y="345.48" width="28" height="4.52" fill="#e45756"/>
<text x="494" y="340.48" text-anchor="middle" font-family="Arial" font-size="8">135</text>
<rect x="512" y="344.48" width="28" height="5.52" fill="#72b7b2"/>
<text x="526" y="339.48" text-anchor="middle" font-family="Arial" font-size="8">165</text>
<text x="448" y="368" text-anchor="middle" font-family="Arial" font-size="12">central7</text>
<rect x="594" y="258.47" width="28" height="91.53" fill="#4c78a8"/>
<text x="608" y="253.47" text-anchor="middle" font-family="Arial" font-size="8">2736</text>
<rect x="626" y="210.46" width="28" height="139.54" fill="#f58518"/>
<text x="640" y="205.46" text-anchor="middle" font-family="Arial" font-size="8">4171</text>
<rect x="658" y="306.64" width="28" height="43.36" fill="#54a24b"/>
<text x="672" y="301.64" text-anchor="middle" font-family="Arial" font-size="8">1296</text>
<rect x="690" y="100.00" width="28" height="250.00" fill="#b279a2"/>
<text x="704" y="95.00" text-anchor="middle" font-family="Arial" font-size="8">7473</text>
<rect x="722" y="339.86" width="28" height="10.14" fill="#e45756"/>
<text x="736" y="334.86" text-anchor="middle" font-family="Arial" font-size="8">303</text>
<rect x="754" y="336.45" width="28" height="13.55" fill="#72b7b2"/>
<text x="768" y="331.45" text-anchor="middle" font-family="Arial" font-size="8">405</text>
<text x="690" y="368" text-anchor="middle" font-family="Arial" font-size="12">full</text>
<rect x="690" y="55" width="12" height="12" fill="#4c78a8"/>
<text x="707" y="65" font-family="Arial" font-size="11">backbone_like_vs_backbone_like</text>
<rect x="690" y="74" width="12" height="12" fill="#f58518"/>
<text x="707" y="84" font-family="Arial" font-size="11">backbone_like_vs_base_like</text>
<rect x="690" y="93" width="12" height="12" fill="#54a24b"/>
<text x="707" y="103" font-family="Arial" font-size="11">backbone_like_vs_scaffold_linker</text>
<rect x="690" y="112" width="12" height="12" fill="#b279a2"/>
<text x="707" y="122" font-family="Arial" font-size="11">base_like_vs_base_like</text>
<rect x="690" y="131" width="12" height="12" fill="#e45756"/>
<text x="707" y="141" font-family="Arial" font-size="11">base_like_vs_scaffold_linker</text>
<rect x="690" y="150" width="12" height="12" fill="#72b7b2"/>
<text x="707" y="160" font-family="Arial" font-size="11">scaffold_linker_vs_scaffold_linker</text>
</svg>
