<svg xmlns="http://www.w3.org/2000/svg" width="980" height="440" viewBox="0 0 980 440">
<rect width="100%" height="100%" fill="white"/>
<text x="490" y="30" text-anchor="middle" font-family="Arial" font-size="17">guessed_6p5_7p5 same-chain vs interchain</text>
<line x1="80" y1="55" x2="80" y2="350" stroke="#333"/>
<line x1="80" y1="350" x2="950" y2="350" stroke="#333"/>
<rect x="110" y="319.41" width="30" height="30.59" fill="#4c78a8"/>
<text x="125" y="314.41" text-anchor="middle" font-family="Arial" font-size="8">2756</text>
<rect x="144" y="266.55" width="30" height="83.45" fill="#f58518"/>
<text x="159" y="261.55" text-anchor="middle" font-family="Arial" font-size="8">7519</text>
<text x="144" y="368" text-anchor="middle" font-family="Arial" font-size="12">central6</text>
<rect x="228" y="313.42" width="30" height="36.58" fill="#4c78a8"/>
<text x="243" y="308.42" text-anchor="middle" font-family="Arial" font-size="8">3296</text>
<rect x="262" y="246.71" width="30" height="103.29" fill="#f58518"/>
<text x="277" y="241.71" text-anchor="middle" font-family="Arial" font-size="8">9306</text>
<text x="262" y="368" text-anchor="middle" font-family="Arial" font-size="12">central7</text>
<rect x="346" y="265.21" width="30" height="84.79" fill="#4c78a8"/>
<text x="361" y="260.21" text-anchor="middle" font-family="Arial" font-size="8">7640</text>
<rect x="380" y="100.00" width="30" height="250.00" fill="#f58518"/>
<text x="395" y="95.00" text-anchor="middle" font-family="Arial" font-size="8">22525</text>
<text x="380" y="368" text-anchor="middle" font-family="Arial" font-size="12">full</text>
<rect x="690" y="55" width="12" height="12" fill="#4c78a8"/>
<text x="707" y="65" font-family="Arial" font-size="11">same_chain</text>
<rect x="690" y="74" width="12" height="12" fill="#f58518"/>
<text x="707" y="84" font-family="Arial" font-size="11">interchain</text>
</svg>
