<svg xmlns="http://www.w3.org/2000/svg" width="980" height="440" viewBox="0 0 980 440">
<rect width="100%" height="100%" fill="white"/>
<text x="490" y="30" text-anchor="middle" font-family="Arial" font-size="17">guessed_7p8_9p0 same-chain vs interchain</text>
<line x1="80" y1="55" x2="80" y2="350" stroke="#333"/>
<line x1="80" y1="350" x2="950" y2="350" stroke="#333"/>
<rect x="110" y="319.39" width="30" height="30.61" fill="#4c78a8"/>
<text x="125" y="314.39" text-anchor="middle" font-family="Arial" font-size="8">4039</text>
<rect x="144" y="265.18" width="30" height="84.82" fill="#f58518"/>
<text x="159" y="260.18" text-anchor="middle" font-family="Arial" font-size="8">11192</text>
<text x="144" y="368" text-anchor="middle" font-family="Arial" font-size="12">central6</text>
<rect x="228" y="313.04" width="30" height="36.96" fill="#4c78a8"/>
<text x="243" y="308.04" text-anchor="middle" font-family="Arial" font-size="8">4876</text>
<rect x="262" y="246.57" width="30" height="103.43" fill="#f58518"/>
<text x="277" y="241.57" text-anchor="middle" font-family="Arial" font-size="8">13647</text>
<text x="262" y="368" text-anchor="middle" font-family="Arial" font-size="12">central7</text>
<rect x="346" y="262.18" width="30" height="87.82" fill="#4c78a8"/>
<text x="361" y="257.18" text-anchor="middle" font-family="Arial" font-size="8">11587</text>
<rect x="380" y="100.00" width="30" height="250.00" fill="#f58518"/>
<text x="395" y="95.00" text-anchor="middle" font-family="Arial" font-size="8">32986</text>
<text x="380" y="368" text-anchor="middle" font-family="Arial" font-size="12">full</text>
<rect x="690" y="55" width="12" height="12" fill="#4c78a8"/>
<text x="707" y="65" font-family="Arial" font-size="11">same_chain</text>
<rect x="690" y="74" width="12" height="12" fill="#f58518"/>
<text x="707" y="84" font-family="Arial" font-size="11">interchain</text>
</svg>
