<svg xmlns="http://www.w3.org/2000/svg" width="980" height="440" viewBox="0 0 980 440">
<rect width="100%" height="100%" fill="white"/>
<text x="490" y="30" text-anchor="middle" font-family="Arial" font-size="17">guessed_7p8_9p0 atom-pair class contributions</text>
<line x1="80" y1="55" x2="80" y2="350" stroke="#333"/>
<line x1="80" y1="350" x2="950" y2="350" stroke="#333"/>
<rect x="110" y="328.86" width="28" height="21.14" fill="#4c78a8"/>
<text x="124" y="323.86" text-anchor="middle" font-family="Arial" font-size="8">1362</text>
<rect x="142" y="273.44" width="28" height="76.56" fill="#f58518"/>
<text x="156" y="268.44" text-anchor="middle" font-family="Arial" font-size="8">4932</text>
<rect x="174" y="321.03" width="28" height="28.97" fill="#54a24b"/>
<text x="188" y="316.03" text-anchor="middle" font-family="Arial" font-size="8">1866</text>
<rect x="206" y="265.38" width="28" height="84.62" fill="#b279a2"/>
<text x="220" y="260.38" text-anchor="middle" font-family="Arial" font-size="8">5451</text>
<rect x="238" y="332.63" width="28" height="17.37" fill="#e45756"/>
<text x="252" y="327.63" text-anchor="middle" font-family="Arial" font-size="8">1119</text>
<rect x="270" y="342.22" width="28" height="7.78" fill="#72b7b2"/>
<text x="284" y="337.22" text-anchor="middle" font-family="Arial" font-size="8">501</text>
<text x="206" y="368" text-anchor="middle" font-family="Arial" font-size="12">central6</text>
<rect x="352" y="325.32" width="28" height="24.68" fill="#4c78a8"/>
<text x="366" y="320.32" text-anchor="middle" font-family="Arial" font-size="8">1590</text>
<rect x="384" y="256.33" width="28" height="93.67" fill="#f58518"/>
<text x="398" y="251.33" text-anchor="middle" font-family="Arial" font-size="8">6034</text>
<rect x="416" y="314.79" width="28" height="35.21" fill="#54a24b"/>
<text x="430" y="309.79" text-anchor="middle" font-family="Arial" font-size="8">2268</text>
<rect x="448" y="245.91" width="28" height="104.09" fill="#b279a2"/>
<text x="462" y="240.91" text-anchor="middle" font-family="Arial" font-size="8">6705</text>
<rect x="480" y="329.18" width="28" height="20.82" fill="#e45756"/>
<text x="494" y="324.18" text-anchor="middle" font-family="Arial" font-size="8">1341</text>
<rect x="512" y="340.92" width="28" height="9.08" fill="#72b7b2"/>
<text x="526" y="335.92" text-anchor="middle" font-family="Arial" font-size="8">585</text>
<text x="448" y="368" text-anchor="middle" font-family="Arial" font-size="12">central7</text>
<rect x="594" y="288.34" width="28" height="61.66" fill="#4c78a8"/>
<text x="608" y="283.34" text-anchor="middle" font-family="Arial" font-size="8">3972</text>
<rect x="626" y="126.75" width="28" height="223.25" fill="#f58518"/>
<text x="640" y="121.75" text-anchor="middle" font-family="Arial" font-size="8">14381</text>
<rect x="658" y="264.59" width="28" height="85.41" fill="#54a24b"/>
<text x="672" y="259.59" text-anchor="middle" font-family="Arial" font-size="8">5502</text>
<rect x="690" y="100.00" width="28" height="250.00" fill="#b279a2"/>
<text x="704" y="95.00" text-anchor="middle" font-family="Arial" font-size="8">16104</text>
<rect x="722" y="301.61" width="28" height="48.39" fill="#e45756"/>
<text x="736" y="296.61" text-anchor="middle" font-family="Arial" font-size="8">3117</text>
<rect x="754" y="326.76" width="28" height="23.24" fill="#72b7b2"/>
<text x="768" y="321.76" text-anchor="middle" font-family="Arial" font-size="8">1497</text>
<text x="690" y="368" text-anchor="middle" font-family="Arial" font-size="12">full</text>
<rect x="690" y="55" width="12" height="12" fill="#4c78a8"/>
<text x="707" y="65" font-family="Arial" font-size="11">backbone_like_vs_backbone_like</text>
<rect x="690" y="74" width="12" height="12" fill="#f58518"/>
<text x="707" y="84" font-family="Arial" font-size="11">backbone_like_vs_base_like</text>
<rect x="690" y="93" width="12" height="12" fill="#54a24b"/>
<text x="707" y="103" font-family="Arial" font-size="11">backbone_like_vs_scaffold_linker</text>
<rect x="690" y="112" width="12" height="12" fill="#b279a2"/>
<text x="707" y="122" font-family="Arial" font-size="11">base_like_vs_base_like</text>
<rect x="690" y="131" width="12" height="12" fill="#e45756"/>
<text x="707" y="141" font-family="Arial" font-size="11">base_like_vs_scaffold_linker</text>
<rect x="690" y="150" width="12" height="12" fill="#72b7b2"/>
<text x="707" y="160" font-family="Arial" font-size="11">scaffold_linker_vs_scaffold_linker</text>
</svg>
