<svg xmlns="http://www.w3.org/2000/svg" width="900" height="520" viewBox="0 0 900 520">
<rect width="100%" height="100%" fill="white" />
<text x="24" y="30" font-family="Arial, sans-serif" font-size="18">Length sweep at 30 degree twist</text>
<line x1="70" y1="435" x2="830" y2="435" stroke="#333" stroke-width="1" />
<line x1="70" y1="55" x2="70" y2="435" stroke="#333" stroke-width="1" />
<text x="420" y="492" font-family="Arial, sans-serif" font-size="13">d-spacing (A)</text>
<text x="15" y="250" transform="rotate(-90 15,250)" font-family="Arial, sans-serif" font-size="13">normalized radial intensity</text>
<polyline points="70.00,55.00 798.57,320.31 807.11,396.03 808.60,396.03 814.75,432.01 816.74,431.59 819.59,434.52 819.96,434.52 820.31,434.29 820.95,434.29 822.27,433.95 823.30,432.94 823.48,433.74 823.82,434.16 824.13,433.71 824.92,433.67 825.04,433.85 825.37,433.83 825.66,434.41 825.76,434.41 825.85,434.02 826.02,434.09 826.10,434.51 826.33,434.53 826.41,434.59 826.61,434.18 826.86,433.93 826.92,434.14 826.98,434.11 827.04,434.58 827.25,434.33 827.35,434.37 827.44,434.28 827.49,434.35 827.58,434.65 827.70,434.56 827.74,434.14 827.89,434.52 827.93,434.56 828.00,434.45 828.07,434.43 828.10,434.41 828.23,434.19 828.26,434.57 828.29,434.34 828.34,434.34 828.37,433.50 828.42,434.54 828.48,434.30 828.50,433.94 828.53,433.01 828.58,434.52 828.62,433.66 828.65,434.30 828.67,434.30 828.74,432.57 828.76,434.65 828.82,434.67 828.84,434.36 828.86,434.72 828.88,433.81 828.90,434.47 828.94,433.51 828.97,434.78 828.99,434.50 829.04,434.54 829.06,434.74 829.09,434.61 829.11,434.39 829.13,434.50 829.14,434.67 829.20,434.64 829.22,434.76 829.23,434.63 829.25,434.68 829.26,434.65 829.29,434.73 829.30,434.57 829.34,434.73 829.36,434.73 829.37,434.67 829.38,434.68 829.40,434.56 829.41,434.76 829.42,434.74 829.45,434.72 829.46,434.70 829.47,434.76 829.48,434.65 829.53,434.55 829.55,434.37 829.56,434.59 829.58,434.51 829.59,434.68 829.63,434.38 829.65,434.64 829.68,434.20 829.71,434.64 829.71,434.54 829.73,434.33 829.78,434.62 829.79,434.67 829.84,434.66 829.85,434.62 829.89,434.66 829.90,434.69 829.95,434.67 830.00,434.60" fill="none" stroke="#1f77b4" stroke-width="1.7" />
<text data-kind="legend" x="640" y="62" font-family="Arial, sans-serif" font-size="11" fill="#1f77b4">length_4_central_twist_30</text>
<polyline points="70.00,55.00 798.57,350.00 807.11,423.17 808.60,423.17 814.75,434.45 816.74,432.69 819.59,433.99 819.96,433.99 820.31,434.76 820.95,434.59 822.27,434.69 823.30,434.85 823.48,434.72 823.82,434.52 824.13,434.58 824.92,434.28 825.04,434.42 825.37,434.47 825.66,434.48 825.76,434.48 825.85,434.53 826.02,434.47 826.10,434.73 826.33,434.79 826.41,434.76 826.61,434.62 826.86,434.19 826.92,434.38 826.98,434.46 827.04,434.76 827.25,434.60 827.35,434.68 827.44,434.77 827.49,434.76 827.58,434.76 827.70,434.72 827.74,434.54 827.89,434.69 827.93,434.84 828.00,434.55 828.07,434.59 828.10,434.65 828.23,434.62 828.26,434.64 828.29,434.65 828.34,434.60 828.37,434.57 828.42,434.78 828.48,434.69 828.50,434.56 828.53,434.06 828.58,434.76 828.62,434.16 828.65,434.69 828.67,434.59 828.74,432.69 828.76,434.76 828.82,434.82 828.84,434.50 828.86,434.87 828.88,433.99 828.90,434.46 828.94,433.99 828.97,434.83 828.99,434.60 829.04,434.83 829.06,434.86 829.09,434.72 829.11,434.83 829.13,434.75 829.14,434.86 829.20,434.85 829.22,434.83 829.23,434.80 829.25,434.88 829.26,434.80 829.29,434.89 829.30,434.78 829.34,434.91 829.36,434.85 829.37,434.80 829.38,434.80 829.40,434.71 829.41,434.84 829.42,434.87 829.45,434.85 829.46,434.78 829.47,434.85 829.48,434.86 829.53,434.72 829.55,434.62 829.56,434.72 829.58,434.73 829.59,434.85 829.63,434.52 829.65,434.85 829.68,434.46 829.71,434.86 829.71,434.77 829.73,434.73 829.78,434.77 829.79,434.85 829.84,434.79 829.85,434.80 829.89,434.77 829.90,434.80 829.95,434.86 830.00,434.85" fill="none" stroke="#d62728" stroke-width="1.7" />
<text data-kind="legend" x="640" y="80" font-family="Arial, sans-serif" font-size="11" fill="#d62728">length_7_central_twist_30</text>
<polyline points="70.00,55.00 798.57,361.10 807.11,427.62 808.60,427.62 814.75,434.68 816.74,433.03 819.59,434.74 819.96,434.74 820.31,434.96 820.95,434.73 822.27,434.54 823.30,434.43 823.48,434.81 823.82,434.71 824.13,434.56 824.92,434.18 825.04,434.49 825.37,434.46 825.66,434.70 825.76,434.70 825.85,434.57 826.02,434.40 826.10,434.84 826.33,434.88 826.41,434.84 826.61,434.60 826.86,434.20 826.92,434.46 826.98,434.52 827.04,434.86 827.25,434.74 827.35,434.81 827.44,434.85 827.49,434.80 827.58,434.77 827.70,434.70 827.74,434.53 827.89,434.80 827.93,434.82 828.00,434.62 828.07,434.72 828.10,434.70 828.23,434.63 828.26,434.68 828.29,434.71 828.34,434.62 828.37,434.67 828.42,434.78 828.48,434.70 828.50,434.68 828.53,434.37 828.58,434.75 828.62,434.36 828.65,434.71 828.67,434.64 828.74,432.78 828.76,434.79 828.82,434.84 828.84,434.52 828.86,434.87 828.88,433.98 828.90,434.52 828.94,434.08 828.97,434.85 828.99,434.67 829.04,434.87 829.06,434.86 829.09,434.76 829.11,434.89 829.13,434.82 829.14,434.89 829.20,434.86 829.22,434.85 829.23,434.84 829.25,434.91 829.26,434.84 829.29,434.91 829.30,434.81 829.34,434.91 829.36,434.87 829.37,434.81 829.38,434.84 829.40,434.74 829.41,434.88 829.42,434.88 829.45,434.88 829.46,434.79 829.47,434.86 829.48,434.86 829.53,434.73 829.55,434.65 829.56,434.74 829.58,434.82 829.59,434.87 829.63,434.60 829.65,434.89 829.68,434.49 829.71,434.90 829.71,434.77 829.73,434.81 829.78,434.81 829.79,434.86 829.84,434.84 829.85,434.78 829.89,434.85 829.90,434.82 829.95,434.88 830.00,434.92" fill="none" stroke="#2ca02c" stroke-width="1.7" />
<text data-kind="legend" x="640" y="98" font-family="Arial, sans-serif" font-size="11" fill="#2ca02c">length_8_central_twist_30</text>
<polyline points="70.00,55.00 798.57,396.37 807.11,429.39 808.60,429.39 814.75,434.87 816.74,434.08 819.59,434.83 819.96,434.83 820.31,434.91 820.95,434.91 822.27,434.81 823.30,434.93 823.48,434.86 823.82,434.79 824.13,434.67 824.92,434.47 825.04,434.64 825.37,434.59 825.66,434.82 825.76,434.82 825.85,434.83 826.02,434.70 826.10,434.92 826.33,434.95 826.41,434.88 826.61,434.68 826.86,434.39 826.92,434.61 826.98,434.73 827.04,434.92 827.25,434.84 827.35,434.84 827.44,434.96 827.49,434.86 827.58,434.82 827.70,434.78 827.74,434.71 827.89,434.88 827.93,434.90 828.00,434.70 828.07,434.84 828.10,434.82 828.23,434.83 828.26,434.72 828.29,434.82 828.34,434.74 828.37,434.61 828.42,434.89 828.48,434.79 828.50,434.79 828.53,434.75 828.58,434.84 828.62,434.74 828.65,434.92 828.67,434.84 828.74,432.99 828.76,434.82 828.82,434.87 828.84,434.61 828.86,434.93 828.88,434.15 828.90,434.54 828.94,434.60 828.97,434.91 828.99,434.76 829.04,434.94 829.06,434.92 829.09,434.87 829.11,434.94 829.13,434.88 829.14,434.92 829.20,434.88 829.22,434.90 829.23,434.90 829.25,434.94 829.26,434.90 829.29,434.95 829.30,434.91 829.34,434.96 829.36,434.93 829.37,434.87 829.38,434.88 829.40,434.81 829.41,434.90 829.42,434.94 829.45,434.92 829.46,434.82 829.47,434.92 829.48,434.91 829.53,434.84 829.55,434.80 829.56,434.81 829.58,434.88 829.59,434.92 829.63,434.67 829.65,434.93 829.68,434.59 829.71,434.93 829.71,434.82 829.73,434.94 829.78,434.90 829.79,434.92 829.84,434.90 829.85,434.86 829.89,434.94 829.90,434.88 829.95,434.92 830.00,434.97" fill="none" stroke="#9467bd" stroke-width="1.7" />
<text data-kind="legend" x="640" y="116" font-family="Arial, sans-serif" font-size="11" fill="#9467bd">length_12_central_twist_30</text>
<polyline points="70.00,55.00 798.57,413.06 807.11,430.82 808.60,430.82 814.75,434.76 816.74,434.41 819.59,434.67 819.96,434.67 820.31,434.92 820.95,434.96 822.27,434.89 823.30,434.98 823.48,434.92 823.82,434.81 824.13,434.81 824.92,434.64 825.04,434.68 825.37,434.74 825.66,434.86 825.76,434.86 825.85,434.88 826.02,434.85 826.10,434.91 826.33,434.96 826.41,434.90 826.61,434.75 826.86,434.50 826.92,434.66 826.98,434.83 827.04,434.93 827.25,434.86 827.35,434.87 827.44,434.94 827.49,434.89 827.58,434.84 827.70,434.83 827.74,434.74 827.89,434.89 827.93,434.96 828.00,434.76 828.07,434.92 828.10,434.86 828.23,434.80 828.26,434.74 828.29,434.82 828.34,434.80 828.37,434.74 828.42,434.94 828.48,434.83 828.50,434.80 828.53,434.66 828.58,434.90 828.62,434.89 828.65,434.95 828.67,434.92 828.74,433.15 828.76,434.84 828.82,434.88 828.84,434.65 828.86,434.95 828.88,434.29 828.90,434.55 828.94,434.86 828.97,434.94 828.99,434.82 829.04,434.94 829.06,434.94 829.09,434.90 829.11,434.98 829.13,434.88 829.14,434.94 829.20,434.89 829.22,434.92 829.23,434.93 829.25,434.95 829.26,434.91 829.29,434.96 829.30,434.94 829.34,434.97 829.36,434.95 829.37,434.89 829.38,434.92 829.40,434.81 829.41,434.91 829.42,434.96 829.45,434.92 829.46,434.85 829.47,434.95 829.48,434.93 829.53,434.87 829.55,434.88 829.56,434.84 829.58,434.90 829.59,434.94 829.63,434.69 829.65,434.93 829.68,434.65 829.71,434.95 829.71,434.87 829.73,434.97 829.78,434.93 829.79,434.92 829.84,434.90 829.85,434.87 829.89,434.95 829.90,434.90 829.95,434.95 830.00,434.99" fill="none" stroke="#ff7f0e" stroke-width="1.7" />
<text data-kind="legend" x="640" y="134" font-family="Arial, sans-serif" font-size="11" fill="#ff7f0e">full_length_twist_30</text>
</svg>
