<svg xmlns="http://www.w3.org/2000/svg" width="900" height="520" viewBox="0 0 900 520">
<rect width="100%" height="100%" fill="white" />
<text x="24" y="30" font-family="Arial, sans-serif" font-size="18">Length sweep, d = 4.5-5.0 A</text>
<line x1="70" y1="435" x2="830" y2="435" stroke="#333" stroke-width="1" />
<line x1="70" y1="55" x2="70" y2="435" stroke="#333" stroke-width="1" />
<text x="420" y="492" font-family="Arial, sans-serif" font-size="13">d-spacing (A)</text>
<text x="15" y="250" transform="rotate(-90 15,250)" font-family="Arial, sans-serif" font-size="13">normalized radial intensity</text>
<polyline points="70.00,118.66 185.76,146.84 409.78,281.25 728.24,240.88 830.00,55.00" fill="none" stroke="#1f77b4" stroke-width="1.7" />
<text data-kind="legend" x="640" y="62" font-family="Arial, sans-serif" font-size="11" fill="#1f77b4">length_4_central_twist_30</text>
<polyline points="70.00,242.58 185.76,235.19 409.78,238.84 728.24,202.71 830.00,55.00" fill="none" stroke="#d62728" stroke-width="1.7" />
<text data-kind="legend" x="640" y="80" font-family="Arial, sans-serif" font-size="11" fill="#d62728">length_7_central_twist_30</text>
<polyline points="70.00,313.82 185.76,273.75 409.78,245.49 728.24,193.37 830.00,55.00" fill="none" stroke="#2ca02c" stroke-width="1.7" />
<text data-kind="legend" x="640" y="98" font-family="Arial, sans-serif" font-size="11" fill="#2ca02c">length_8_central_twist_30</text>
<polyline points="70.00,385.39 185.76,251.28 409.78,194.11 728.24,143.59 830.00,55.00" fill="none" stroke="#9467bd" stroke-width="1.7" />
<text data-kind="legend" x="640" y="116" font-family="Arial, sans-serif" font-size="11" fill="#9467bd">length_12_central_twist_30</text>
<polyline points="70.00,342.37 185.76,274.60 409.78,205.08 728.24,181.78 830.00,55.00" fill="none" stroke="#ff7f0e" stroke-width="1.7" />
<text data-kind="legend" x="640" y="134" font-family="Arial, sans-serif" font-size="11" fill="#ff7f0e">full_length_twist_30</text>
</svg>
