<svg xmlns="http://www.w3.org/2000/svg" width="900" height="520" viewBox="0 0 900 520">
<rect width="100%" height="100%" fill="white" />
<text x="24" y="30" font-family="Arial, sans-serif" font-size="18">Length sweep, d = 4.1-8.4 A</text>
<line x1="70" y1="435" x2="830" y2="435" stroke="#333" stroke-width="1" />
<line x1="70" y1="55" x2="70" y2="435" stroke="#333" stroke-width="1" />
<text x="420" y="492" font-family="Arial, sans-serif" font-size="13">d-spacing (A)</text>
<text x="15" y="250" transform="rotate(-90 15,250)" font-family="Arial, sans-serif" font-size="13">normalized radial intensity</text>
<polyline points="70.00,55.00 97.95,107.58 176.23,102.02 247.08,267.45 269.23,267.45 290.70,154.43 331.72,175.23 351.32,294.47 406.83,299.33 424.31,316.77 473.95,201.82 534.27,129.68 548.41,188.76 562.20,180.54 575.65,316.23 626.32,244.93 649.93,255.06 672.48,230.01 683.38,248.27 704.48,335.37 734.48,309.21 744.06,188.75 780.49,297.41 789.15,307.86 805.97,279.02 822.14,272.19 830.00,265.45" fill="none" stroke="#1f77b4" stroke-width="1.7" />
<text data-kind="legend" x="640" y="62" font-family="Arial, sans-serif" font-size="11" fill="#1f77b4">length_4_central_twist_30</text>
<polyline points="70.00,98.12 97.95,163.92 176.23,185.67 247.08,189.87 269.23,189.87 290.70,213.87 331.72,188.66 351.32,308.62 406.83,335.22 424.31,324.58 473.95,258.41 534.27,55.00 548.41,144.95 562.20,182.33 575.65,324.84 626.32,246.52 649.93,286.87 672.48,325.12 683.38,320.91 704.48,322.99 734.48,302.36 744.06,218.01 780.49,290.43 789.15,358.77 805.97,226.28 822.14,244.11 830.00,270.49" fill="none" stroke="#d62728" stroke-width="1.7" />
<text data-kind="legend" x="640" y="80" font-family="Arial, sans-serif" font-size="11" fill="#d62728">length_7_central_twist_30</text>
<polyline points="70.00,55.00 97.95,197.66 176.23,184.25 247.08,296.68 269.23,296.68 290.70,234.83 331.72,156.19 351.32,361.54 406.83,377.84 424.31,361.71 473.95,248.67 534.27,63.61 548.41,183.32 562.20,215.20 575.65,370.52 626.32,315.05 649.93,346.70 672.48,365.85 683.38,342.98 704.48,326.85 734.48,297.11 744.06,218.15 780.49,343.31 789.15,353.50 805.97,258.09 822.14,304.17 830.00,295.88" fill="none" stroke="#2ca02c" stroke-width="1.7" />
<text data-kind="legend" x="640" y="98" font-family="Arial, sans-serif" font-size="11" fill="#2ca02c">length_8_central_twist_30</text>
<polyline points="70.00,104.28 97.95,211.19 176.23,178.45 247.08,324.02 269.23,324.02 290.70,328.11 331.72,250.47 351.32,385.32 406.83,402.78 424.31,359.62 473.95,234.59 534.27,55.00 548.41,194.26 562.20,266.99 575.65,386.11 626.32,335.15 649.93,337.60 672.48,411.52 683.38,348.03 704.48,320.97 734.48,297.05 744.06,255.12 780.49,360.84 789.15,372.36 805.97,248.85 822.14,337.29 830.00,322.54" fill="none" stroke="#9467bd" stroke-width="1.7" />
<text data-kind="legend" x="640" y="116" font-family="Arial, sans-serif" font-size="11" fill="#9467bd">length_12_central_twist_30</text>
<polyline points="70.00,164.99 97.95,190.89 176.23,236.56 247.08,329.50 269.23,329.50 290.70,345.95 331.72,321.46 351.32,365.16 406.83,401.72 424.31,359.51 473.95,245.37 534.27,55.00 548.41,176.99 562.20,308.98 575.65,381.01 626.32,328.51 649.93,338.08 672.48,387.21 683.38,352.25 704.48,316.38 734.48,304.36 744.06,238.95 780.49,355.59 789.15,401.46 805.97,254.28 822.14,374.16 830.00,330.17" fill="none" stroke="#ff7f0e" stroke-width="1.7" />
<text data-kind="legend" x="640" y="134" font-family="Arial, sans-serif" font-size="11" fill="#ff7f0e">full_length_twist_30</text>
</svg>
