<svg xmlns="http://www.w3.org/2000/svg" width="1080" height="420" viewBox="0 0 1080 420">
<rect width="100%" height="100%" fill="white"/>
<text x="540" y="28" text-anchor="middle" font-family="Arial" font-size="17">Current-tolerance discrimination score</text>
<line x1="70" y1="72" x2="70" y2="310" stroke="#333"/>
<line x1="70" y1="310" x2="1060" y2="310" stroke="#333"/>
<rect x="92" y="90.00" width="28" height="220.00" fill="#4e79a7"/>
<text x="106" y="324" text-anchor="end" font-family="Arial" font-size="8" transform="rotate(-42 106,324)">central12 units 30deg</text>
<rect x="160" y="112.65" width="28" height="197.35" fill="#4e79a7"/>
<text x="174" y="324" text-anchor="end" font-family="Arial" font-size="8" transform="rotate(-42 174,324)">nick hexaplex 8hexads</text>
<rect x="228" y="140.87" width="28" height="169.13" fill="#4e79a7"/>
<text x="242" y="324" text-anchor="end" font-family="Arial" font-size="8" transform="rotate(-42 242,324)">base length scale 0p85</text>
<rect x="296" y="147.38" width="28" height="162.62" fill="#4e79a7"/>
<text x="310" y="324" text-anchor="end" font-family="Arial" font-size="8" transform="rotate(-42 310,324)">negative scaffold only</text>
<rect x="364" y="151.42" width="28" height="158.58" fill="#4e79a7"/>
<text x="378" y="324" text-anchor="end" font-family="Arial" font-size="8" transform="rotate(-42 378,324)">negative hexads only</text>
<rect x="432" y="178.70" width="28" height="131.30" fill="#4e79a7"/>
<text x="446" y="324" text-anchor="end" font-family="Arial" font-size="8" transform="rotate(-42 446,324)">central8 units 30deg</text>
<rect x="500" y="229.79" width="28" height="80.21" fill="#4e79a7"/>
<text x="514" y="324" text-anchor="end" font-family="Arial" font-size="8" transform="rotate(-42 514,324)">full length twist 30</text>
<rect x="568" y="229.79" width="28" height="80.21" fill="#4e79a7"/>
<text x="582" y="324" text-anchor="end" font-family="Arial" font-size="8" transform="rotate(-42 582,324)">base length scale 0p90</text>
<rect x="636" y="229.79" width="28" height="80.21" fill="#4e79a7"/>
<text x="650" y="324" text-anchor="end" font-family="Arial" font-size="8" transform="rotate(-42 650,324)">base length scale 0p95</text>
<rect x="704" y="229.79" width="28" height="80.21" fill="#4e79a7"/>
<text x="718" y="324" text-anchor="end" font-family="Arial" font-size="8" transform="rotate(-42 718,324)">base length scale 1p00</text>
<rect x="772" y="229.79" width="28" height="80.21" fill="#4e79a7"/>
<text x="786" y="324" text-anchor="end" font-family="Arial" font-size="8" transform="rotate(-42 786,324)">ideal antiparallel 30deg hexaplex</text>
<rect x="840" y="242.72" width="28" height="67.28" fill="#4e79a7"/>
<text x="854" y="324" text-anchor="end" font-family="Arial" font-size="8" transform="rotate(-42 854,324)">central6 units 30deg</text>
<rect x="908" y="242.72" width="28" height="67.28" fill="#4e79a7"/>
<text x="922" y="324" text-anchor="end" font-family="Arial" font-size="8" transform="rotate(-42 922,324)">central7 units 30deg</text>
<rect x="976" y="242.72" width="28" height="67.28" fill="#4e79a7"/>
<text x="990" y="324" text-anchor="end" font-family="Arial" font-size="8" transform="rotate(-42 990,324)">base length scale 1p05</text>
</svg>
