<svg xmlns="http://www.w3.org/2000/svg" width="920" height="1252" viewBox="0 0 920 1252">
<rect width="100%" height="100%" fill="white"/>
<text x="460" y="26" text-anchor="middle" font-family="Arial" font-size="17">central7 Aleph series companion traces</text>
<text x="460" y="46" text-anchor="middle" font-family="Arial" font-size="11" fill="#555">Aleph companion traces by unit transition</text>
<line x1="94" y1="74" x2="94" y2="290" stroke="#333"/>
<line x1="94" y1="290" x2="886" y2="290" stroke="#333"/>
<line x1="90" y1="217.36" x2="886" y2="217.36" stroke="#e2e2e2"/>
<text x="86" y="221.36" text-anchor="end" font-family="Arial" font-size="10">-50</text>
<line x1="90" y1="140.83" x2="886" y2="140.83" stroke="#e2e2e2"/>
<text x="86" y="144.83" text-anchor="end" font-family="Arial" font-size="10">0</text>
<line x1="90" y1="94.90" x2="886" y2="94.90" stroke="#e2e2e2"/>
<text x="86" y="98.90" text-anchor="end" font-family="Arial" font-size="10">30</text>
<line x1="94.00" y1="290" x2="94.00" y2="294" stroke="#333"/>
<text x="94.00" y="306" text-anchor="middle" font-family="Arial" font-size="10">U1->U2</text>
<line x1="252.40" y1="290" x2="252.40" y2="294" stroke="#333"/>
<text x="252.40" y="306" text-anchor="middle" font-family="Arial" font-size="10">U2->U3</text>
<line x1="410.80" y1="290" x2="410.80" y2="294" stroke="#333"/>
<text x="410.80" y="306" text-anchor="middle" font-family="Arial" font-size="10">U3->U4</text>
<line x1="569.20" y1="290" x2="569.20" y2="294" stroke="#333"/>
<text x="569.20" y="306" text-anchor="middle" font-family="Arial" font-size="10">U4->U5</text>
<line x1="727.60" y1="290" x2="727.60" y2="294" stroke="#333"/>
<text x="727.60" y="306" text-anchor="middle" font-family="Arial" font-size="10">U5->U6</text>
<line x1="886.00" y1="290" x2="886.00" y2="294" stroke="#333"/>
<text x="886.00" y="306" text-anchor="middle" font-family="Arial" font-size="10">U6->U7</text>
<text x="18" y="88" font-family="Arial" font-size="12" font-weight="bold">signed twist</text>
<line x1="94" y1="94.90" x2="886" y2="94.90" stroke="#777" stroke-dasharray="4 4"/>
<text x="882" y="90.90" text-anchor="end" font-family="Arial" font-size="10">30 deg reference</text>
<polyline points="94.00,235.30 252.40,160.61 410.80,143.50 569.20,143.77 727.60,168.23 886.00,269.10" fill="none" stroke="#4c78a8" stroke-width="2"/>
<circle cx="94.00" cy="235.30" r="4" fill="#4c78a8" stroke="white" stroke-width="1"/>
<circle cx="252.40" cy="160.61" r="4" fill="#4c78a8" stroke="white" stroke-width="1"/>
<circle cx="410.80" cy="143.50" r="4" fill="#4c78a8" stroke="white" stroke-width="1"/>
<circle cx="569.20" cy="143.77" r="4" fill="#4c78a8" stroke="white" stroke-width="1"/>
<circle cx="727.60" cy="168.23" r="4" fill="#4c78a8" stroke="white" stroke-width="1"/>
<circle cx="886.00" cy="269.10" r="4" fill="#4c78a8" stroke="white" stroke-width="1"/>
<text x="18" y="187" text-anchor="middle" font-family="Arial" font-size="11" transform="rotate(-90 18,187)">feature value</text>
<line x1="94" y1="368" x2="94" y2="584" stroke="#333"/>
<line x1="94" y1="584" x2="886" y2="584" stroke="#333"/>
<line x1="90" y1="574.45" x2="886" y2="574.45" stroke="#e2e2e2"/>
<text x="86" y="578.45" text-anchor="end" font-family="Arial" font-size="10">2</text>
<line x1="90" y1="517.36" x2="886" y2="517.36" stroke="#e2e2e2"/>
<text x="86" y="521.36" text-anchor="end" font-family="Arial" font-size="10">3</text>
<line x1="90" y1="460.28" x2="886" y2="460.28" stroke="#e2e2e2"/>
<text x="86" y="464.28" text-anchor="end" font-family="Arial" font-size="10">4</text>
<line x1="90" y1="403.19" x2="886" y2="403.19" stroke="#e2e2e2"/>
<text x="86" y="407.19" text-anchor="end" font-family="Arial" font-size="10">5</text>
<line x1="94.00" y1="584" x2="94.00" y2="588" stroke="#333"/>
<text x="94.00" y="600" text-anchor="middle" font-family="Arial" font-size="10">U1->U2</text>
<line x1="252.40" y1="584" x2="252.40" y2="588" stroke="#333"/>
<text x="252.40" y="600" text-anchor="middle" font-family="Arial" font-size="10">U2->U3</text>
<line x1="410.80" y1="584" x2="410.80" y2="588" stroke="#333"/>
<text x="410.80" y="600" text-anchor="middle" font-family="Arial" font-size="10">U3->U4</text>
<line x1="569.20" y1="584" x2="569.20" y2="588" stroke="#333"/>
<text x="569.20" y="600" text-anchor="middle" font-family="Arial" font-size="10">U4->U5</text>
<line x1="727.60" y1="584" x2="727.60" y2="588" stroke="#333"/>
<text x="727.60" y="600" text-anchor="middle" font-family="Arial" font-size="10">U5->U6</text>
<line x1="886.00" y1="584" x2="886.00" y2="588" stroke="#333"/>
<text x="886.00" y="600" text-anchor="middle" font-family="Arial" font-size="10">U6->U7</text>
<text x="18" y="382" font-family="Arial" font-size="12" font-weight="bold">local rise</text>
<polyline points="94.00,507.10 252.40,453.18 410.80,425.09 569.20,430.41 727.60,467.73 886.00,526.91" fill="none" stroke="#f58518" stroke-width="2"/>
<circle cx="94.00" cy="507.10" r="4" fill="#f58518" stroke="white" stroke-width="1"/>
<circle cx="252.40" cy="453.18" r="4" fill="#f58518" stroke="white" stroke-width="1"/>
<circle cx="410.80" cy="425.09" r="4" fill="#f58518" stroke="white" stroke-width="1"/>
<circle cx="569.20" cy="430.41" r="4" fill="#f58518" stroke="white" stroke-width="1"/>
<circle cx="727.60" cy="467.73" r="4" fill="#f58518" stroke="white" stroke-width="1"/>
<circle cx="886.00" cy="526.91" r="4" fill="#f58518" stroke="white" stroke-width="1"/>
<text x="18" y="481" text-anchor="middle" font-family="Arial" font-size="11" transform="rotate(-90 18,481)">feature value</text>
<line x1="94" y1="662" x2="94" y2="878" stroke="#333"/>
<line x1="94" y1="878" x2="886" y2="878" stroke="#333"/>
<line x1="90" y1="863.75" x2="886" y2="863.75" stroke="#e2e2e2"/>
<text x="86" y="867.75" text-anchor="end" font-family="Arial" font-size="10">20</text>
<line x1="90" y1="795.88" x2="886" y2="795.88" stroke="#e2e2e2"/>
<text x="86" y="799.88" text-anchor="end" font-family="Arial" font-size="10">40</text>
<line x1="90" y1="728.01" x2="886" y2="728.01" stroke="#e2e2e2"/>
<text x="86" y="732.01" text-anchor="end" font-family="Arial" font-size="10">60</text>
<line x1="94.00" y1="878" x2="94.00" y2="882" stroke="#333"/>
<text x="94.00" y="894" text-anchor="middle" font-family="Arial" font-size="10">U1->U2</text>
<line x1="252.40" y1="878" x2="252.40" y2="882" stroke="#333"/>
<text x="252.40" y="894" text-anchor="middle" font-family="Arial" font-size="10">U2->U3</text>
<line x1="410.80" y1="878" x2="410.80" y2="882" stroke="#333"/>
<text x="410.80" y="894" text-anchor="middle" font-family="Arial" font-size="10">U3->U4</text>
<line x1="569.20" y1="878" x2="569.20" y2="882" stroke="#333"/>
<text x="569.20" y="894" text-anchor="middle" font-family="Arial" font-size="10">U4->U5</text>
<line x1="727.60" y1="878" x2="727.60" y2="882" stroke="#333"/>
<text x="727.60" y="894" text-anchor="middle" font-family="Arial" font-size="10">U5->U6</text>
<line x1="886.00" y1="878" x2="886.00" y2="882" stroke="#333"/>
<text x="886.00" y="894" text-anchor="middle" font-family="Arial" font-size="10">U6->U7</text>
<text x="18" y="676" font-family="Arial" font-size="12" font-weight="bold">base-plane bend</text>
<polyline points="94.00,857.10 252.40,682.90 410.80,769.58 569.20,769.59 727.60,688.19 886.00,849.34" fill="none" stroke="#54a24b" stroke-width="2"/>
<circle cx="94.00" cy="857.10" r="4" fill="#54a24b" stroke="white" stroke-width="1"/>
<circle cx="252.40" cy="682.90" r="4" fill="#54a24b" stroke="white" stroke-width="1"/>
<circle cx="410.80" cy="769.58" r="4" fill="#54a24b" stroke="white" stroke-width="1"/>
<circle cx="569.20" cy="769.59" r="4" fill="#54a24b" stroke="white" stroke-width="1"/>
<circle cx="727.60" cy="688.19" r="4" fill="#54a24b" stroke="white" stroke-width="1"/>
<circle cx="886.00" cy="849.34" r="4" fill="#54a24b" stroke="white" stroke-width="1"/>
<text x="18" y="775" text-anchor="middle" font-family="Arial" font-size="11" transform="rotate(-90 18,775)">feature value</text>
<line x1="94" y1="956" x2="94" y2="1172" stroke="#333"/>
<line x1="94" y1="1172" x2="886" y2="1172" stroke="#333"/>
<line x1="90" y1="1153.64" x2="886" y2="1153.64" stroke="#e2e2e2"/>
<text x="86" y="1157.64" text-anchor="end" font-family="Arial" font-size="10">10</text>
<line x1="90" y1="1110.27" x2="886" y2="1110.27" stroke="#e2e2e2"/>
<text x="86" y="1114.27" text-anchor="end" font-family="Arial" font-size="10">20</text>
<line x1="90" y1="1066.90" x2="886" y2="1066.90" stroke="#e2e2e2"/>
<text x="86" y="1070.90" text-anchor="end" font-family="Arial" font-size="10">30</text>
<line x1="90" y1="1023.53" x2="886" y2="1023.53" stroke="#e2e2e2"/>
<text x="86" y="1027.53" text-anchor="end" font-family="Arial" font-size="10">40</text>
<line x1="90" y1="980.16" x2="886" y2="980.16" stroke="#e2e2e2"/>
<text x="86" y="984.16" text-anchor="end" font-family="Arial" font-size="10">50</text>
<line x1="94.00" y1="1172" x2="94.00" y2="1176" stroke="#333"/>
<text x="94.00" y="1188" text-anchor="middle" font-family="Arial" font-size="10">U1->U2</text>
<line x1="252.40" y1="1172" x2="252.40" y2="1176" stroke="#333"/>
<text x="252.40" y="1188" text-anchor="middle" font-family="Arial" font-size="10">U2->U3</text>
<line x1="410.80" y1="1172" x2="410.80" y2="1176" stroke="#333"/>
<text x="410.80" y="1188" text-anchor="middle" font-family="Arial" font-size="10">U3->U4</text>
<line x1="569.20" y1="1172" x2="569.20" y2="1176" stroke="#333"/>
<text x="569.20" y="1188" text-anchor="middle" font-family="Arial" font-size="10">U4->U5</text>
<line x1="727.60" y1="1172" x2="727.60" y2="1176" stroke="#333"/>
<text x="727.60" y="1188" text-anchor="middle" font-family="Arial" font-size="10">U5->U6</text>
<line x1="886.00" y1="1172" x2="886.00" y2="1176" stroke="#333"/>
<text x="886.00" y="1188" text-anchor="middle" font-family="Arial" font-size="10">U6->U7</text>
<text x="18" y="970" font-family="Arial" font-size="12" font-weight="bold">scaffold-plane bend</text>
<polyline points="94.00,976.90 252.40,1123.81 410.80,1151.10 569.20,1072.41 727.60,1096.28 886.00,1048.64" fill="none" stroke="#b279a2" stroke-width="2"/>
<circle cx="94.00" cy="976.90" r="4" fill="#b279a2" stroke="white" stroke-width="1"/>
<circle cx="252.40" cy="1123.81" r="4" fill="#b279a2" stroke="white" stroke-width="1"/>
<circle cx="410.80" cy="1151.10" r="4" fill="#b279a2" stroke="white" stroke-width="1"/>
<circle cx="569.20" cy="1072.41" r="4" fill="#b279a2" stroke="white" stroke-width="1"/>
<circle cx="727.60" cy="1096.28" r="4" fill="#b279a2" stroke="white" stroke-width="1"/>
<circle cx="886.00" cy="1048.64" r="4" fill="#b279a2" stroke="white" stroke-width="1"/>
<text x="18" y="1069" text-anchor="middle" font-family="Arial" font-size="11" transform="rotate(-90 18,1069)">feature value</text>
<text x="460" y="1236" text-anchor="middle" font-family="Arial" font-size="12">Aleph unit transition</text>
</svg>
