<svg xmlns="http://www.w3.org/2000/svg" width="920" height="480" viewBox="0 0 920 480">
<rect width="100%" height="100%" fill="white"/>
<text x="460" y="26" text-anchor="middle" font-family="Arial" font-size="17">full Aleph signed-twist diagnostic</text>
<text x="460" y="46" text-anchor="middle" font-family="Arial" font-size="11" fill="#555">Aleph signed-twist diagnostic: direction-sensitive local twist by unit transition</text>
<line x1="94" y1="74" x2="94" y2="400" stroke="#333"/>
<line x1="94" y1="400" x2="886" y2="400" stroke="#333"/>
<line x1="90" y1="381.59" x2="886" y2="381.59" stroke="#e2e2e2"/>
<text x="86" y="385.59" text-anchor="end" font-family="Arial" font-size="10">-40</text>
<line x1="90" y1="302.72" x2="886" y2="302.72" stroke="#e2e2e2"/>
<text x="86" y="306.72" text-anchor="end" font-family="Arial" font-size="10">-20</text>
<line x1="90" y1="223.85" x2="886" y2="223.85" stroke="#e2e2e2"/>
<text x="86" y="227.85" text-anchor="end" font-family="Arial" font-size="10">0</text>
<line x1="90" y1="144.98" x2="886" y2="144.98" stroke="#e2e2e2"/>
<text x="86" y="148.98" text-anchor="end" font-family="Arial" font-size="10">20</text>
<line x1="90" y1="105.55" x2="886" y2="105.55" stroke="#e2e2e2"/>
<text x="86" y="109.55" text-anchor="end" font-family="Arial" font-size="10">30</text>
<line x1="94.00" y1="400" x2="94.00" y2="404" stroke="#333"/>
<text x="94.00" y="412" text-anchor="end" font-family="Arial" font-size="9" transform="rotate(-45 94.00,412)">U1->U2</text>
<line x1="154.92" y1="400" x2="154.92" y2="404" stroke="#333"/>
<text x="154.92" y="412" text-anchor="end" font-family="Arial" font-size="9" transform="rotate(-45 154.92,412)">U2->U3</text>
<line x1="215.85" y1="400" x2="215.85" y2="404" stroke="#333"/>
<text x="215.85" y="412" text-anchor="end" font-family="Arial" font-size="9" transform="rotate(-45 215.85,412)">U3->U4</text>
<line x1="276.77" y1="400" x2="276.77" y2="404" stroke="#333"/>
<text x="276.77" y="412" text-anchor="end" font-family="Arial" font-size="9" transform="rotate(-45 276.77,412)">U4->U5</text>
<line x1="337.69" y1="400" x2="337.69" y2="404" stroke="#333"/>
<text x="337.69" y="412" text-anchor="end" font-family="Arial" font-size="9" transform="rotate(-45 337.69,412)">U5->U6</text>
<line x1="398.62" y1="400" x2="398.62" y2="404" stroke="#333"/>
<text x="398.62" y="412" text-anchor="end" font-family="Arial" font-size="9" transform="rotate(-45 398.62,412)">U6->U7</text>
<line x1="459.54" y1="400" x2="459.54" y2="404" stroke="#333"/>
<text x="459.54" y="412" text-anchor="end" font-family="Arial" font-size="9" transform="rotate(-45 459.54,412)">U7->U8</text>
<line x1="520.46" y1="400" x2="520.46" y2="404" stroke="#333"/>
<text x="520.46" y="412" text-anchor="end" font-family="Arial" font-size="9" transform="rotate(-45 520.46,412)">U8->U9</text>
<line x1="581.38" y1="400" x2="581.38" y2="404" stroke="#333"/>
<text x="581.38" y="412" text-anchor="end" font-family="Arial" font-size="9" transform="rotate(-45 581.38,412)">U9->U10</text>
<line x1="642.31" y1="400" x2="642.31" y2="404" stroke="#333"/>
<text x="642.31" y="412" text-anchor="end" font-family="Arial" font-size="9" transform="rotate(-45 642.31,412)">U10->U11</text>
<line x1="703.23" y1="400" x2="703.23" y2="404" stroke="#333"/>
<text x="703.23" y="412" text-anchor="end" font-family="Arial" font-size="9" transform="rotate(-45 703.23,412)">U11->U12</text>
<line x1="764.15" y1="400" x2="764.15" y2="404" stroke="#333"/>
<text x="764.15" y="412" text-anchor="end" font-family="Arial" font-size="9" transform="rotate(-45 764.15,412)">U12->U13</text>
<line x1="825.08" y1="400" x2="825.08" y2="404" stroke="#333"/>
<text x="825.08" y="412" text-anchor="end" font-family="Arial" font-size="9" transform="rotate(-45 825.08,412)">U13->U14</text>
<line x1="886.00" y1="400" x2="886.00" y2="404" stroke="#333"/>
<text x="886.00" y="412" text-anchor="end" font-family="Arial" font-size="9" transform="rotate(-45 886.00,412)">U14->U15</text>
<line x1="94" y1="105.55" x2="886" y2="105.55" stroke="#777" stroke-dasharray="4 4"/>
<text x="882" y="101.55" text-anchor="end" font-family="Arial" font-size="10">30 deg reference</text>
<polyline points="94.00,204.24 154.92,216.40 215.85,236.90 276.77,273.28 337.69,333.81 398.62,368.45 459.54,338.76 520.46,329.33 581.38,348.90 642.31,333.71 703.23,283.14 764.15,244.96 825.08,222.12 886.00,208.14" fill="none" stroke="#4c78a8" stroke-width="2"/>
<rect x="90.00" y="200.24" width="8" height="8" transform="rotate(45 94.00,204.24)" fill="#d62728" stroke="white" stroke-width="1"/>
<rect x="150.92" y="212.40" width="8" height="8" transform="rotate(45 154.92,216.40)" fill="#d62728" stroke="white" stroke-width="1"/>
<rect x="211.85" y="232.90" width="8" height="8" transform="rotate(45 215.85,236.90)" fill="#d62728" stroke="white" stroke-width="1"/>
<rect x="272.77" y="269.28" width="8" height="8" transform="rotate(45 276.77,273.28)" fill="#d62728" stroke="white" stroke-width="1"/>
<circle cx="337.69" cy="333.81" r="4" fill="#4c78a8" stroke="white" stroke-width="1"/>
<circle cx="398.62" cy="368.45" r="4" fill="#4c78a8" stroke="white" stroke-width="1"/>
<circle cx="459.54" cy="338.76" r="4" fill="#4c78a8" stroke="white" stroke-width="1"/>
<circle cx="520.46" cy="329.33" r="4" fill="#4c78a8" stroke="white" stroke-width="1"/>
<circle cx="581.38" cy="348.90" r="4" fill="#4c78a8" stroke="white" stroke-width="1"/>
<circle cx="642.31" cy="333.71" r="4" fill="#4c78a8" stroke="white" stroke-width="1"/>
<circle cx="703.23" cy="283.14" r="4" fill="#4c78a8" stroke="white" stroke-width="1"/>
<rect x="760.15" y="240.96" width="8" height="8" transform="rotate(45 764.15,244.96)" fill="#d62728" stroke="white" stroke-width="1"/>
<rect x="821.08" y="218.12" width="8" height="8" transform="rotate(45 825.08,222.12)" fill="#d62728" stroke="white" stroke-width="1"/>
<rect x="882.00" y="204.14" width="8" height="8" transform="rotate(45 886.00,208.14)" fill="#d62728" stroke="white" stroke-width="1"/>
<rect x="735" y="80" width="11" height="11" fill="#4c78a8"/>
<text x="752" y="90" font-family="Arial" font-size="11">full</text>
<text x="18" y="242" text-anchor="middle" font-family="Arial" font-size="11" transform="rotate(-90 18,242)">signed local twist (deg)</text>
<text x="460" y="464" text-anchor="middle" font-family="Arial" font-size="12">Aleph unit transition</text>
</svg>
