<svg xmlns="http://www.w3.org/2000/svg" width="900" height="430" viewBox="0 0 900 430">
<rect width="100%" height="100%" fill="white"/>
<text x="450" y="26" text-anchor="middle" font-family="Arial" font-size="17">Aleph radial spread vs unit index</text>
<line x1="70" y1="45" x2="70" y2="370" stroke="#333"/>
<line x1="70" y1="370" x2="870" y2="370" stroke="#333"/>
<text x="450" y="415" text-anchor="middle" font-family="Arial" font-size="12">Aleph unit index</text>
<text x="18" y="208" text-anchor="middle" font-family="Arial" font-size="12" transform="rotate(-90 18,208)">base radial spread (A)</text>
<polyline points="70.00,340.17 127.14,327.01 184.29,336.82 241.43,350.13 298.57,318.68 355.71,282.87 412.86,248.97 470.00,255.80 527.14,248.95 584.29,332.76 641.43,318.69 698.57,315.00 755.71,336.82 812.86,352.83 870.00,340.16" fill="none" stroke="#4c78a8" stroke-width="2"/>
<circle cx="70.00" cy="340.17" r="2.5" fill="#4c78a8"/>
<circle cx="127.14" cy="327.01" r="2.5" fill="#4c78a8"/>
<circle cx="184.29" cy="336.82" r="2.5" fill="#4c78a8"/>
<circle cx="241.43" cy="350.13" r="2.5" fill="#4c78a8"/>
<circle cx="298.57" cy="318.68" r="2.5" fill="#4c78a8"/>
<circle cx="355.71" cy="282.87" r="2.5" fill="#4c78a8"/>
<circle cx="412.86" cy="248.97" r="2.5" fill="#4c78a8"/>
<circle cx="470.00" cy="255.80" r="2.5" fill="#4c78a8"/>
<circle cx="527.14" cy="248.95" r="2.5" fill="#4c78a8"/>
<circle cx="584.29" cy="332.76" r="2.5" fill="#4c78a8"/>
<circle cx="641.43" cy="318.69" r="2.5" fill="#4c78a8"/>
<circle cx="698.57" cy="315.00" r="2.5" fill="#4c78a8"/>
<circle cx="755.71" cy="336.82" r="2.5" fill="#4c78a8"/>
<circle cx="812.86" cy="352.83" r="2.5" fill="#4c78a8"/>
<circle cx="870.00" cy="340.16" r="2.5" fill="#4c78a8"/>
<rect x="700" y="50" width="12" height="12" fill="#4c78a8"/>
<text x="718" y="61" font-family="Arial" font-size="12">full</text>
<polyline points="70.00,56.07 127.14,157.49 184.29,209.57 241.43,365.81 298.57,209.61 355.71,65.69" fill="none" stroke="#f58518" stroke-width="2"/>
<circle cx="70.00" cy="56.07" r="2.5" fill="#f58518"/>
<circle cx="127.14" cy="157.49" r="2.5" fill="#f58518"/>
<circle cx="184.29" cy="209.57" r="2.5" fill="#f58518"/>
<circle cx="241.43" cy="365.81" r="2.5" fill="#f58518"/>
<circle cx="298.57" cy="209.61" r="2.5" fill="#f58518"/>
<circle cx="355.71" cy="65.69" r="2.5" fill="#f58518"/>
<rect x="700" y="70" width="12" height="12" fill="#f58518"/>
<text x="718" y="81" font-family="Arial" font-size="12">central6</text>
<polyline points="70.00,45.00 127.14,130.25 184.29,214.58 241.43,370.00 298.57,214.63 355.71,92.54 412.86,45.00" fill="none" stroke="#54a24b" stroke-width="2"/>
<circle cx="70.00" cy="45.00" r="2.5" fill="#54a24b"/>
<circle cx="127.14" cy="130.25" r="2.5" fill="#54a24b"/>
<circle cx="184.29" cy="214.58" r="2.5" fill="#54a24b"/>
<circle cx="241.43" cy="370.00" r="2.5" fill="#54a24b"/>
<circle cx="298.57" cy="214.63" r="2.5" fill="#54a24b"/>
<circle cx="355.71" cy="92.54" r="2.5" fill="#54a24b"/>
<circle cx="412.86" cy="45.00" r="2.5" fill="#54a24b"/>
<rect x="700" y="90" width="12" height="12" fill="#54a24b"/>
<text x="718" y="101" font-family="Arial" font-size="12">central7</text>
</svg>
