<svg xmlns="http://www.w3.org/2000/svg" width="920" height="436" viewBox="0 0 920 436">
<rect width="100%" height="100%" fill="white"/>
<text x="460" y="26" text-anchor="middle" font-family="Arial" font-size="17">central7 Aleph series fingerprint</text>
<line x1="78" y1="60" x2="78" y2="356" stroke="#333"/>
<line x1="78" y1="356" x2="886" y2="356" stroke="#333"/>
<line x1="78" y1="88.65" x2="886" y2="88.65" stroke="#777" stroke-dasharray="4 4"/>
<text x="882" y="84.65" text-anchor="end" font-family="Arial" font-size="10">30 deg reference</text>
<polyline points="78.00,281.04 239.60,178.68 401.20,155.24 562.80,155.61 724.40,189.13 886.00,327.35" fill="none" stroke="#4c78a8" stroke-width="2"/>
<circle cx="78.00" cy="281.04" r="4" fill="#4c78a8" stroke="white" stroke-width="1"/>
<circle cx="239.60" cy="178.68" r="4" fill="#4c78a8" stroke="white" stroke-width="1"/>
<circle cx="401.20" cy="155.24" r="4" fill="#4c78a8" stroke="white" stroke-width="1"/>
<circle cx="562.80" cy="155.61" r="4" fill="#4c78a8" stroke="white" stroke-width="1"/>
<circle cx="724.40" cy="189.13" r="4" fill="#4c78a8" stroke="white" stroke-width="1"/>
<circle cx="886.00" cy="327.35" r="4" fill="#4c78a8" stroke="white" stroke-width="1"/>
<rect x="735" y="66" width="11" height="11" fill="#4c78a8"/>
<text x="752" y="76" font-family="Arial" font-size="11">central7</text>
<text x="18" y="213" text-anchor="middle" font-family="Arial" font-size="11" transform="rotate(-90 18,213)">signed local twist (deg)</text>
<text x="460" y="420" text-anchor="middle" font-family="Arial" font-size="12">Aleph unit-transition index</text>
</svg>
