<svg xmlns="http://www.w3.org/2000/svg" width="920" height="480" viewBox="0 0 920 480">
<rect width="100%" height="100%" fill="white"/>
<text x="460" y="26" text-anchor="middle" font-family="Arial" font-size="17">central7 Aleph series fingerprint: absolute twist</text>
<text x="460" y="46" text-anchor="middle" font-family="Arial" font-size="11" fill="#555">Aleph series fingerprint: handedness-normalized local twist magnitude by unit transition</text>
<line x1="94" y1="74" x2="94" y2="400" stroke="#333"/>
<line x1="94" y1="400" x2="886" y2="400" stroke="#333"/>
<line x1="90" y1="374.05" x2="886" y2="374.05" stroke="#e2e2e2"/>
<text x="86" y="378.05" text-anchor="end" font-family="Arial" font-size="10">0</text>
<line x1="90" y1="309.97" x2="886" y2="309.97" stroke="#e2e2e2"/>
<text x="86" y="313.97" text-anchor="end" font-family="Arial" font-size="10">20</text>
<line x1="90" y1="277.92" x2="886" y2="277.92" stroke="#e2e2e2"/>
<text x="86" y="281.92" text-anchor="end" font-family="Arial" font-size="10">30</text>
<line x1="90" y1="245.88" x2="886" y2="245.88" stroke="#e2e2e2"/>
<text x="86" y="249.88" text-anchor="end" font-family="Arial" font-size="10">40</text>
<line x1="90" y1="181.80" x2="886" y2="181.80" stroke="#e2e2e2"/>
<text x="86" y="185.80" text-anchor="end" font-family="Arial" font-size="10">60</text>
<line x1="90" y1="117.71" x2="886" y2="117.71" stroke="#e2e2e2"/>
<text x="86" y="121.71" text-anchor="end" font-family="Arial" font-size="10">80</text>
<line x1="94.00" y1="400" x2="94.00" y2="404" stroke="#333"/>
<text x="94.00" y="416" text-anchor="middle" font-family="Arial" font-size="10">U1->U2</text>
<line x1="252.40" y1="400" x2="252.40" y2="404" stroke="#333"/>
<text x="252.40" y="416" text-anchor="middle" font-family="Arial" font-size="10">U2->U3</text>
<line x1="410.80" y1="400" x2="410.80" y2="404" stroke="#333"/>
<text x="410.80" y="416" text-anchor="middle" font-family="Arial" font-size="10">U3->U4</text>
<line x1="569.20" y1="400" x2="569.20" y2="404" stroke="#333"/>
<text x="569.20" y="416" text-anchor="middle" font-family="Arial" font-size="10">U4->U5</text>
<line x1="727.60" y1="400" x2="727.60" y2="404" stroke="#333"/>
<text x="727.60" y="416" text-anchor="middle" font-family="Arial" font-size="10">U5->U6</text>
<line x1="886.00" y1="400" x2="886.00" y2="404" stroke="#333"/>
<text x="886.00" y="416" text-anchor="middle" font-family="Arial" font-size="10">U6->U7</text>
<line x1="94" y1="277.92" x2="886" y2="277.92" stroke="#777" stroke-dasharray="4 4"/>
<text x="882" y="273.92" text-anchor="end" font-family="Arial" font-size="10">30 deg reference</text>
<polyline points="94.00,176.30 252.40,332.65 410.80,368.45 569.20,367.89 727.60,316.69 886.00,105.55" fill="none" stroke="#4c78a8" stroke-width="2"/>
<circle cx="94.00" cy="176.30" r="4" fill="#4c78a8" stroke="white" stroke-width="1"/>
<circle cx="252.40" cy="332.65" r="4" fill="#4c78a8" stroke="white" stroke-width="1"/>
<circle cx="410.80" cy="368.45" r="4" fill="#4c78a8" stroke="white" stroke-width="1"/>
<circle cx="569.20" cy="367.89" r="4" fill="#4c78a8" stroke="white" stroke-width="1"/>
<circle cx="727.60" cy="316.69" r="4" fill="#4c78a8" stroke="white" stroke-width="1"/>
<circle cx="886.00" cy="105.55" r="4" fill="#4c78a8" stroke="white" stroke-width="1"/>
<rect x="735" y="80" width="11" height="11" fill="#4c78a8"/>
<text x="752" y="90" font-family="Arial" font-size="11">central7</text>
<text x="18" y="242" text-anchor="middle" font-family="Arial" font-size="11" transform="rotate(-90 18,242)">absolute local twist (deg)</text>
<text x="460" y="464" text-anchor="middle" font-family="Arial" font-size="12">Aleph unit transition</text>
</svg>
