<svg xmlns="http://www.w3.org/2000/svg" width="900" height="430" viewBox="0 0 900 430">
<rect width="100%" height="100%" fill="white"/>
<text x="450" y="26" text-anchor="middle" font-family="Arial" font-size="17">Aleph local twist vs unit index</text>
<line x1="70" y1="45" x2="70" y2="370" stroke="#333"/>
<line x1="70" y1="370" x2="870" y2="370" stroke="#333"/>
<text x="450" y="415" text-anchor="middle" font-family="Arial" font-size="12">Aleph unit index</text>
<text x="18" y="208" text-anchor="middle" font-family="Arial" font-size="12" transform="rotate(-90 18,208)">local twist (deg)</text>
<polyline points="70.00,370.00 131.54,358.71 193.08,339.68 254.62,305.91 316.15,249.70 377.69,217.55 439.23,245.11 500.77,253.87 562.31,235.70 623.85,249.80 685.38,296.75 746.92,332.20 808.46,353.40 870.00,366.38" fill="none" stroke="#4c78a8" stroke-width="2"/>
<circle cx="70.00" cy="370.00" r="2.5" fill="#4c78a8"/>
<circle cx="131.54" cy="358.71" r="2.5" fill="#4c78a8"/>
<circle cx="193.08" cy="339.68" r="2.5" fill="#4c78a8"/>
<circle cx="254.62" cy="305.91" r="2.5" fill="#4c78a8"/>
<circle cx="316.15" cy="249.70" r="2.5" fill="#4c78a8"/>
<circle cx="377.69" cy="217.55" r="2.5" fill="#4c78a8"/>
<circle cx="439.23" cy="245.11" r="2.5" fill="#4c78a8"/>
<circle cx="500.77" cy="253.87" r="2.5" fill="#4c78a8"/>
<circle cx="562.31" cy="235.70" r="2.5" fill="#4c78a8"/>
<circle cx="623.85" cy="249.80" r="2.5" fill="#4c78a8"/>
<circle cx="685.38" cy="296.75" r="2.5" fill="#4c78a8"/>
<circle cx="746.92" cy="332.20" r="2.5" fill="#4c78a8"/>
<circle cx="808.46" cy="353.40" r="2.5" fill="#4c78a8"/>
<circle cx="870.00" cy="366.38" r="2.5" fill="#4c78a8"/>
<rect x="700" y="50" width="12" height="12" fill="#4c78a8"/>
<text x="718" y="61" font-family="Arial" font-size="12">full</text>
<polyline points="70.00,161.44 131.54,305.84 193.08,343.20 254.62,341.47 316.15,266.09" fill="none" stroke="#f58518" stroke-width="2"/>
<circle cx="70.00" cy="161.44" r="2.5" fill="#f58518"/>
<circle cx="131.54" cy="305.84" r="2.5" fill="#f58518"/>
<circle cx="193.08" cy="343.20" r="2.5" fill="#f58518"/>
<circle cx="254.62" cy="341.47" r="2.5" fill="#f58518"/>
<circle cx="316.15" cy="266.09" r="2.5" fill="#f58518"/>
<rect x="700" y="70" width="12" height="12" fill="#f58518"/>
<text x="718" y="81" font-family="Arial" font-size="12">central6</text>
<polyline points="70.00,125.84 131.54,304.48 193.08,345.39 254.62,344.75 316.15,286.25 377.69,45.00" fill="none" stroke="#54a24b" stroke-width="2"/>
<circle cx="70.00" cy="125.84" r="2.5" fill="#54a24b"/>
<circle cx="131.54" cy="304.48" r="2.5" fill="#54a24b"/>
<circle cx="193.08" cy="345.39" r="2.5" fill="#54a24b"/>
<circle cx="254.62" cy="344.75" r="2.5" fill="#54a24b"/>
<circle cx="316.15" cy="286.25" r="2.5" fill="#54a24b"/>
<circle cx="377.69" cy="45.00" r="2.5" fill="#54a24b"/>
<rect x="700" y="90" width="12" height="12" fill="#54a24b"/>
<text x="718" y="101" font-family="Arial" font-size="12">central7</text>
</svg>
