<svg xmlns="http://www.w3.org/2000/svg" width="920" height="436" viewBox="0 0 920 436">
<rect width="100%" height="100%" fill="white"/>
<text x="460" y="26" text-anchor="middle" font-family="Arial" font-size="17">full Aleph series fingerprint</text>
<line x1="78" y1="60" x2="78" y2="356" stroke="#333"/>
<line x1="78" y1="356" x2="886" y2="356" stroke="#333"/>
<line x1="78" y1="88.65" x2="886" y2="88.65" stroke="#777" stroke-dasharray="4 4"/>
<text x="882" y="84.65" text-anchor="end" font-family="Arial" font-size="10">30 deg reference</text>
<polyline points="78.00,178.25 140.15,189.29 202.31,207.91 264.46,240.94 326.62,295.91 388.77,327.35 450.92,300.39 513.08,291.83 575.23,309.60 637.38,295.81 699.54,249.90 761.69,215.22 823.85,194.49 886.00,181.80" fill="none" stroke="#4c78a8" stroke-width="2"/>
<circle cx="78.00" cy="178.25" r="4" fill="#d62728" stroke="white" stroke-width="1"/>
<circle cx="140.15" cy="189.29" r="4" fill="#d62728" stroke="white" stroke-width="1"/>
<circle cx="202.31" cy="207.91" r="4" fill="#d62728" stroke="white" stroke-width="1"/>
<circle cx="264.46" cy="240.94" r="4" fill="#d62728" stroke="white" stroke-width="1"/>
<circle cx="326.62" cy="295.91" r="4" fill="#4c78a8" stroke="white" stroke-width="1"/>
<circle cx="388.77" cy="327.35" r="4" fill="#4c78a8" stroke="white" stroke-width="1"/>
<circle cx="450.92" cy="300.39" r="4" fill="#4c78a8" stroke="white" stroke-width="1"/>
<circle cx="513.08" cy="291.83" r="4" fill="#4c78a8" stroke="white" stroke-width="1"/>
<circle cx="575.23" cy="309.60" r="4" fill="#4c78a8" stroke="white" stroke-width="1"/>
<circle cx="637.38" cy="295.81" r="4" fill="#4c78a8" stroke="white" stroke-width="1"/>
<circle cx="699.54" cy="249.90" r="4" fill="#4c78a8" stroke="white" stroke-width="1"/>
<circle cx="761.69" cy="215.22" r="4" fill="#d62728" stroke="white" stroke-width="1"/>
<circle cx="823.85" cy="194.49" r="4" fill="#d62728" stroke="white" stroke-width="1"/>
<circle cx="886.00" cy="181.80" r="4" fill="#d62728" stroke="white" stroke-width="1"/>
<rect x="735" y="66" width="11" height="11" fill="#4c78a8"/>
<text x="752" y="76" font-family="Arial" font-size="11">full</text>
<text x="18" y="213" text-anchor="middle" font-family="Arial" font-size="11" transform="rotate(-90 18,213)">signed local twist (deg)</text>
<text x="460" y="420" text-anchor="middle" font-family="Arial" font-size="12">Aleph unit-transition index</text>
</svg>
