<svg xmlns="http://www.w3.org/2000/svg" width="920" height="480" viewBox="0 0 920 480">
<rect width="100%" height="100%" fill="white"/>
<text x="460" y="26" text-anchor="middle" font-family="Arial" font-size="17">central6 Aleph series fingerprint: absolute twist</text>
<text x="460" y="46" text-anchor="middle" font-family="Arial" font-size="11" fill="#555">Aleph series fingerprint: handedness-normalized local twist magnitude by unit transition</text>
<line x1="94" y1="74" x2="94" y2="400" stroke="#333"/>
<line x1="94" y1="400" x2="886" y2="400" stroke="#333"/>
<line x1="90" y1="380.88" x2="886" y2="380.88" stroke="#e2e2e2"/>
<text x="86" y="384.88" text-anchor="end" font-family="Arial" font-size="10">0</text>
<line x1="90" y1="274.97" x2="886" y2="274.97" stroke="#e2e2e2"/>
<text x="86" y="278.97" text-anchor="end" font-family="Arial" font-size="10">20</text>
<line x1="90" y1="222.01" x2="886" y2="222.01" stroke="#e2e2e2"/>
<text x="86" y="226.01" text-anchor="end" font-family="Arial" font-size="10">30</text>
<line x1="90" y1="169.05" x2="886" y2="169.05" stroke="#e2e2e2"/>
<text x="86" y="173.05" text-anchor="end" font-family="Arial" font-size="10">40</text>
<line x1="94.00" y1="400" x2="94.00" y2="404" stroke="#333"/>
<text x="94.00" y="416" text-anchor="middle" font-family="Arial" font-size="10">U1->U2</text>
<line x1="292.00" y1="400" x2="292.00" y2="404" stroke="#333"/>
<text x="292.00" y="416" text-anchor="middle" font-family="Arial" font-size="10">U2->U3</text>
<line x1="490.00" y1="400" x2="490.00" y2="404" stroke="#333"/>
<text x="490.00" y="416" text-anchor="middle" font-family="Arial" font-size="10">U3->U4</text>
<line x1="688.00" y1="400" x2="688.00" y2="404" stroke="#333"/>
<text x="688.00" y="416" text-anchor="middle" font-family="Arial" font-size="10">U4->U5</text>
<line x1="886.00" y1="400" x2="886.00" y2="404" stroke="#333"/>
<text x="886.00" y="416" text-anchor="middle" font-family="Arial" font-size="10">U5->U6</text>
<line x1="94" y1="222.01" x2="886" y2="222.01" stroke="#777" stroke-dasharray="4 4"/>
<text x="882" y="218.01" text-anchor="end" font-family="Arial" font-size="10">30 deg reference</text>
<polyline points="94.00,105.55 292.00,314.41 490.00,368.45 688.00,365.96 886.00,256.92" fill="none" stroke="#4c78a8" stroke-width="2"/>
<circle cx="94.00" cy="105.55" r="4" fill="#4c78a8" stroke="white" stroke-width="1"/>
<circle cx="292.00" cy="314.41" r="4" fill="#4c78a8" stroke="white" stroke-width="1"/>
<circle cx="490.00" cy="368.45" r="4" fill="#4c78a8" stroke="white" stroke-width="1"/>
<circle cx="688.00" cy="365.96" r="4" fill="#4c78a8" stroke="white" stroke-width="1"/>
<circle cx="886.00" cy="256.92" r="4" fill="#4c78a8" stroke="white" stroke-width="1"/>
<rect x="735" y="80" width="11" height="11" fill="#4c78a8"/>
<text x="752" y="90" font-family="Arial" font-size="11">central6</text>
<text x="18" y="242" text-anchor="middle" font-family="Arial" font-size="11" transform="rotate(-90 18,242)">absolute local twist (deg)</text>
<text x="460" y="464" text-anchor="middle" font-family="Arial" font-size="12">Aleph unit transition</text>
</svg>
