<svg xmlns="http://www.w3.org/2000/svg" width="920" height="1252" viewBox="0 0 920 1252">
<rect width="100%" height="100%" fill="white"/>
<text x="460" y="26" text-anchor="middle" font-family="Arial" font-size="17">full Aleph series companion traces</text>
<text x="460" y="46" text-anchor="middle" font-family="Arial" font-size="11" fill="#555">Aleph companion traces by unit transition</text>
<line x1="94" y1="74" x2="94" y2="290" stroke="#333"/>
<line x1="94" y1="290" x2="886" y2="290" stroke="#333"/>
<line x1="90" y1="277.80" x2="886" y2="277.80" stroke="#e2e2e2"/>
<text x="86" y="281.80" text-anchor="end" font-family="Arial" font-size="10">-40</text>
<line x1="90" y1="225.55" x2="886" y2="225.55" stroke="#e2e2e2"/>
<text x="86" y="229.55" text-anchor="end" font-family="Arial" font-size="10">-20</text>
<line x1="90" y1="173.29" x2="886" y2="173.29" stroke="#e2e2e2"/>
<text x="86" y="177.29" text-anchor="end" font-family="Arial" font-size="10">0</text>
<line x1="90" y1="121.03" x2="886" y2="121.03" stroke="#e2e2e2"/>
<text x="86" y="125.03" text-anchor="end" font-family="Arial" font-size="10">20</text>
<line x1="90" y1="94.90" x2="886" y2="94.90" stroke="#e2e2e2"/>
<text x="86" y="98.90" text-anchor="end" font-family="Arial" font-size="10">30</text>
<line x1="94.00" y1="290" x2="94.00" y2="294" stroke="#333"/>
<text x="94.00" y="302" text-anchor="end" font-family="Arial" font-size="9" transform="rotate(-45 94.00,302)">U1->U2</text>
<line x1="154.92" y1="290" x2="154.92" y2="294" stroke="#333"/>
<text x="154.92" y="302" text-anchor="end" font-family="Arial" font-size="9" transform="rotate(-45 154.92,302)">U2->U3</text>
<line x1="215.85" y1="290" x2="215.85" y2="294" stroke="#333"/>
<text x="215.85" y="302" text-anchor="end" font-family="Arial" font-size="9" transform="rotate(-45 215.85,302)">U3->U4</text>
<line x1="276.77" y1="290" x2="276.77" y2="294" stroke="#333"/>
<text x="276.77" y="302" text-anchor="end" font-family="Arial" font-size="9" transform="rotate(-45 276.77,302)">U4->U5</text>
<line x1="337.69" y1="290" x2="337.69" y2="294" stroke="#333"/>
<text x="337.69" y="302" text-anchor="end" font-family="Arial" font-size="9" transform="rotate(-45 337.69,302)">U5->U6</text>
<line x1="398.62" y1="290" x2="398.62" y2="294" stroke="#333"/>
<text x="398.62" y="302" text-anchor="end" font-family="Arial" font-size="9" transform="rotate(-45 398.62,302)">U6->U7</text>
<line x1="459.54" y1="290" x2="459.54" y2="294" stroke="#333"/>
<text x="459.54" y="302" text-anchor="end" font-family="Arial" font-size="9" transform="rotate(-45 459.54,302)">U7->U8</text>
<line x1="520.46" y1="290" x2="520.46" y2="294" stroke="#333"/>
<text x="520.46" y="302" text-anchor="end" font-family="Arial" font-size="9" transform="rotate(-45 520.46,302)">U8->U9</text>
<line x1="581.38" y1="290" x2="581.38" y2="294" stroke="#333"/>
<text x="581.38" y="302" text-anchor="end" font-family="Arial" font-size="9" transform="rotate(-45 581.38,302)">U9->U10</text>
<line x1="642.31" y1="290" x2="642.31" y2="294" stroke="#333"/>
<text x="642.31" y="302" text-anchor="end" font-family="Arial" font-size="9" transform="rotate(-45 642.31,302)">U10->U11</text>
<line x1="703.23" y1="290" x2="703.23" y2="294" stroke="#333"/>
<text x="703.23" y="302" text-anchor="end" font-family="Arial" font-size="9" transform="rotate(-45 703.23,302)">U11->U12</text>
<line x1="764.15" y1="290" x2="764.15" y2="294" stroke="#333"/>
<text x="764.15" y="302" text-anchor="end" font-family="Arial" font-size="9" transform="rotate(-45 764.15,302)">U12->U13</text>
<line x1="825.08" y1="290" x2="825.08" y2="294" stroke="#333"/>
<text x="825.08" y="302" text-anchor="end" font-family="Arial" font-size="9" transform="rotate(-45 825.08,302)">U13->U14</text>
<line x1="886.00" y1="290" x2="886.00" y2="294" stroke="#333"/>
<text x="886.00" y="302" text-anchor="end" font-family="Arial" font-size="9" transform="rotate(-45 886.00,302)">U14->U15</text>
<text x="18" y="88" font-family="Arial" font-size="12" font-weight="bold">signed twist</text>
<line x1="94" y1="94.90" x2="886" y2="94.90" stroke="#777" stroke-dasharray="4 4"/>
<text x="882" y="90.90" text-anchor="end" font-family="Arial" font-size="10">30 deg reference</text>
<polyline points="94.00,160.29 154.92,168.35 215.85,181.93 276.77,206.04 337.69,246.15 398.62,269.10 459.54,249.42 520.46,243.18 581.38,256.14 642.31,246.08 703.23,212.57 764.15,187.27 825.08,172.14 886.00,162.88" fill="none" stroke="#4c78a8" stroke-width="2"/>
<rect x="90.00" y="156.29" width="8" height="8" transform="rotate(45 94.00,160.29)" fill="#d62728" stroke="white" stroke-width="1"/>
<rect x="150.92" y="164.35" width="8" height="8" transform="rotate(45 154.92,168.35)" fill="#d62728" stroke="white" stroke-width="1"/>
<rect x="211.85" y="177.93" width="8" height="8" transform="rotate(45 215.85,181.93)" fill="#d62728" stroke="white" stroke-width="1"/>
<rect x="272.77" y="202.04" width="8" height="8" transform="rotate(45 276.77,206.04)" fill="#d62728" stroke="white" stroke-width="1"/>
<circle cx="337.69" cy="246.15" r="4" fill="#4c78a8" stroke="white" stroke-width="1"/>
<circle cx="398.62" cy="269.10" r="4" fill="#4c78a8" stroke="white" stroke-width="1"/>
<circle cx="459.54" cy="249.42" r="4" fill="#4c78a8" stroke="white" stroke-width="1"/>
<circle cx="520.46" cy="243.18" r="4" fill="#4c78a8" stroke="white" stroke-width="1"/>
<circle cx="581.38" cy="256.14" r="4" fill="#4c78a8" stroke="white" stroke-width="1"/>
<circle cx="642.31" cy="246.08" r="4" fill="#4c78a8" stroke="white" stroke-width="1"/>
<circle cx="703.23" cy="212.57" r="4" fill="#4c78a8" stroke="white" stroke-width="1"/>
<rect x="760.15" y="183.27" width="8" height="8" transform="rotate(45 764.15,187.27)" fill="#d62728" stroke="white" stroke-width="1"/>
<rect x="821.08" y="168.14" width="8" height="8" transform="rotate(45 825.08,172.14)" fill="#d62728" stroke="white" stroke-width="1"/>
<rect x="882.00" y="158.88" width="8" height="8" transform="rotate(45 886.00,162.88)" fill="#d62728" stroke="white" stroke-width="1"/>
<text x="18" y="187" text-anchor="middle" font-family="Arial" font-size="11" transform="rotate(-90 18,187)">feature value</text>
<line x1="94" y1="368" x2="94" y2="584" stroke="#333"/>
<line x1="94" y1="584" x2="886" y2="584" stroke="#333"/>
<line x1="90" y1="544.88" x2="886" y2="544.88" stroke="#e2e2e2"/>
<text x="86" y="548.88" text-anchor="end" font-family="Arial" font-size="10">-2</text>
<line x1="90" y1="491.85" x2="886" y2="491.85" stroke="#e2e2e2"/>
<text x="86" y="495.85" text-anchor="end" font-family="Arial" font-size="10">0</text>
<line x1="90" y1="438.82" x2="886" y2="438.82" stroke="#e2e2e2"/>
<text x="86" y="442.82" text-anchor="end" font-family="Arial" font-size="10">2</text>
<line x1="90" y1="385.79" x2="886" y2="385.79" stroke="#e2e2e2"/>
<text x="86" y="389.79" text-anchor="end" font-family="Arial" font-size="10">4</text>
<line x1="94.00" y1="584" x2="94.00" y2="588" stroke="#333"/>
<text x="94.00" y="596" text-anchor="end" font-family="Arial" font-size="9" transform="rotate(-45 94.00,596)">U1->U2</text>
<line x1="154.92" y1="584" x2="154.92" y2="588" stroke="#333"/>
<text x="154.92" y="596" text-anchor="end" font-family="Arial" font-size="9" transform="rotate(-45 154.92,596)">U2->U3</text>
<line x1="215.85" y1="584" x2="215.85" y2="588" stroke="#333"/>
<text x="215.85" y="596" text-anchor="end" font-family="Arial" font-size="9" transform="rotate(-45 215.85,596)">U3->U4</text>
<line x1="276.77" y1="584" x2="276.77" y2="588" stroke="#333"/>
<text x="276.77" y="596" text-anchor="end" font-family="Arial" font-size="9" transform="rotate(-45 276.77,596)">U4->U5</text>
<line x1="337.69" y1="584" x2="337.69" y2="588" stroke="#333"/>
<text x="337.69" y="596" text-anchor="end" font-family="Arial" font-size="9" transform="rotate(-45 337.69,596)">U5->U6</text>
<line x1="398.62" y1="584" x2="398.62" y2="588" stroke="#333"/>
<text x="398.62" y="596" text-anchor="end" font-family="Arial" font-size="9" transform="rotate(-45 398.62,596)">U6->U7</text>
<line x1="459.54" y1="584" x2="459.54" y2="588" stroke="#333"/>
<text x="459.54" y="596" text-anchor="end" font-family="Arial" font-size="9" transform="rotate(-45 459.54,596)">U7->U8</text>
<line x1="520.46" y1="584" x2="520.46" y2="588" stroke="#333"/>
<text x="520.46" y="596" text-anchor="end" font-family="Arial" font-size="9" transform="rotate(-45 520.46,596)">U8->U9</text>
<line x1="581.38" y1="584" x2="581.38" y2="588" stroke="#333"/>
<text x="581.38" y="596" text-anchor="end" font-family="Arial" font-size="9" transform="rotate(-45 581.38,596)">U9->U10</text>
<line x1="642.31" y1="584" x2="642.31" y2="588" stroke="#333"/>
<text x="642.31" y="596" text-anchor="end" font-family="Arial" font-size="9" transform="rotate(-45 642.31,596)">U10->U11</text>
<line x1="703.23" y1="584" x2="703.23" y2="588" stroke="#333"/>
<text x="703.23" y="596" text-anchor="end" font-family="Arial" font-size="9" transform="rotate(-45 703.23,596)">U11->U12</text>
<line x1="764.15" y1="584" x2="764.15" y2="588" stroke="#333"/>
<text x="764.15" y="596" text-anchor="end" font-family="Arial" font-size="9" transform="rotate(-45 764.15,596)">U12->U13</text>
<line x1="825.08" y1="584" x2="825.08" y2="588" stroke="#333"/>
<text x="825.08" y="596" text-anchor="end" font-family="Arial" font-size="9" transform="rotate(-45 825.08,596)">U13->U14</text>
<line x1="886.00" y1="584" x2="886.00" y2="588" stroke="#333"/>
<text x="886.00" y="596" text-anchor="end" font-family="Arial" font-size="9" transform="rotate(-45 886.00,596)">U14->U15</text>
<text x="18" y="382" font-family="Arial" font-size="12" font-weight="bold">local rise</text>
<polyline points="94.00,554.26 154.92,557.49 215.85,538.87 276.77,503.40 337.69,460.61 398.62,421.93 459.54,397.73 520.46,394.51 581.38,413.16 642.31,448.60 703.23,491.40 764.15,530.08 825.08,554.28 886.00,557.48" fill="none" stroke="#f58518" stroke-width="2"/>
<rect x="90.00" y="550.26" width="8" height="8" transform="rotate(45 94.00,554.26)" fill="#d62728" stroke="white" stroke-width="1"/>
<rect x="150.92" y="553.49" width="8" height="8" transform="rotate(45 154.92,557.49)" fill="#d62728" stroke="white" stroke-width="1"/>
<rect x="211.85" y="534.87" width="8" height="8" transform="rotate(45 215.85,538.87)" fill="#d62728" stroke="white" stroke-width="1"/>
<rect x="272.77" y="499.40" width="8" height="8" transform="rotate(45 276.77,503.40)" fill="#d62728" stroke="white" stroke-width="1"/>
<circle cx="337.69" cy="460.61" r="4" fill="#f58518" stroke="white" stroke-width="1"/>
<circle cx="398.62" cy="421.93" r="4" fill="#f58518" stroke="white" stroke-width="1"/>
<circle cx="459.54" cy="397.73" r="4" fill="#f58518" stroke="white" stroke-width="1"/>
<circle cx="520.46" cy="394.51" r="4" fill="#f58518" stroke="white" stroke-width="1"/>
<circle cx="581.38" cy="413.16" r="4" fill="#f58518" stroke="white" stroke-width="1"/>
<circle cx="642.31" cy="448.60" r="4" fill="#f58518" stroke="white" stroke-width="1"/>
<circle cx="703.23" cy="491.40" r="4" fill="#f58518" stroke="white" stroke-width="1"/>
<rect x="760.15" y="526.08" width="8" height="8" transform="rotate(45 764.15,530.08)" fill="#d62728" stroke="white" stroke-width="1"/>
<rect x="821.08" y="550.28" width="8" height="8" transform="rotate(45 825.08,554.28)" fill="#d62728" stroke="white" stroke-width="1"/>
<rect x="882.00" y="553.48" width="8" height="8" transform="rotate(45 886.00,557.48)" fill="#d62728" stroke="white" stroke-width="1"/>
<text x="18" y="481" text-anchor="middle" font-family="Arial" font-size="11" transform="rotate(-90 18,481)">feature value</text>
<line x1="94" y1="662" x2="94" y2="878" stroke="#333"/>
<line x1="94" y1="878" x2="886" y2="878" stroke="#333"/>
<line x1="90" y1="863.75" x2="886" y2="863.75" stroke="#e2e2e2"/>
<text x="86" y="867.75" text-anchor="end" font-family="Arial" font-size="10">20</text>
<line x1="90" y1="795.88" x2="886" y2="795.88" stroke="#e2e2e2"/>
<text x="86" y="799.88" text-anchor="end" font-family="Arial" font-size="10">40</text>
<line x1="90" y1="728.01" x2="886" y2="728.01" stroke="#e2e2e2"/>
<text x="86" y="732.01" text-anchor="end" font-family="Arial" font-size="10">60</text>
<line x1="94.00" y1="878" x2="94.00" y2="882" stroke="#333"/>
<text x="94.00" y="890" text-anchor="end" font-family="Arial" font-size="9" transform="rotate(-45 94.00,890)">U1->U2</text>
<line x1="154.92" y1="878" x2="154.92" y2="882" stroke="#333"/>
<text x="154.92" y="890" text-anchor="end" font-family="Arial" font-size="9" transform="rotate(-45 154.92,890)">U2->U3</text>
<line x1="215.85" y1="878" x2="215.85" y2="882" stroke="#333"/>
<text x="215.85" y="890" text-anchor="end" font-family="Arial" font-size="9" transform="rotate(-45 215.85,890)">U3->U4</text>
<line x1="276.77" y1="878" x2="276.77" y2="882" stroke="#333"/>
<text x="276.77" y="890" text-anchor="end" font-family="Arial" font-size="9" transform="rotate(-45 276.77,890)">U4->U5</text>
<line x1="337.69" y1="878" x2="337.69" y2="882" stroke="#333"/>
<text x="337.69" y="890" text-anchor="end" font-family="Arial" font-size="9" transform="rotate(-45 337.69,890)">U5->U6</text>
<line x1="398.62" y1="878" x2="398.62" y2="882" stroke="#333"/>
<text x="398.62" y="890" text-anchor="end" font-family="Arial" font-size="9" transform="rotate(-45 398.62,890)">U6->U7</text>
<line x1="459.54" y1="878" x2="459.54" y2="882" stroke="#333"/>
<text x="459.54" y="890" text-anchor="end" font-family="Arial" font-size="9" transform="rotate(-45 459.54,890)">U7->U8</text>
<line x1="520.46" y1="878" x2="520.46" y2="882" stroke="#333"/>
<text x="520.46" y="890" text-anchor="end" font-family="Arial" font-size="9" transform="rotate(-45 520.46,890)">U8->U9</text>
<line x1="581.38" y1="878" x2="581.38" y2="882" stroke="#333"/>
<text x="581.38" y="890" text-anchor="end" font-family="Arial" font-size="9" transform="rotate(-45 581.38,890)">U9->U10</text>
<line x1="642.31" y1="878" x2="642.31" y2="882" stroke="#333"/>
<text x="642.31" y="890" text-anchor="end" font-family="Arial" font-size="9" transform="rotate(-45 642.31,890)">U10->U11</text>
<line x1="703.23" y1="878" x2="703.23" y2="882" stroke="#333"/>
<text x="703.23" y="890" text-anchor="end" font-family="Arial" font-size="9" transform="rotate(-45 703.23,890)">U11->U12</text>
<line x1="764.15" y1="878" x2="764.15" y2="882" stroke="#333"/>
<text x="764.15" y="890" text-anchor="end" font-family="Arial" font-size="9" transform="rotate(-45 764.15,890)">U12->U13</text>
<line x1="825.08" y1="878" x2="825.08" y2="882" stroke="#333"/>
<text x="825.08" y="890" text-anchor="end" font-family="Arial" font-size="9" transform="rotate(-45 825.08,890)">U13->U14</text>
<line x1="886.00" y1="878" x2="886.00" y2="882" stroke="#333"/>
<text x="886.00" y="890" text-anchor="end" font-family="Arial" font-size="9" transform="rotate(-45 886.00,890)">U14->U15</text>
<text x="18" y="676" font-family="Arial" font-size="12" font-weight="bold">base-plane bend</text>
<polyline points="94.00,726.98 154.92,726.89 215.85,724.62 276.77,726.10 337.69,857.10 398.62,682.90 459.54,769.58 520.46,769.59 581.38,688.19 642.31,849.34 703.23,724.25 764.15,726.44 825.08,726.86 886.00,727.51" fill="none" stroke="#54a24b" stroke-width="2"/>
<rect x="90.00" y="722.98" width="8" height="8" transform="rotate(45 94.00,726.98)" fill="#d62728" stroke="white" stroke-width="1"/>
<rect x="150.92" y="722.89" width="8" height="8" transform="rotate(45 154.92,726.89)" fill="#d62728" stroke="white" stroke-width="1"/>
<rect x="211.85" y="720.62" width="8" height="8" transform="rotate(45 215.85,724.62)" fill="#d62728" stroke="white" stroke-width="1"/>
<rect x="272.77" y="722.10" width="8" height="8" transform="rotate(45 276.77,726.10)" fill="#d62728" stroke="white" stroke-width="1"/>
<circle cx="337.69" cy="857.10" r="4" fill="#54a24b" stroke="white" stroke-width="1"/>
<circle cx="398.62" cy="682.90" r="4" fill="#54a24b" stroke="white" stroke-width="1"/>
<circle cx="459.54" cy="769.58" r="4" fill="#54a24b" stroke="white" stroke-width="1"/>
<circle cx="520.46" cy="769.59" r="4" fill="#54a24b" stroke="white" stroke-width="1"/>
<circle cx="581.38" cy="688.19" r="4" fill="#54a24b" stroke="white" stroke-width="1"/>
<circle cx="642.31" cy="849.34" r="4" fill="#54a24b" stroke="white" stroke-width="1"/>
<circle cx="703.23" cy="724.25" r="4" fill="#54a24b" stroke="white" stroke-width="1"/>
<rect x="760.15" y="722.44" width="8" height="8" transform="rotate(45 764.15,726.44)" fill="#d62728" stroke="white" stroke-width="1"/>
<rect x="821.08" y="722.86" width="8" height="8" transform="rotate(45 825.08,726.86)" fill="#d62728" stroke="white" stroke-width="1"/>
<rect x="882.00" y="723.51" width="8" height="8" transform="rotate(45 886.00,727.51)" fill="#d62728" stroke="white" stroke-width="1"/>
<text x="18" y="775" text-anchor="middle" font-family="Arial" font-size="11" transform="rotate(-90 18,775)">feature value</text>
<line x1="94" y1="956" x2="94" y2="1172" stroke="#333"/>
<line x1="94" y1="1172" x2="886" y2="1172" stroke="#333"/>
<line x1="90" y1="1129.98" x2="886" y2="1129.98" stroke="#e2e2e2"/>
<text x="86" y="1133.98" text-anchor="end" font-family="Arial" font-size="10">20</text>
<line x1="90" y1="1085.10" x2="886" y2="1085.10" stroke="#e2e2e2"/>
<text x="86" y="1089.10" text-anchor="end" font-family="Arial" font-size="10">40</text>
<line x1="90" y1="1040.22" x2="886" y2="1040.22" stroke="#e2e2e2"/>
<text x="86" y="1044.22" text-anchor="end" font-family="Arial" font-size="10">60</text>
<line x1="90" y1="995.34" x2="886" y2="995.34" stroke="#e2e2e2"/>
<text x="86" y="999.34" text-anchor="end" font-family="Arial" font-size="10">80</text>
<line x1="94.00" y1="1172" x2="94.00" y2="1176" stroke="#333"/>
<text x="94.00" y="1184" text-anchor="end" font-family="Arial" font-size="9" transform="rotate(-45 94.00,1184)">U1->U2</text>
<line x1="154.92" y1="1172" x2="154.92" y2="1176" stroke="#333"/>
<text x="154.92" y="1184" text-anchor="end" font-family="Arial" font-size="9" transform="rotate(-45 154.92,1184)">U2->U3</text>
<line x1="215.85" y1="1172" x2="215.85" y2="1176" stroke="#333"/>
<text x="215.85" y="1184" text-anchor="end" font-family="Arial" font-size="9" transform="rotate(-45 215.85,1184)">U3->U4</text>
<line x1="276.77" y1="1172" x2="276.77" y2="1176" stroke="#333"/>
<text x="276.77" y="1184" text-anchor="end" font-family="Arial" font-size="9" transform="rotate(-45 276.77,1184)">U4->U5</text>
<line x1="337.69" y1="1172" x2="337.69" y2="1176" stroke="#333"/>
<text x="337.69" y="1184" text-anchor="end" font-family="Arial" font-size="9" transform="rotate(-45 337.69,1184)">U5->U6</text>
<line x1="398.62" y1="1172" x2="398.62" y2="1176" stroke="#333"/>
<text x="398.62" y="1184" text-anchor="end" font-family="Arial" font-size="9" transform="rotate(-45 398.62,1184)">U6->U7</text>
<line x1="459.54" y1="1172" x2="459.54" y2="1176" stroke="#333"/>
<text x="459.54" y="1184" text-anchor="end" font-family="Arial" font-size="9" transform="rotate(-45 459.54,1184)">U7->U8</text>
<line x1="520.46" y1="1172" x2="520.46" y2="1176" stroke="#333"/>
<text x="520.46" y="1184" text-anchor="end" font-family="Arial" font-size="9" transform="rotate(-45 520.46,1184)">U8->U9</text>
<line x1="581.38" y1="1172" x2="581.38" y2="1176" stroke="#333"/>
<text x="581.38" y="1184" text-anchor="end" font-family="Arial" font-size="9" transform="rotate(-45 581.38,1184)">U9->U10</text>
<line x1="642.31" y1="1172" x2="642.31" y2="1176" stroke="#333"/>
<text x="642.31" y="1184" text-anchor="end" font-family="Arial" font-size="9" transform="rotate(-45 642.31,1184)">U10->U11</text>
<line x1="703.23" y1="1172" x2="703.23" y2="1176" stroke="#333"/>
<text x="703.23" y="1184" text-anchor="end" font-family="Arial" font-size="9" transform="rotate(-45 703.23,1184)">U11->U12</text>
<line x1="764.15" y1="1172" x2="764.15" y2="1176" stroke="#333"/>
<text x="764.15" y="1184" text-anchor="end" font-family="Arial" font-size="9" transform="rotate(-45 764.15,1184)">U12->U13</text>
<line x1="825.08" y1="1172" x2="825.08" y2="1176" stroke="#333"/>
<text x="825.08" y="1184" text-anchor="end" font-family="Arial" font-size="9" transform="rotate(-45 825.08,1184)">U13->U14</text>
<line x1="886.00" y1="1172" x2="886.00" y2="1176" stroke="#333"/>
<text x="886.00" y="1184" text-anchor="end" font-family="Arial" font-size="9" transform="rotate(-45 886.00,1184)">U14->U15</text>
<text x="18" y="970" font-family="Arial" font-size="12" font-weight="bold">scaffold-plane bend</text>
<polyline points="94.00,1032.82 154.92,1040.22 215.85,989.25 276.77,976.90 337.69,1060.97 398.62,1136.98 459.54,1151.10 520.46,1110.39 581.38,1122.74 642.31,1098.08 703.23,1133.86 764.15,1041.56 825.08,1033.29 886.00,1040.84" fill="none" stroke="#b279a2" stroke-width="2"/>
<rect x="90.00" y="1028.82" width="8" height="8" transform="rotate(45 94.00,1032.82)" fill="#d62728" stroke="white" stroke-width="1"/>
<rect x="150.92" y="1036.22" width="8" height="8" transform="rotate(45 154.92,1040.22)" fill="#d62728" stroke="white" stroke-width="1"/>
<rect x="211.85" y="985.25" width="8" height="8" transform="rotate(45 215.85,989.25)" fill="#d62728" stroke="white" stroke-width="1"/>
<rect x="272.77" y="972.90" width="8" height="8" transform="rotate(45 276.77,976.90)" fill="#d62728" stroke="white" stroke-width="1"/>
<circle cx="337.69" cy="1060.97" r="4" fill="#b279a2" stroke="white" stroke-width="1"/>
<circle cx="398.62" cy="1136.98" r="4" fill="#b279a2" stroke="white" stroke-width="1"/>
<circle cx="459.54" cy="1151.10" r="4" fill="#b279a2" stroke="white" stroke-width="1"/>
<circle cx="520.46" cy="1110.39" r="4" fill="#b279a2" stroke="white" stroke-width="1"/>
<circle cx="581.38" cy="1122.74" r="4" fill="#b279a2" stroke="white" stroke-width="1"/>
<circle cx="642.31" cy="1098.08" r="4" fill="#b279a2" stroke="white" stroke-width="1"/>
<circle cx="703.23" cy="1133.86" r="4" fill="#b279a2" stroke="white" stroke-width="1"/>
<rect x="760.15" y="1037.56" width="8" height="8" transform="rotate(45 764.15,1041.56)" fill="#d62728" stroke="white" stroke-width="1"/>
<rect x="821.08" y="1029.29" width="8" height="8" transform="rotate(45 825.08,1033.29)" fill="#d62728" stroke="white" stroke-width="1"/>
<rect x="882.00" y="1036.84" width="8" height="8" transform="rotate(45 886.00,1040.84)" fill="#d62728" stroke="white" stroke-width="1"/>
<text x="18" y="1069" text-anchor="middle" font-family="Arial" font-size="11" transform="rotate(-90 18,1069)">feature value</text>
<text x="460" y="1236" text-anchor="middle" font-family="Arial" font-size="12">Aleph unit transition</text>
</svg>
