<svg xmlns="http://www.w3.org/2000/svg" width="900" height="430" viewBox="0 0 900 430">
<rect width="100%" height="100%" fill="white"/>
<text x="450" y="26" text-anchor="middle" font-family="Arial" font-size="17">Aleph raw angular phase progression</text>
<line x1="70" y1="45" x2="70" y2="370" stroke="#333"/>
<line x1="70" y1="370" x2="870" y2="370" stroke="#333"/>
<text x="450" y="415" text-anchor="middle" font-family="Arial" font-size="12">Aleph unit index</text>
<text x="18" y="208" text-anchor="middle" font-family="Arial" font-size="12" transform="rotate(-90 18,208)">raw Aleph phase (deg)</text>
<polyline points="70.00,55.32 127.14,47.84 184.29,45.00 241.43,49.97 298.57,68.81 355.71,110.72 412.86,165.83 470.00,209.63 527.14,249.83 584.29,297.49 641.43,339.36 698.57,361.96 755.71,370.00 812.86,369.34 870.00,363.35" fill="none" stroke="#4c78a8" stroke-width="2"/>
<circle cx="70.00" cy="55.32" r="2.5" fill="#4c78a8"/>
<circle cx="127.14" cy="47.84" r="2.5" fill="#4c78a8"/>
<circle cx="184.29" cy="45.00" r="2.5" fill="#4c78a8"/>
<circle cx="241.43" cy="49.97" r="2.5" fill="#4c78a8"/>
<circle cx="298.57" cy="68.81" r="2.5" fill="#4c78a8"/>
<circle cx="355.71" cy="110.72" r="2.5" fill="#4c78a8"/>
<circle cx="412.86" cy="165.83" r="2.5" fill="#4c78a8"/>
<circle cx="470.00" cy="209.63" r="2.5" fill="#4c78a8"/>
<circle cx="527.14" cy="249.83" r="2.5" fill="#4c78a8"/>
<circle cx="584.29" cy="297.49" r="2.5" fill="#4c78a8"/>
<circle cx="641.43" cy="339.36" r="2.5" fill="#4c78a8"/>
<circle cx="698.57" cy="361.96" r="2.5" fill="#4c78a8"/>
<circle cx="755.71" cy="370.00" r="2.5" fill="#4c78a8"/>
<circle cx="812.86" cy="369.34" r="2.5" fill="#4c78a8"/>
<circle cx="870.00" cy="363.35" r="2.5" fill="#4c78a8"/>
<rect x="700" y="50" width="12" height="12" fill="#4c78a8"/>
<text x="718" y="61" font-family="Arial" font-size="12">full</text>
<polyline points="70.00,98.90 127.14,177.04 184.29,195.91 241.43,199.44 298.57,203.67 355.71,238.85" fill="none" stroke="#f58518" stroke-width="2"/>
<circle cx="70.00" cy="98.90" r="2.5" fill="#f58518"/>
<circle cx="127.14" cy="177.04" r="2.5" fill="#f58518"/>
<circle cx="184.29" cy="195.91" r="2.5" fill="#f58518"/>
<circle cx="241.43" cy="199.44" r="2.5" fill="#f58518"/>
<circle cx="298.57" cy="203.67" r="2.5" fill="#f58518"/>
<circle cx="355.71" cy="238.85" r="2.5" fill="#f58518"/>
<rect x="700" y="70" width="12" height="12" fill="#f58518"/>
<text x="718" y="81" font-family="Arial" font-size="12">central6</text>
<polyline points="70.00,88.74 127.14,181.50 184.29,200.92 241.43,203.55 298.57,206.44 355.71,233.34 412.86,359.29" fill="none" stroke="#54a24b" stroke-width="2"/>
<circle cx="70.00" cy="88.74" r="2.5" fill="#54a24b"/>
<circle cx="127.14" cy="181.50" r="2.5" fill="#54a24b"/>
<circle cx="184.29" cy="200.92" r="2.5" fill="#54a24b"/>
<circle cx="241.43" cy="203.55" r="2.5" fill="#54a24b"/>
<circle cx="298.57" cy="206.44" r="2.5" fill="#54a24b"/>
<circle cx="355.71" cy="233.34" r="2.5" fill="#54a24b"/>
<circle cx="412.86" cy="359.29" r="2.5" fill="#54a24b"/>
<rect x="700" y="90" width="12" height="12" fill="#54a24b"/>
<text x="718" y="101" font-family="Arial" font-size="12">central7</text>
</svg>
