<svg xmlns="http://www.w3.org/2000/svg" width="920" height="430" viewBox="0 0 920 430">
<rect width="100%" height="100%" fill="white"/>
<text x="460" y="28" text-anchor="middle" font-family="Arial" font-size="17">Aleph QC summary</text>
<line x1="85" y1="52" x2="85" y2="338" stroke="#333"/>
<line x1="85" y1="338" x2="890" y2="338" stroke="#333"/>
<text x="160" y="358" text-anchor="middle" font-family="Arial" font-size="12">full</text>
<rect x="115" y="205.29" width="20" height="132.71" fill="#4c78a8"/>
<rect x="140" y="244.62" width="20" height="93.38" fill="#f58518"/>
<rect x="165" y="93.00" width="20" height="245.00" fill="#54a24b"/>
<rect x="190" y="240.09" width="20" height="97.91" fill="#b279a2"/>
<rect x="215" y="93.00" width="20" height="245.00" fill="#e45756"/>
<text x="310" y="358" text-anchor="middle" font-family="Arial" font-size="12">central6</text>
<rect x="265" y="185.91" width="20" height="152.09" fill="#4c78a8"/>
<rect x="290" y="191.79" width="20" height="146.21" fill="#f58518"/>
<rect x="315" y="338.00" width="20" height="0.00" fill="#54a24b"/>
<rect x="340" y="249.90" width="20" height="88.10" fill="#b279a2"/>
<rect x="365" y="310.78" width="20" height="27.22" fill="#e45756"/>
<text x="460" y="358" text-anchor="middle" font-family="Arial" font-size="12">central7</text>
<rect x="415" y="93.00" width="20" height="245.00" fill="#4c78a8"/>
<rect x="440" y="93.00" width="20" height="245.00" fill="#f58518"/>
<rect x="465" y="338.00" width="20" height="0.00" fill="#54a24b"/>
<rect x="490" y="264.12" width="20" height="73.88" fill="#b279a2"/>
<rect x="515" y="338.00" width="20" height="0.00" fill="#e45756"/>
<rect x="575" y="62" width="12" height="12" fill="#4c78a8"/>
<text x="593" y="73" font-family="Arial" font-size="11">mean abs twist normalized across structures</text>
<rect x="575" y="83" width="12" height="12" fill="#f58518"/>
<text x="593" y="94" font-family="Arial" font-size="11">twist std normalized across structures</text>
<rect x="575" y="104" width="12" height="12" fill="#54a24b"/>
<text x="593" y="115" font-family="Arial" font-size="11">negative rises normalized across structures</text>
<rect x="575" y="125" width="12" height="12" fill="#b279a2"/>
<text x="593" y="136" font-family="Arial" font-size="11">regular score normalized across structures</text>
<rect x="575" y="146" width="12" height="12" fill="#e45756"/>
<text x="593" y="157" font-family="Arial" font-size="11">QC warnings normalized across structures</text>
</svg>
