<svg xmlns="http://www.w3.org/2000/svg" width="900" height="430" viewBox="0 0 900 430">
<rect width="100%" height="100%" fill="white"/>
<text x="450" y="26" text-anchor="middle" font-family="Arial" font-size="17">Aleph local twist after phase unwrapping</text>
<line x1="70" y1="45" x2="70" y2="370" stroke="#333"/>
<line x1="70" y1="370" x2="870" y2="370" stroke="#333"/>
<text x="450" y="415" text-anchor="middle" font-family="Arial" font-size="12">Aleph unit index</text>
<text x="18" y="208" text-anchor="middle" font-family="Arial" font-size="12" transform="rotate(-90 18,208)">local twist (deg)</text>
<polyline points="70.00,45.00 131.54,56.29 193.08,75.32 254.62,109.09 316.15,165.30 377.69,197.45 439.23,169.89 500.77,161.13 562.31,179.30 623.85,165.20 685.38,118.25 746.92,82.80 808.46,61.60 870.00,48.62" fill="none" stroke="#4c78a8" stroke-width="2"/>
<circle cx="70.00" cy="45.00" r="2.5" fill="#4c78a8"/>
<circle cx="131.54" cy="56.29" r="2.5" fill="#4c78a8"/>
<circle cx="193.08" cy="75.32" r="2.5" fill="#4c78a8"/>
<circle cx="254.62" cy="109.09" r="2.5" fill="#4c78a8"/>
<circle cx="316.15" cy="165.30" r="2.5" fill="#4c78a8"/>
<circle cx="377.69" cy="197.45" r="2.5" fill="#4c78a8"/>
<circle cx="439.23" cy="169.89" r="2.5" fill="#4c78a8"/>
<circle cx="500.77" cy="161.13" r="2.5" fill="#4c78a8"/>
<circle cx="562.31" cy="179.30" r="2.5" fill="#4c78a8"/>
<circle cx="623.85" cy="165.20" r="2.5" fill="#4c78a8"/>
<circle cx="685.38" cy="118.25" r="2.5" fill="#4c78a8"/>
<circle cx="746.92" cy="82.80" r="2.5" fill="#4c78a8"/>
<circle cx="808.46" cy="61.60" r="2.5" fill="#4c78a8"/>
<circle cx="870.00" cy="48.62" r="2.5" fill="#4c78a8"/>
<rect x="700" y="50" width="12" height="12" fill="#4c78a8"/>
<text x="718" y="61" font-family="Arial" font-size="12">full</text>
<polyline points="70.00,253.56 131.54,109.16 193.08,71.80 254.62,73.53 316.15,148.91" fill="none" stroke="#f58518" stroke-width="2"/>
<circle cx="70.00" cy="253.56" r="2.5" fill="#f58518"/>
<circle cx="131.54" cy="109.16" r="2.5" fill="#f58518"/>
<circle cx="193.08" cy="71.80" r="2.5" fill="#f58518"/>
<circle cx="254.62" cy="73.53" r="2.5" fill="#f58518"/>
<circle cx="316.15" cy="148.91" r="2.5" fill="#f58518"/>
<rect x="700" y="70" width="12" height="12" fill="#f58518"/>
<text x="718" y="81" font-family="Arial" font-size="12">central6</text>
<polyline points="70.00,289.16 131.54,110.52 193.08,69.61 254.62,70.25 316.15,128.75 377.69,370.00" fill="none" stroke="#54a24b" stroke-width="2"/>
<circle cx="70.00" cy="289.16" r="2.5" fill="#54a24b"/>
<circle cx="131.54" cy="110.52" r="2.5" fill="#54a24b"/>
<circle cx="193.08" cy="69.61" r="2.5" fill="#54a24b"/>
<circle cx="254.62" cy="70.25" r="2.5" fill="#54a24b"/>
<circle cx="316.15" cy="128.75" r="2.5" fill="#54a24b"/>
<circle cx="377.69" cy="370.00" r="2.5" fill="#54a24b"/>
<rect x="700" y="90" width="12" height="12" fill="#54a24b"/>
<text x="718" y="101" font-family="Arial" font-size="12">central7</text>
</svg>
