<svg xmlns="http://www.w3.org/2000/svg" width="900" height="430" viewBox="0 0 900 430">
<rect width="100%" height="100%" fill="white"/>
<text x="450" y="26" text-anchor="middle" font-family="Arial" font-size="17">Aleph base-like angular phase progression</text>
<line x1="70" y1="45" x2="70" y2="370" stroke="#333"/>
<line x1="70" y1="370" x2="870" y2="370" stroke="#333"/>
<text x="450" y="415" text-anchor="middle" font-family="Arial" font-size="12">Aleph unit index</text>
<text x="18" y="208" text-anchor="middle" font-family="Arial" font-size="12" transform="rotate(-90 18,208)">Aleph phase (deg)</text>
<polyline points="70.00,359.68 127.14,367.16 184.29,370.00 241.43,365.03 298.57,346.19 355.71,304.28 412.86,249.17 470.00,205.37 527.14,165.17 584.29,117.51 641.43,75.64 698.57,53.04 755.71,45.00 812.86,45.66 870.00,51.65" fill="none" stroke="#4c78a8" stroke-width="2"/>
<circle cx="70.00" cy="359.68" r="2.5" fill="#4c78a8"/>
<circle cx="127.14" cy="367.16" r="2.5" fill="#4c78a8"/>
<circle cx="184.29" cy="370.00" r="2.5" fill="#4c78a8"/>
<circle cx="241.43" cy="365.03" r="2.5" fill="#4c78a8"/>
<circle cx="298.57" cy="346.19" r="2.5" fill="#4c78a8"/>
<circle cx="355.71" cy="304.28" r="2.5" fill="#4c78a8"/>
<circle cx="412.86" cy="249.17" r="2.5" fill="#4c78a8"/>
<circle cx="470.00" cy="205.37" r="2.5" fill="#4c78a8"/>
<circle cx="527.14" cy="165.17" r="2.5" fill="#4c78a8"/>
<circle cx="584.29" cy="117.51" r="2.5" fill="#4c78a8"/>
<circle cx="641.43" cy="75.64" r="2.5" fill="#4c78a8"/>
<circle cx="698.57" cy="53.04" r="2.5" fill="#4c78a8"/>
<circle cx="755.71" cy="45.00" r="2.5" fill="#4c78a8"/>
<circle cx="812.86" cy="45.66" r="2.5" fill="#4c78a8"/>
<circle cx="870.00" cy="51.65" r="2.5" fill="#4c78a8"/>
<rect x="700" y="50" width="12" height="12" fill="#4c78a8"/>
<text x="718" y="61" font-family="Arial" font-size="12">full</text>
<polyline points="70.00,316.10 127.14,237.96 184.29,219.09 241.43,215.56 298.57,211.33 355.71,176.15" fill="none" stroke="#f58518" stroke-width="2"/>
<circle cx="70.00" cy="316.10" r="2.5" fill="#f58518"/>
<circle cx="127.14" cy="237.96" r="2.5" fill="#f58518"/>
<circle cx="184.29" cy="219.09" r="2.5" fill="#f58518"/>
<circle cx="241.43" cy="215.56" r="2.5" fill="#f58518"/>
<circle cx="298.57" cy="211.33" r="2.5" fill="#f58518"/>
<circle cx="355.71" cy="176.15" r="2.5" fill="#f58518"/>
<rect x="700" y="70" width="12" height="12" fill="#f58518"/>
<text x="718" y="81" font-family="Arial" font-size="12">central6</text>
<polyline points="70.00,326.26 127.14,233.50 184.29,214.08 241.43,211.45 298.57,208.56 355.71,181.66 412.86,55.71" fill="none" stroke="#54a24b" stroke-width="2"/>
<circle cx="70.00" cy="326.26" r="2.5" fill="#54a24b"/>
<circle cx="127.14" cy="233.50" r="2.5" fill="#54a24b"/>
<circle cx="184.29" cy="214.08" r="2.5" fill="#54a24b"/>
<circle cx="241.43" cy="211.45" r="2.5" fill="#54a24b"/>
<circle cx="298.57" cy="208.56" r="2.5" fill="#54a24b"/>
<circle cx="355.71" cy="181.66" r="2.5" fill="#54a24b"/>
<circle cx="412.86" cy="55.71" r="2.5" fill="#54a24b"/>
<rect x="700" y="90" width="12" height="12" fill="#54a24b"/>
<text x="718" y="101" font-family="Arial" font-size="12">central7</text>
</svg>
