<svg xmlns="http://www.w3.org/2000/svg" width="920" height="480" viewBox="0 0 920 480">
<rect width="100%" height="100%" fill="white"/>
<text x="460" y="26" text-anchor="middle" font-family="Arial" font-size="17">central6 Aleph signed-twist diagnostic</text>
<text x="460" y="46" text-anchor="middle" font-family="Arial" font-size="11" fill="#555">Aleph signed-twist diagnostic: direction-sensitive local twist by unit transition</text>
<line x1="94" y1="74" x2="94" y2="400" stroke="#333"/>
<line x1="94" y1="400" x2="886" y2="400" stroke="#333"/>
<line x1="90" y1="394.13" x2="886" y2="394.13" stroke="#e2e2e2"/>
<text x="86" y="398.13" text-anchor="end" font-family="Arial" font-size="10">-60</text>
<line x1="90" y1="330.00" x2="886" y2="330.00" stroke="#e2e2e2"/>
<text x="86" y="334.00" text-anchor="end" font-family="Arial" font-size="10">-40</text>
<line x1="90" y1="265.87" x2="886" y2="265.87" stroke="#e2e2e2"/>
<text x="86" y="269.87" text-anchor="end" font-family="Arial" font-size="10">-20</text>
<line x1="90" y1="201.74" x2="886" y2="201.74" stroke="#e2e2e2"/>
<text x="86" y="205.74" text-anchor="end" font-family="Arial" font-size="10">0</text>
<line x1="90" y1="137.61" x2="886" y2="137.61" stroke="#e2e2e2"/>
<text x="86" y="141.61" text-anchor="end" font-family="Arial" font-size="10">20</text>
<line x1="90" y1="105.55" x2="886" y2="105.55" stroke="#e2e2e2"/>
<text x="86" y="109.55" text-anchor="end" font-family="Arial" font-size="10">30</text>
<line x1="94.00" y1="400" x2="94.00" y2="404" stroke="#333"/>
<text x="94.00" y="416" text-anchor="middle" font-family="Arial" font-size="10">U1->U2</text>
<line x1="292.00" y1="400" x2="292.00" y2="404" stroke="#333"/>
<text x="292.00" y="416" text-anchor="middle" font-family="Arial" font-size="10">U2->U3</text>
<line x1="490.00" y1="400" x2="490.00" y2="404" stroke="#333"/>
<text x="490.00" y="416" text-anchor="middle" font-family="Arial" font-size="10">U3->U4</text>
<line x1="688.00" y1="400" x2="688.00" y2="404" stroke="#333"/>
<text x="688.00" y="416" text-anchor="middle" font-family="Arial" font-size="10">U4->U5</text>
<line x1="886.00" y1="400" x2="886.00" y2="404" stroke="#333"/>
<text x="886.00" y="416" text-anchor="middle" font-family="Arial" font-size="10">U5->U6</text>
<line x1="94" y1="105.55" x2="886" y2="105.55" stroke="#777" stroke-dasharray="4 4"/>
<text x="882" y="101.55" text-anchor="end" font-family="Arial" font-size="10">30 deg reference</text>
<polyline points="94.00,368.45 292.00,241.99 490.00,209.27 688.00,210.78 886.00,276.80" fill="none" stroke="#4c78a8" stroke-width="2"/>
<circle cx="94.00" cy="368.45" r="4" fill="#4c78a8" stroke="white" stroke-width="1"/>
<circle cx="292.00" cy="241.99" r="4" fill="#4c78a8" stroke="white" stroke-width="1"/>
<circle cx="490.00" cy="209.27" r="4" fill="#4c78a8" stroke="white" stroke-width="1"/>
<circle cx="688.00" cy="210.78" r="4" fill="#4c78a8" stroke="white" stroke-width="1"/>
<circle cx="886.00" cy="276.80" r="4" fill="#4c78a8" stroke="white" stroke-width="1"/>
<rect x="735" y="80" width="11" height="11" fill="#4c78a8"/>
<text x="752" y="90" font-family="Arial" font-size="11">central6</text>
<text x="18" y="242" text-anchor="middle" font-family="Arial" font-size="11" transform="rotate(-90 18,242)">signed local twist (deg)</text>
<text x="460" y="464" text-anchor="middle" font-family="Arial" font-size="12">Aleph unit transition</text>
</svg>
