<svg xmlns="http://www.w3.org/2000/svg" width="920" height="1134" viewBox="0 0 920 1134">
<rect width="100%" height="100%" fill="white"/>
<text x="460" y="26" text-anchor="middle" font-family="Arial" font-size="17">full Aleph series companion traces</text>
<line x1="78" y1="60" x2="78" y2="256" stroke="#333"/>
<line x1="78" y1="256" x2="886" y2="256" stroke="#333"/>
<text x="18" y="74" font-family="Arial" font-size="12" font-weight="bold">signed twist</text>
<polyline points="78.00,78.97 140.15,90.67 202.31,110.40 264.46,145.42 326.62,203.69 388.77,237.03 450.92,208.45 513.08,199.37 575.23,218.21 637.38,203.59 699.54,154.92 761.69,118.16 823.85,96.18 886.00,82.72" fill="none" stroke="#4c78a8" stroke-width="2"/>
<circle cx="78.00" cy="78.97" r="4" fill="#d62728" stroke="white" stroke-width="1"/>
<circle cx="140.15" cy="90.67" r="4" fill="#d62728" stroke="white" stroke-width="1"/>
<circle cx="202.31" cy="110.40" r="4" fill="#d62728" stroke="white" stroke-width="1"/>
<circle cx="264.46" cy="145.42" r="4" fill="#d62728" stroke="white" stroke-width="1"/>
<circle cx="326.62" cy="203.69" r="4" fill="#4c78a8" stroke="white" stroke-width="1"/>
<circle cx="388.77" cy="237.03" r="4" fill="#4c78a8" stroke="white" stroke-width="1"/>
<circle cx="450.92" cy="208.45" r="4" fill="#4c78a8" stroke="white" stroke-width="1"/>
<circle cx="513.08" cy="199.37" r="4" fill="#4c78a8" stroke="white" stroke-width="1"/>
<circle cx="575.23" cy="218.21" r="4" fill="#4c78a8" stroke="white" stroke-width="1"/>
<circle cx="637.38" cy="203.59" r="4" fill="#4c78a8" stroke="white" stroke-width="1"/>
<circle cx="699.54" cy="154.92" r="4" fill="#4c78a8" stroke="white" stroke-width="1"/>
<circle cx="761.69" cy="118.16" r="4" fill="#d62728" stroke="white" stroke-width="1"/>
<circle cx="823.85" cy="96.18" r="4" fill="#d62728" stroke="white" stroke-width="1"/>
<circle cx="886.00" cy="82.72" r="4" fill="#d62728" stroke="white" stroke-width="1"/>
<text x="18" y="163" text-anchor="middle" font-family="Arial" font-size="11" transform="rotate(-90 18,163)">feature value</text>
<line x1="78" y1="326" x2="78" y2="522" stroke="#333"/>
<line x1="78" y1="522" x2="886" y2="522" stroke="#333"/>
<text x="18" y="340" font-family="Arial" font-size="12" font-weight="bold">local rise</text>
<polyline points="78.00,495.01 140.15,497.94 202.31,481.05 264.46,448.86 326.62,410.03 388.77,374.93 450.92,352.98 513.08,350.06 575.23,366.98 637.38,399.14 699.54,437.98 761.69,473.07 823.85,495.03 886.00,497.93" fill="none" stroke="#f58518" stroke-width="2"/>
<circle cx="78.00" cy="495.01" r="4" fill="#d62728" stroke="white" stroke-width="1"/>
<circle cx="140.15" cy="497.94" r="4" fill="#d62728" stroke="white" stroke-width="1"/>
<circle cx="202.31" cy="481.05" r="4" fill="#d62728" stroke="white" stroke-width="1"/>
<circle cx="264.46" cy="448.86" r="4" fill="#d62728" stroke="white" stroke-width="1"/>
<circle cx="326.62" cy="410.03" r="4" fill="#f58518" stroke="white" stroke-width="1"/>
<circle cx="388.77" cy="374.93" r="4" fill="#f58518" stroke="white" stroke-width="1"/>
<circle cx="450.92" cy="352.98" r="4" fill="#f58518" stroke="white" stroke-width="1"/>
<circle cx="513.08" cy="350.06" r="4" fill="#f58518" stroke="white" stroke-width="1"/>
<circle cx="575.23" cy="366.98" r="4" fill="#f58518" stroke="white" stroke-width="1"/>
<circle cx="637.38" cy="399.14" r="4" fill="#f58518" stroke="white" stroke-width="1"/>
<circle cx="699.54" cy="437.98" r="4" fill="#f58518" stroke="white" stroke-width="1"/>
<circle cx="761.69" cy="473.07" r="4" fill="#d62728" stroke="white" stroke-width="1"/>
<circle cx="823.85" cy="495.03" r="4" fill="#d62728" stroke="white" stroke-width="1"/>
<circle cx="886.00" cy="497.93" r="4" fill="#d62728" stroke="white" stroke-width="1"/>
<text x="18" y="429" text-anchor="middle" font-family="Arial" font-size="11" transform="rotate(-90 18,429)">feature value</text>
<line x1="78" y1="592" x2="78" y2="788" stroke="#333"/>
<line x1="78" y1="788" x2="886" y2="788" stroke="#333"/>
<text x="18" y="606" font-family="Arial" font-size="12" font-weight="bold">base-plane bend</text>
<polyline points="78.00,650.96 140.15,650.88 202.31,648.82 264.46,650.16 326.62,769.03 388.77,610.97 450.92,689.62 513.08,689.63 575.23,615.77 637.38,762.00 699.54,648.49 761.69,650.48 823.85,650.86 886.00,651.45" fill="none" stroke="#54a24b" stroke-width="2"/>
<circle cx="78.00" cy="650.96" r="4" fill="#d62728" stroke="white" stroke-width="1"/>
<circle cx="140.15" cy="650.88" r="4" fill="#d62728" stroke="white" stroke-width="1"/>
<circle cx="202.31" cy="648.82" r="4" fill="#d62728" stroke="white" stroke-width="1"/>
<circle cx="264.46" cy="650.16" r="4" fill="#d62728" stroke="white" stroke-width="1"/>
<circle cx="326.62" cy="769.03" r="4" fill="#54a24b" stroke="white" stroke-width="1"/>
<circle cx="388.77" cy="610.97" r="4" fill="#54a24b" stroke="white" stroke-width="1"/>
<circle cx="450.92" cy="689.62" r="4" fill="#54a24b" stroke="white" stroke-width="1"/>
<circle cx="513.08" cy="689.63" r="4" fill="#54a24b" stroke="white" stroke-width="1"/>
<circle cx="575.23" cy="615.77" r="4" fill="#54a24b" stroke="white" stroke-width="1"/>
<circle cx="637.38" cy="762.00" r="4" fill="#54a24b" stroke="white" stroke-width="1"/>
<circle cx="699.54" cy="648.49" r="4" fill="#54a24b" stroke="white" stroke-width="1"/>
<circle cx="761.69" cy="650.48" r="4" fill="#d62728" stroke="white" stroke-width="1"/>
<circle cx="823.85" cy="650.86" r="4" fill="#d62728" stroke="white" stroke-width="1"/>
<circle cx="886.00" cy="651.45" r="4" fill="#d62728" stroke="white" stroke-width="1"/>
<text x="18" y="695" text-anchor="middle" font-family="Arial" font-size="11" transform="rotate(-90 18,695)">feature value</text>
<line x1="78" y1="858" x2="78" y2="1054" stroke="#333"/>
<line x1="78" y1="1054" x2="886" y2="1054" stroke="#333"/>
<text x="18" y="872" font-family="Arial" font-size="12" font-weight="bold">scaffold-plane bend</text>
<polyline points="78.00,927.70 140.15,934.42 202.31,888.17 264.46,876.97 326.62,953.25 388.77,1022.22 450.92,1035.03 513.08,998.09 575.23,1009.30 637.38,986.93 699.54,1019.40 761.69,935.64 823.85,928.14 886.00,934.99" fill="none" stroke="#b279a2" stroke-width="2"/>
<circle cx="78.00" cy="927.70" r="4" fill="#d62728" stroke="white" stroke-width="1"/>
<circle cx="140.15" cy="934.42" r="4" fill="#d62728" stroke="white" stroke-width="1"/>
<circle cx="202.31" cy="888.17" r="4" fill="#d62728" stroke="white" stroke-width="1"/>
<circle cx="264.46" cy="876.97" r="4" fill="#d62728" stroke="white" stroke-width="1"/>
<circle cx="326.62" cy="953.25" r="4" fill="#b279a2" stroke="white" stroke-width="1"/>
<circle cx="388.77" cy="1022.22" r="4" fill="#b279a2" stroke="white" stroke-width="1"/>
<circle cx="450.92" cy="1035.03" r="4" fill="#b279a2" stroke="white" stroke-width="1"/>
<circle cx="513.08" cy="998.09" r="4" fill="#b279a2" stroke="white" stroke-width="1"/>
<circle cx="575.23" cy="1009.30" r="4" fill="#b279a2" stroke="white" stroke-width="1"/>
<circle cx="637.38" cy="986.93" r="4" fill="#b279a2" stroke="white" stroke-width="1"/>
<circle cx="699.54" cy="1019.40" r="4" fill="#b279a2" stroke="white" stroke-width="1"/>
<circle cx="761.69" cy="935.64" r="4" fill="#d62728" stroke="white" stroke-width="1"/>
<circle cx="823.85" cy="928.14" r="4" fill="#d62728" stroke="white" stroke-width="1"/>
<circle cx="886.00" cy="934.99" r="4" fill="#d62728" stroke="white" stroke-width="1"/>
<text x="18" y="961" text-anchor="middle" font-family="Arial" font-size="11" transform="rotate(-90 18,961)">feature value</text>
<text x="460" y="1118" text-anchor="middle" font-family="Arial" font-size="12">Aleph unit-transition index</text>
</svg>
