<svg xmlns="http://www.w3.org/2000/svg" width="631" height="659" viewBox="0 0 631 659">
<rect width="100%" height="100%" fill="white"/>
<text x="316" y="26" text-anchor="middle" font-family="Arial" font-size="17">Aleph fingerprint comparison</text>
<text x="18" y="70" font-family="Arial" font-size="13" font-weight="bold">full</text>
<text x="190" y="48" text-anchor="middle" font-family="Arial" font-size="9">1</text>
<text x="216" y="48" text-anchor="middle" font-family="Arial" font-size="9">2</text>
<text x="244" y="48" text-anchor="middle" font-family="Arial" font-size="9">3</text>
<text x="270" y="48" text-anchor="middle" font-family="Arial" font-size="9">4</text>
<text x="298" y="48" text-anchor="middle" font-family="Arial" font-size="9">5</text>
<text x="324" y="48" text-anchor="middle" font-family="Arial" font-size="9">6</text>
<text x="352" y="48" text-anchor="middle" font-family="Arial" font-size="9">7</text>
<text x="378" y="48" text-anchor="middle" font-family="Arial" font-size="9">8</text>
<text x="406" y="48" text-anchor="middle" font-family="Arial" font-size="9">9</text>
<text x="432" y="48" text-anchor="middle" font-family="Arial" font-size="9">10</text>
<text x="460" y="48" text-anchor="middle" font-family="Arial" font-size="9">11</text>
<text x="486" y="48" text-anchor="middle" font-family="Arial" font-size="9">12</text>
<text x="514" y="48" text-anchor="middle" font-family="Arial" font-size="9">13</text>
<text x="540" y="48" text-anchor="middle" font-family="Arial" font-size="9">14</text>
<text x="568" y="48" text-anchor="middle" font-family="Arial" font-size="9">15</text>
<text x="168" y="67" text-anchor="end" font-family="Arial" font-size="9">abs twist</text>
<rect x="176" y="56" width="26" height="14" fill="#688cb4" stroke="#ffffff"/>
<rect x="203" y="56" width="26" height="14" fill="#567fac" stroke="#ffffff"/>
<rect x="230" y="56" width="26" height="14" fill="#5e85b0" stroke="#ffffff"/>
<rect x="257" y="56" width="26" height="14" fill="#92acc8" stroke="#ffffff"/>
<rect x="284" y="56" width="26" height="14" fill="#e9ecef" stroke="#ffffff"/>
<rect x="311" y="56" width="26" height="14" fill="#f5dcc3" stroke="#ffffff"/>
<rect x="338" y="56" width="26" height="14" fill="#f0f1f2" stroke="#ffffff"/>
<rect x="365" y="56" width="26" height="14" fill="#e2e7ec" stroke="#ffffff"/>
<rect x="392" y="56" width="26" height="14" fill="#f5eee8" stroke="#ffffff"/>
<rect x="419" y="56" width="26" height="14" fill="#e8ecef" stroke="#ffffff"/>
<rect x="446" y="56" width="26" height="14" fill="#a0b6ce" stroke="#ffffff"/>
<rect x="473" y="56" width="26" height="14" fill="#6a8eb5" stroke="#ffffff"/>
<rect x="500" y="56" width="26" height="14" fill="#4e79a9" stroke="#ffffff"/>
<rect x="527" y="56" width="26" height="14" fill="#6288b2" stroke="#ffffff"/>
<rect x="554" y="56" width="26" height="14" fill="#e6e6e6" stroke="#ffffff"/>
<text x="168" y="84" text-anchor="end" font-family="Arial" font-size="9">signed twist</text>
<rect x="176" y="73" width="26" height="14" fill="#f5ebe2" stroke="#ffffff"/>
<rect x="203" y="73" width="26" height="14" fill="#f5f1ee" stroke="#ffffff"/>
<rect x="230" y="73" width="26" height="14" fill="#ebeef0" stroke="#ffffff"/>
<rect x="257" y="73" width="26" height="14" fill="#d1dae4" stroke="#ffffff"/>
<rect x="284" y="73" width="26" height="14" fill="#a6bad1" stroke="#ffffff"/>
<rect x="311" y="73" width="26" height="14" fill="#8da8c5" stroke="#ffffff"/>
<rect x="338" y="73" width="26" height="14" fill="#a2b8cf" stroke="#ffffff"/>
<rect x="365" y="73" width="26" height="14" fill="#a9bdd2" stroke="#ffffff"/>
<rect x="392" y="73" width="26" height="14" fill="#9bb2cc" stroke="#ffffff"/>
<rect x="419" y="73" width="26" height="14" fill="#a6bad1" stroke="#ffffff"/>
<rect x="446" y="73" width="26" height="14" fill="#cad5e1" stroke="#ffffff"/>
<rect x="473" y="73" width="26" height="14" fill="#e5e9ee" stroke="#ffffff"/>
<rect x="500" y="73" width="26" height="14" fill="#f5f4f3" stroke="#ffffff"/>
<rect x="527" y="73" width="26" height="14" fill="#f5ede6" stroke="#ffffff"/>
<rect x="554" y="73" width="26" height="14" fill="#e6e6e6" stroke="#ffffff"/>
<text x="168" y="101" text-anchor="end" font-family="Arial" font-size="9">rise</text>
<rect x="176" y="90" width="26" height="14" fill="#83a1c1" stroke="#ffffff"/>
<rect x="203" y="90" width="26" height="14" fill="#7f9ebf" stroke="#ffffff"/>
<rect x="230" y="90" width="26" height="14" fill="#97afca" stroke="#ffffff"/>
<rect x="257" y="90" width="26" height="14" fill="#c4d1de" stroke="#ffffff"/>
<rect x="284" y="90" width="26" height="14" fill="#f5f1ed" stroke="#ffffff"/>
<rect x="311" y="90" width="26" height="14" fill="#f5d0ac" stroke="#ffffff"/>
<rect x="338" y="90" width="26" height="14" fill="#f5bb84" stroke="#ffffff"/>
<rect x="365" y="90" width="26" height="14" fill="#f5b97e" stroke="#ffffff"/>
<rect x="392" y="90" width="26" height="14" fill="#f5c89e" stroke="#ffffff"/>
<rect x="419" y="90" width="26" height="14" fill="#f5e6d9" stroke="#ffffff"/>
<rect x="446" y="90" width="26" height="14" fill="#d3dce5" stroke="#ffffff"/>
<rect x="473" y="90" width="26" height="14" fill="#a2b7cf" stroke="#ffffff"/>
<rect x="500" y="90" width="26" height="14" fill="#83a1c1" stroke="#ffffff"/>
<rect x="527" y="90" width="26" height="14" fill="#7f9ebf" stroke="#ffffff"/>
<rect x="554" y="90" width="26" height="14" fill="#e6e6e6" stroke="#ffffff"/>
<text x="168" y="118" text-anchor="end" font-family="Arial" font-size="9">radial spread</text>
<rect x="176" y="107" width="26" height="14" fill="#97afca" stroke="#ffffff"/>
<rect x="203" y="107" width="26" height="14" fill="#a0b6ce" stroke="#ffffff"/>
<rect x="230" y="107" width="26" height="14" fill="#99b1cb" stroke="#ffffff"/>
<rect x="257" y="107" width="26" height="14" fill="#90aac7" stroke="#ffffff"/>
<rect x="284" y="107" width="26" height="14" fill="#a6bad1" stroke="#ffffff"/>
<rect x="311" y="107" width="26" height="14" fill="#bfcddc" stroke="#ffffff"/>
<rect x="338" y="107" width="26" height="14" fill="#d6dee7" stroke="#ffffff"/>
<rect x="365" y="107" width="26" height="14" fill="#d1dbe4" stroke="#ffffff"/>
<rect x="392" y="107" width="26" height="14" fill="#d6dee7" stroke="#ffffff"/>
<rect x="419" y="107" width="26" height="14" fill="#9cb3cc" stroke="#ffffff"/>
<rect x="446" y="107" width="26" height="14" fill="#a6bad1" stroke="#ffffff"/>
<rect x="473" y="107" width="26" height="14" fill="#a8bcd2" stroke="#ffffff"/>
<rect x="500" y="107" width="26" height="14" fill="#99b1cb" stroke="#ffffff"/>
<rect x="527" y="107" width="26" height="14" fill="#8ea9c6" stroke="#ffffff"/>
<rect x="554" y="107" width="26" height="14" fill="#97afca" stroke="#ffffff"/>
<text x="168" y="135" text-anchor="end" font-family="Arial" font-size="9">phase</text>
<rect x="176" y="124" width="26" height="14" fill="#abbed3" stroke="#ffffff"/>
<rect x="203" y="124" width="26" height="14" fill="#b0c2d5" stroke="#ffffff"/>
<rect x="230" y="124" width="26" height="14" fill="#b2c3d6" stroke="#ffffff"/>
<rect x="257" y="124" width="26" height="14" fill="#aec1d5" stroke="#ffffff"/>
<rect x="284" y="124" width="26" height="14" fill="#a3b8cf" stroke="#ffffff"/>
<rect x="311" y="124" width="26" height="14" fill="#88a5c3" stroke="#ffffff"/>
<rect x="338" y="124" width="26" height="14" fill="#668bb4" stroke="#ffffff"/>
<rect x="365" y="124" width="26" height="14" fill="#f58519" stroke="#ffffff"/>
<rect x="392" y="124" width="26" height="14" fill="#f59639" stroke="#ffffff"/>
<rect x="419" y="124" width="26" height="14" fill="#f5a960" stroke="#ffffff"/>
<rect x="446" y="124" width="26" height="14" fill="#f5bb83" stroke="#ffffff"/>
<rect x="473" y="124" width="26" height="14" fill="#f5c495" stroke="#ffffff"/>
<rect x="500" y="124" width="26" height="14" fill="#f5c79c" stroke="#ffffff"/>
<rect x="527" y="124" width="26" height="14" fill="#f5c79b" stroke="#ffffff"/>
<rect x="554" y="124" width="26" height="14" fill="#f5c596" stroke="#ffffff"/>
<text x="168" y="152" text-anchor="end" font-family="Arial" font-size="9">base bend</text>
<rect x="176" y="141" width="26" height="14" fill="#f5cea9" stroke="#ffffff"/>
<rect x="203" y="141" width="26" height="14" fill="#f5cea9" stroke="#ffffff"/>
<rect x="230" y="141" width="26" height="14" fill="#f5cda6" stroke="#ffffff"/>
<rect x="257" y="141" width="26" height="14" fill="#f5cea8" stroke="#ffffff"/>
<rect x="284" y="141" width="26" height="14" fill="#9eb5cd" stroke="#ffffff"/>
<rect x="311" y="141" width="26" height="14" fill="#f5ae6a" stroke="#ffffff"/>
<rect x="338" y="141" width="26" height="14" fill="#f5eee7" stroke="#ffffff"/>
<rect x="365" y="141" width="26" height="14" fill="#f5eee7" stroke="#ffffff"/>
<rect x="392" y="141" width="26" height="14" fill="#f5b271" stroke="#ffffff"/>
<rect x="419" y="141" width="26" height="14" fill="#a7bbd1" stroke="#ffffff"/>
<rect x="446" y="141" width="26" height="14" fill="#f5cca5" stroke="#ffffff"/>
<rect x="473" y="141" width="26" height="14" fill="#f5cea9" stroke="#ffffff"/>
<rect x="500" y="141" width="26" height="14" fill="#f5cea9" stroke="#ffffff"/>
<rect x="527" y="141" width="26" height="14" fill="#f5cfaa" stroke="#ffffff"/>
<rect x="554" y="141" width="26" height="14" fill="#e6e6e6" stroke="#ffffff"/>
<text x="168" y="169" text-anchor="end" font-family="Arial" font-size="9">scaffold bend</text>
<rect x="176" y="158" width="26" height="14" fill="#f5c79b" stroke="#ffffff"/>
<rect x="203" y="158" width="26" height="14" fill="#f5cfab" stroke="#ffffff"/>
<rect x="230" y="158" width="26" height="14" fill="#f5973b" stroke="#ffffff"/>
<rect x="257" y="158" width="26" height="14" fill="#f58920" stroke="#ffffff"/>
<rect x="284" y="158" width="26" height="14" fill="#f5e6d8" stroke="#ffffff"/>
<rect x="311" y="158" width="26" height="14" fill="#8ba6c4" stroke="#ffffff"/>
<rect x="338" y="158" width="26" height="14" fill="#7395ba" stroke="#ffffff"/>
<rect x="365" y="158" width="26" height="14" fill="#b7c7d9" stroke="#ffffff"/>
<rect x="392" y="158" width="26" height="14" fill="#a3b8cf" stroke="#ffffff"/>
<rect x="419" y="158" width="26" height="14" fill="#ccd7e2" stroke="#ffffff"/>
<rect x="446" y="158" width="26" height="14" fill="#90aac7" stroke="#ffffff"/>
<rect x="473" y="158" width="26" height="14" fill="#f5d1ae" stroke="#ffffff"/>
<rect x="500" y="158" width="26" height="14" fill="#f5c79c" stroke="#ffffff"/>
<rect x="527" y="158" width="26" height="14" fill="#f5d0ac" stroke="#ffffff"/>
<rect x="554" y="158" width="26" height="14" fill="#e6e6e6" stroke="#ffffff"/>
<text x="168" y="186" text-anchor="end" font-family="Arial" font-size="9">chain coherence</text>
<rect x="176" y="175" width="26" height="14" fill="#4c78a8" stroke="#ffffff"/>
<rect x="203" y="175" width="26" height="14" fill="#4c78a8" stroke="#ffffff"/>
<rect x="230" y="175" width="26" height="14" fill="#4c78a8" stroke="#ffffff"/>
<rect x="257" y="175" width="26" height="14" fill="#4c78a8" stroke="#ffffff"/>
<rect x="284" y="175" width="26" height="14" fill="#4f7aa9" stroke="#ffffff"/>
<rect x="311" y="175" width="26" height="14" fill="#4c78a8" stroke="#ffffff"/>
<rect x="338" y="175" width="26" height="14" fill="#6489b3" stroke="#ffffff"/>
<rect x="365" y="175" width="26" height="14" fill="#507ba9" stroke="#ffffff"/>
<rect x="392" y="175" width="26" height="14" fill="#6489b3" stroke="#ffffff"/>
<rect x="419" y="175" width="26" height="14" fill="#4c78a8" stroke="#ffffff"/>
<rect x="446" y="175" width="26" height="14" fill="#4f7aa9" stroke="#ffffff"/>
<rect x="473" y="175" width="26" height="14" fill="#4c78a8" stroke="#ffffff"/>
<rect x="500" y="175" width="26" height="14" fill="#4c78a8" stroke="#ffffff"/>
<rect x="527" y="175" width="26" height="14" fill="#4c78a8" stroke="#ffffff"/>
<rect x="554" y="175" width="26" height="14" fill="#4c78a8" stroke="#ffffff"/>
<text x="168" y="203" text-anchor="end" font-family="Arial" font-size="9">QC flag</text>
<rect x="176" y="192" width="26" height="14" fill="#d62728" stroke="#ffffff"/>
<rect x="203" y="192" width="26" height="14" fill="#d62728" stroke="#ffffff"/>
<rect x="230" y="192" width="26" height="14" fill="#d62728" stroke="#ffffff"/>
<rect x="257" y="192" width="26" height="14" fill="#d62728" stroke="#ffffff"/>
<rect x="284" y="192" width="26" height="14" fill="#e6e6e6" stroke="#ffffff"/>
<rect x="311" y="192" width="26" height="14" fill="#e6e6e6" stroke="#ffffff"/>
<rect x="338" y="192" width="26" height="14" fill="#e6e6e6" stroke="#ffffff"/>
<rect x="365" y="192" width="26" height="14" fill="#e6e6e6" stroke="#ffffff"/>
<rect x="392" y="192" width="26" height="14" fill="#e6e6e6" stroke="#ffffff"/>
<rect x="419" y="192" width="26" height="14" fill="#e6e6e6" stroke="#ffffff"/>
<rect x="446" y="192" width="26" height="14" fill="#e6e6e6" stroke="#ffffff"/>
<rect x="473" y="192" width="26" height="14" fill="#d62728" stroke="#ffffff"/>
<rect x="500" y="192" width="26" height="14" fill="#d62728" stroke="#ffffff"/>
<rect x="527" y="192" width="26" height="14" fill="#d62728" stroke="#ffffff"/>
<rect x="554" y="192" width="26" height="14" fill="#e6e6e6" stroke="#ffffff"/>
<text x="18" y="259" font-family="Arial" font-size="13" font-weight="bold">central6</text>
<text x="168" y="256" text-anchor="end" font-family="Arial" font-size="9">abs twist</text>
<rect x="176" y="245" width="26" height="14" fill="#f5a252" stroke="#ffffff"/>
<rect x="203" y="245" width="26" height="14" fill="#92acc8" stroke="#ffffff"/>
<rect x="230" y="245" width="26" height="14" fill="#5981ae" stroke="#ffffff"/>
<rect x="257" y="245" width="26" height="14" fill="#5b83af" stroke="#ffffff"/>
<rect x="284" y="245" width="26" height="14" fill="#cfd9e4" stroke="#ffffff"/>
<rect x="311" y="245" width="26" height="14" fill="#e6e6e6" stroke="#ffffff"/>
<rect x="338" y="245" width="26" height="14" fill="#e6e6e6" stroke="#ffffff"/>
<rect x="365" y="245" width="26" height="14" fill="#e6e6e6" stroke="#ffffff"/>
<rect x="392" y="245" width="26" height="14" fill="#e6e6e6" stroke="#ffffff"/>
<rect x="419" y="245" width="26" height="14" fill="#e6e6e6" stroke="#ffffff"/>
<rect x="446" y="245" width="26" height="14" fill="#e6e6e6" stroke="#ffffff"/>
<rect x="473" y="245" width="26" height="14" fill="#e6e6e6" stroke="#ffffff"/>
<rect x="500" y="245" width="26" height="14" fill="#e6e6e6" stroke="#ffffff"/>
<rect x="527" y="245" width="26" height="14" fill="#e6e6e6" stroke="#ffffff"/>
<rect x="554" y="245" width="26" height="14" fill="#e6e6e6" stroke="#ffffff"/>
<text x="168" y="273" text-anchor="end" font-family="Arial" font-size="9">signed twist</text>
<rect x="176" y="262" width="26" height="14" fill="#6288b2" stroke="#ffffff"/>
<rect x="203" y="262" width="26" height="14" fill="#d1dae4" stroke="#ffffff"/>
<rect x="230" y="262" width="26" height="14" fill="#eef0f1" stroke="#ffffff"/>
<rect x="257" y="262" width="26" height="14" fill="#edeff1" stroke="#ffffff"/>
<rect x="284" y="262" width="26" height="14" fill="#b3c4d6" stroke="#ffffff"/>
<rect x="311" y="262" width="26" height="14" fill="#e6e6e6" stroke="#ffffff"/>
<rect x="338" y="262" width="26" height="14" fill="#e6e6e6" stroke="#ffffff"/>
<rect x="365" y="262" width="26" height="14" fill="#e6e6e6" stroke="#ffffff"/>
<rect x="392" y="262" width="26" height="14" fill="#e6e6e6" stroke="#ffffff"/>
<rect x="419" y="262" width="26" height="14" fill="#e6e6e6" stroke="#ffffff"/>
<rect x="446" y="262" width="26" height="14" fill="#e6e6e6" stroke="#ffffff"/>
<rect x="473" y="262" width="26" height="14" fill="#e6e6e6" stroke="#ffffff"/>
<rect x="500" y="262" width="26" height="14" fill="#e6e6e6" stroke="#ffffff"/>
<rect x="527" y="262" width="26" height="14" fill="#e6e6e6" stroke="#ffffff"/>
<rect x="554" y="262" width="26" height="14" fill="#e6e6e6" stroke="#ffffff"/>
<text x="168" y="290" text-anchor="end" font-family="Arial" font-size="9">rise</text>
<rect x="176" y="279" width="26" height="14" fill="#f5c18f" stroke="#ffffff"/>
<rect x="203" y="279" width="26" height="14" fill="#f5ad67" stroke="#ffffff"/>
<rect x="230" y="279" width="26" height="14" fill="#f5a354" stroke="#ffffff"/>
<rect x="257" y="279" width="26" height="14" fill="#f5a75c" stroke="#ffffff"/>
<rect x="284" y="279" width="26" height="14" fill="#f5b77c" stroke="#ffffff"/>
<rect x="311" y="279" width="26" height="14" fill="#e6e6e6" stroke="#ffffff"/>
<rect x="338" y="279" width="26" height="14" fill="#e6e6e6" stroke="#ffffff"/>
<rect x="365" y="279" width="26" height="14" fill="#e6e6e6" stroke="#ffffff"/>
<rect x="392" y="279" width="26" height="14" fill="#e6e6e6" stroke="#ffffff"/>
<rect x="419" y="279" width="26" height="14" fill="#e6e6e6" stroke="#ffffff"/>
<rect x="446" y="279" width="26" height="14" fill="#e6e6e6" stroke="#ffffff"/>
<rect x="473" y="279" width="26" height="14" fill="#e6e6e6" stroke="#ffffff"/>
<rect x="500" y="279" width="26" height="14" fill="#e6e6e6" stroke="#ffffff"/>
<rect x="527" y="279" width="26" height="14" fill="#e6e6e6" stroke="#ffffff"/>
<rect x="554" y="279" width="26" height="14" fill="#e6e6e6" stroke="#ffffff"/>
<text x="168" y="307" text-anchor="end" font-family="Arial" font-size="9">radial spread</text>
<rect x="176" y="296" width="26" height="14" fill="#f5b06e" stroke="#ffffff"/>
<rect x="203" y="296" width="26" height="14" fill="#f5dfca" stroke="#ffffff"/>
<rect x="230" y="296" width="26" height="14" fill="#f1f2f3" stroke="#ffffff"/>
<rect x="257" y="296" width="26" height="14" fill="#85a2c2" stroke="#ffffff"/>
<rect x="284" y="296" width="26" height="14" fill="#f1f2f3" stroke="#ffffff"/>
<rect x="311" y="296" width="26" height="14" fill="#f5b576" stroke="#ffffff"/>
<rect x="338" y="296" width="26" height="14" fill="#e6e6e6" stroke="#ffffff"/>
<rect x="365" y="296" width="26" height="14" fill="#e6e6e6" stroke="#ffffff"/>
<rect x="392" y="296" width="26" height="14" fill="#e6e6e6" stroke="#ffffff"/>
<rect x="419" y="296" width="26" height="14" fill="#e6e6e6" stroke="#ffffff"/>
<rect x="446" y="296" width="26" height="14" fill="#e6e6e6" stroke="#ffffff"/>
<rect x="473" y="296" width="26" height="14" fill="#e6e6e6" stroke="#ffffff"/>
<rect x="500" y="296" width="26" height="14" fill="#e6e6e6" stroke="#ffffff"/>
<rect x="527" y="296" width="26" height="14" fill="#e6e6e6" stroke="#ffffff"/>
<rect x="554" y="296" width="26" height="14" fill="#e6e6e6" stroke="#ffffff"/>
<text x="168" y="324" text-anchor="end" font-family="Arial" font-size="9">phase</text>
<rect x="176" y="313" width="26" height="14" fill="#90aac7" stroke="#ffffff"/>
<rect x="203" y="313" width="26" height="14" fill="#5f86b0" stroke="#ffffff"/>
<rect x="230" y="313" width="26" height="14" fill="#537dab" stroke="#ffffff"/>
<rect x="257" y="313" width="26" height="14" fill="#517caa" stroke="#ffffff"/>
<rect x="284" y="313" width="26" height="14" fill="#4e7aa9" stroke="#ffffff"/>
<rect x="311" y="313" width="26" height="14" fill="#f59130" stroke="#ffffff"/>
<rect x="338" y="313" width="26" height="14" fill="#e6e6e6" stroke="#ffffff"/>
<rect x="365" y="313" width="26" height="14" fill="#e6e6e6" stroke="#ffffff"/>
<rect x="392" y="313" width="26" height="14" fill="#e6e6e6" stroke="#ffffff"/>
<rect x="419" y="313" width="26" height="14" fill="#e6e6e6" stroke="#ffffff"/>
<rect x="446" y="313" width="26" height="14" fill="#e6e6e6" stroke="#ffffff"/>
<rect x="473" y="313" width="26" height="14" fill="#e6e6e6" stroke="#ffffff"/>
<rect x="500" y="313" width="26" height="14" fill="#e6e6e6" stroke="#ffffff"/>
<rect x="527" y="313" width="26" height="14" fill="#e6e6e6" stroke="#ffffff"/>
<rect x="554" y="313" width="26" height="14" fill="#e6e6e6" stroke="#ffffff"/>
<text x="168" y="341" text-anchor="end" font-family="Arial" font-size="9">base bend</text>
<rect x="176" y="330" width="26" height="14" fill="#9eb5cd" stroke="#ffffff"/>
<rect x="203" y="330" width="26" height="14" fill="#f5ae6a" stroke="#ffffff"/>
<rect x="230" y="330" width="26" height="14" fill="#f5eee7" stroke="#ffffff"/>
<rect x="257" y="330" width="26" height="14" fill="#f5eee7" stroke="#ffffff"/>
<rect x="284" y="330" width="26" height="14" fill="#f5b271" stroke="#ffffff"/>
<rect x="311" y="330" width="26" height="14" fill="#e6e6e6" stroke="#ffffff"/>
<rect x="338" y="330" width="26" height="14" fill="#e6e6e6" stroke="#ffffff"/>
<rect x="365" y="330" width="26" height="14" fill="#e6e6e6" stroke="#ffffff"/>
<rect x="392" y="330" width="26" height="14" fill="#e6e6e6" stroke="#ffffff"/>
<rect x="419" y="330" width="26" height="14" fill="#e6e6e6" stroke="#ffffff"/>
<rect x="446" y="330" width="26" height="14" fill="#e6e6e6" stroke="#ffffff"/>
<rect x="473" y="330" width="26" height="14" fill="#e6e6e6" stroke="#ffffff"/>
<rect x="500" y="330" width="26" height="14" fill="#e6e6e6" stroke="#ffffff"/>
<rect x="527" y="330" width="26" height="14" fill="#e6e6e6" stroke="#ffffff"/>
<rect x="554" y="330" width="26" height="14" fill="#e6e6e6" stroke="#ffffff"/>
<text x="168" y="358" text-anchor="end" font-family="Arial" font-size="9">scaffold bend</text>
<rect x="176" y="347" width="26" height="14" fill="#f5e6d8" stroke="#ffffff"/>
<rect x="203" y="347" width="26" height="14" fill="#8ba6c4" stroke="#ffffff"/>
<rect x="230" y="347" width="26" height="14" fill="#7395ba" stroke="#ffffff"/>
<rect x="257" y="347" width="26" height="14" fill="#b7c7d9" stroke="#ffffff"/>
<rect x="284" y="347" width="26" height="14" fill="#a3b8cf" stroke="#ffffff"/>
<rect x="311" y="347" width="26" height="14" fill="#e6e6e6" stroke="#ffffff"/>
<rect x="338" y="347" width="26" height="14" fill="#e6e6e6" stroke="#ffffff"/>
<rect x="365" y="347" width="26" height="14" fill="#e6e6e6" stroke="#ffffff"/>
<rect x="392" y="347" width="26" height="14" fill="#e6e6e6" stroke="#ffffff"/>
<rect x="419" y="347" width="26" height="14" fill="#e6e6e6" stroke="#ffffff"/>
<rect x="446" y="347" width="26" height="14" fill="#e6e6e6" stroke="#ffffff"/>
<rect x="473" y="347" width="26" height="14" fill="#e6e6e6" stroke="#ffffff"/>
<rect x="500" y="347" width="26" height="14" fill="#e6e6e6" stroke="#ffffff"/>
<rect x="527" y="347" width="26" height="14" fill="#e6e6e6" stroke="#ffffff"/>
<rect x="554" y="347" width="26" height="14" fill="#e6e6e6" stroke="#ffffff"/>
<text x="168" y="375" text-anchor="end" font-family="Arial" font-size="9">chain coherence</text>
<rect x="176" y="364" width="26" height="14" fill="#6288b2" stroke="#ffffff"/>
<rect x="203" y="364" width="26" height="14" fill="#4f7aa9" stroke="#ffffff"/>
<rect x="230" y="364" width="26" height="14" fill="#7999bc" stroke="#ffffff"/>
<rect x="257" y="364" width="26" height="14" fill="#4e7aa9" stroke="#ffffff"/>
<rect x="284" y="364" width="26" height="14" fill="#7999bc" stroke="#ffffff"/>
<rect x="311" y="364" width="26" height="14" fill="#4f7aa9" stroke="#ffffff"/>
<rect x="338" y="364" width="26" height="14" fill="#e6e6e6" stroke="#ffffff"/>
<rect x="365" y="364" width="26" height="14" fill="#e6e6e6" stroke="#ffffff"/>
<rect x="392" y="364" width="26" height="14" fill="#e6e6e6" stroke="#ffffff"/>
<rect x="419" y="364" width="26" height="14" fill="#e6e6e6" stroke="#ffffff"/>
<rect x="446" y="364" width="26" height="14" fill="#e6e6e6" stroke="#ffffff"/>
<rect x="473" y="364" width="26" height="14" fill="#e6e6e6" stroke="#ffffff"/>
<rect x="500" y="364" width="26" height="14" fill="#e6e6e6" stroke="#ffffff"/>
<rect x="527" y="364" width="26" height="14" fill="#e6e6e6" stroke="#ffffff"/>
<rect x="554" y="364" width="26" height="14" fill="#e6e6e6" stroke="#ffffff"/>
<text x="168" y="392" text-anchor="end" font-family="Arial" font-size="9">QC flag</text>
<rect x="176" y="381" width="26" height="14" fill="#e6e6e6" stroke="#ffffff"/>
<rect x="203" y="381" width="26" height="14" fill="#e6e6e6" stroke="#ffffff"/>
<rect x="230" y="381" width="26" height="14" fill="#e6e6e6" stroke="#ffffff"/>
<rect x="257" y="381" width="26" height="14" fill="#e6e6e6" stroke="#ffffff"/>
<rect x="284" y="381" width="26" height="14" fill="#e6e6e6" stroke="#ffffff"/>
<rect x="311" y="381" width="26" height="14" fill="#e6e6e6" stroke="#ffffff"/>
<rect x="338" y="381" width="26" height="14" fill="#e6e6e6" stroke="#ffffff"/>
<rect x="365" y="381" width="26" height="14" fill="#e6e6e6" stroke="#ffffff"/>
<rect x="392" y="381" width="26" height="14" fill="#e6e6e6" stroke="#ffffff"/>
<rect x="419" y="381" width="26" height="14" fill="#e6e6e6" stroke="#ffffff"/>
<rect x="446" y="381" width="26" height="14" fill="#e6e6e6" stroke="#ffffff"/>
<rect x="473" y="381" width="26" height="14" fill="#e6e6e6" stroke="#ffffff"/>
<rect x="500" y="381" width="26" height="14" fill="#e6e6e6" stroke="#ffffff"/>
<rect x="527" y="381" width="26" height="14" fill="#e6e6e6" stroke="#ffffff"/>
<rect x="554" y="381" width="26" height="14" fill="#e6e6e6" stroke="#ffffff"/>
<text x="18" y="448" font-family="Arial" font-size="13" font-weight="bold">central7</text>
<text x="168" y="445" text-anchor="end" font-family="Arial" font-size="9">abs twist</text>
<rect x="176" y="434" width="26" height="14" fill="#f58518" stroke="#ffffff"/>
<rect x="203" y="434" width="26" height="14" fill="#94adc9" stroke="#ffffff"/>
<rect x="230" y="434" width="26" height="14" fill="#557fac" stroke="#ffffff"/>
<rect x="257" y="434" width="26" height="14" fill="#5680ac" stroke="#ffffff"/>
<rect x="284" y="434" width="26" height="14" fill="#b0c2d5" stroke="#ffffff"/>
<rect x="311" y="434" width="26" height="14" fill="#f58518" stroke="#ffffff"/>
<rect x="338" y="434" width="26" height="14" fill="#e6e6e6" stroke="#ffffff"/>
<rect x="365" y="434" width="26" height="14" fill="#e6e6e6" stroke="#ffffff"/>
<rect x="392" y="434" width="26" height="14" fill="#e6e6e6" stroke="#ffffff"/>
<rect x="419" y="434" width="26" height="14" fill="#e6e6e6" stroke="#ffffff"/>
<rect x="446" y="434" width="26" height="14" fill="#e6e6e6" stroke="#ffffff"/>
<rect x="473" y="434" width="26" height="14" fill="#e6e6e6" stroke="#ffffff"/>
<rect x="500" y="434" width="26" height="14" fill="#e6e6e6" stroke="#ffffff"/>
<rect x="527" y="434" width="26" height="14" fill="#e6e6e6" stroke="#ffffff"/>
<rect x="554" y="434" width="26" height="14" fill="#e6e6e6" stroke="#ffffff"/>
<text x="168" y="462" text-anchor="end" font-family="Arial" font-size="9">signed twist</text>
<rect x="176" y="451" width="26" height="14" fill="#4c78a8" stroke="#ffffff"/>
<rect x="203" y="451" width="26" height="14" fill="#d0dae4" stroke="#ffffff"/>
<rect x="230" y="451" width="26" height="14" fill="#f0f1f2" stroke="#ffffff"/>
<rect x="257" y="451" width="26" height="14" fill="#eff0f2" stroke="#ffffff"/>
<rect x="284" y="451" width="26" height="14" fill="#c2cfde" stroke="#ffffff"/>
<rect x="311" y="451" width="26" height="14" fill="#4c78a8" stroke="#ffffff"/>
<rect x="338" y="451" width="26" height="14" fill="#e6e6e6" stroke="#ffffff"/>
<rect x="365" y="451" width="26" height="14" fill="#e6e6e6" stroke="#ffffff"/>
<rect x="392" y="451" width="26" height="14" fill="#e6e6e6" stroke="#ffffff"/>
<rect x="419" y="451" width="26" height="14" fill="#e6e6e6" stroke="#ffffff"/>
<rect x="446" y="451" width="26" height="14" fill="#e6e6e6" stroke="#ffffff"/>
<rect x="473" y="451" width="26" height="14" fill="#e6e6e6" stroke="#ffffff"/>
<rect x="500" y="451" width="26" height="14" fill="#e6e6e6" stroke="#ffffff"/>
<rect x="527" y="451" width="26" height="14" fill="#e6e6e6" stroke="#ffffff"/>
<rect x="554" y="451" width="26" height="14" fill="#e6e6e6" stroke="#ffffff"/>
<text x="168" y="479" text-anchor="end" font-family="Arial" font-size="9">rise</text>
<rect x="176" y="468" width="26" height="14" fill="#f5c494" stroke="#ffffff"/>
<rect x="203" y="468" width="26" height="14" fill="#f5af6a" stroke="#ffffff"/>
<rect x="230" y="468" width="26" height="14" fill="#f5a355" stroke="#ffffff"/>
<rect x="257" y="468" width="26" height="14" fill="#f5a659" stroke="#ffffff"/>
<rect x="284" y="468" width="26" height="14" fill="#f5b476" stroke="#ffffff"/>
<rect x="311" y="468" width="26" height="14" fill="#f5cba3" stroke="#ffffff"/>
<rect x="338" y="468" width="26" height="14" fill="#e6e6e6" stroke="#ffffff"/>
<rect x="365" y="468" width="26" height="14" fill="#e6e6e6" stroke="#ffffff"/>
<rect x="392" y="468" width="26" height="14" fill="#e6e6e6" stroke="#ffffff"/>
<rect x="419" y="468" width="26" height="14" fill="#e6e6e6" stroke="#ffffff"/>
<rect x="446" y="468" width="26" height="14" fill="#e6e6e6" stroke="#ffffff"/>
<rect x="473" y="468" width="26" height="14" fill="#e6e6e6" stroke="#ffffff"/>
<rect x="500" y="468" width="26" height="14" fill="#e6e6e6" stroke="#ffffff"/>
<rect x="527" y="468" width="26" height="14" fill="#e6e6e6" stroke="#ffffff"/>
<rect x="554" y="468" width="26" height="14" fill="#e6e6e6" stroke="#ffffff"/>
<text x="168" y="496" text-anchor="end" font-family="Arial" font-size="9">radial spread</text>
<rect x="176" y="485" width="26" height="14" fill="#f5ab64" stroke="#ffffff"/>
<rect x="203" y="485" width="26" height="14" fill="#f5d2b1" stroke="#ffffff"/>
<rect x="230" y="485" width="26" height="14" fill="#eef0f1" stroke="#ffffff"/>
<rect x="257" y="485" width="26" height="14" fill="#82a0c0" stroke="#ffffff"/>
<rect x="284" y="485" width="26" height="14" fill="#eef0f1" stroke="#ffffff"/>
<rect x="311" y="485" width="26" height="14" fill="#f5c18f" stroke="#ffffff"/>
<rect x="338" y="485" width="26" height="14" fill="#f5ab64" stroke="#ffffff"/>
<rect x="365" y="485" width="26" height="14" fill="#e6e6e6" stroke="#ffffff"/>
<rect x="392" y="485" width="26" height="14" fill="#e6e6e6" stroke="#ffffff"/>
<rect x="419" y="485" width="26" height="14" fill="#e6e6e6" stroke="#ffffff"/>
<rect x="446" y="485" width="26" height="14" fill="#e6e6e6" stroke="#ffffff"/>
<rect x="473" y="485" width="26" height="14" fill="#e6e6e6" stroke="#ffffff"/>
<rect x="500" y="485" width="26" height="14" fill="#e6e6e6" stroke="#ffffff"/>
<rect x="527" y="485" width="26" height="14" fill="#e6e6e6" stroke="#ffffff"/>
<rect x="554" y="485" width="26" height="14" fill="#e6e6e6" stroke="#ffffff"/>
<text x="168" y="513" text-anchor="end" font-family="Arial" font-size="9">phase</text>
<rect x="176" y="502" width="26" height="14" fill="#96afca" stroke="#ffffff"/>
<rect x="203" y="502" width="26" height="14" fill="#5c84af" stroke="#ffffff"/>
<rect x="230" y="502" width="26" height="14" fill="#507baa" stroke="#ffffff"/>
<rect x="257" y="502" width="26" height="14" fill="#4e7aa9" stroke="#ffffff"/>
<rect x="284" y="502" width="26" height="14" fill="#4d78a8" stroke="#ffffff"/>
<rect x="311" y="502" width="26" height="14" fill="#f58f2c" stroke="#ffffff"/>
<rect x="338" y="502" width="26" height="14" fill="#f5c393" stroke="#ffffff"/>
<rect x="365" y="502" width="26" height="14" fill="#e6e6e6" stroke="#ffffff"/>
<rect x="392" y="502" width="26" height="14" fill="#e6e6e6" stroke="#ffffff"/>
<rect x="419" y="502" width="26" height="14" fill="#e6e6e6" stroke="#ffffff"/>
<rect x="446" y="502" width="26" height="14" fill="#e6e6e6" stroke="#ffffff"/>
<rect x="473" y="502" width="26" height="14" fill="#e6e6e6" stroke="#ffffff"/>
<rect x="500" y="502" width="26" height="14" fill="#e6e6e6" stroke="#ffffff"/>
<rect x="527" y="502" width="26" height="14" fill="#e6e6e6" stroke="#ffffff"/>
<rect x="554" y="502" width="26" height="14" fill="#e6e6e6" stroke="#ffffff"/>
<text x="168" y="530" text-anchor="end" font-family="Arial" font-size="9">base bend</text>
<rect x="176" y="519" width="26" height="14" fill="#9eb5cd" stroke="#ffffff"/>
<rect x="203" y="519" width="26" height="14" fill="#f5ae6a" stroke="#ffffff"/>
<rect x="230" y="519" width="26" height="14" fill="#f5eee7" stroke="#ffffff"/>
<rect x="257" y="519" width="26" height="14" fill="#f5eee7" stroke="#ffffff"/>
<rect x="284" y="519" width="26" height="14" fill="#f5b271" stroke="#ffffff"/>
<rect x="311" y="519" width="26" height="14" fill="#a7bbd1" stroke="#ffffff"/>
<rect x="338" y="519" width="26" height="14" fill="#e6e6e6" stroke="#ffffff"/>
<rect x="365" y="519" width="26" height="14" fill="#e6e6e6" stroke="#ffffff"/>
<rect x="392" y="519" width="26" height="14" fill="#e6e6e6" stroke="#ffffff"/>
<rect x="419" y="519" width="26" height="14" fill="#e6e6e6" stroke="#ffffff"/>
<rect x="446" y="519" width="26" height="14" fill="#e6e6e6" stroke="#ffffff"/>
<rect x="473" y="519" width="26" height="14" fill="#e6e6e6" stroke="#ffffff"/>
<rect x="500" y="519" width="26" height="14" fill="#e6e6e6" stroke="#ffffff"/>
<rect x="527" y="519" width="26" height="14" fill="#e6e6e6" stroke="#ffffff"/>
<rect x="554" y="519" width="26" height="14" fill="#e6e6e6" stroke="#ffffff"/>
<text x="168" y="547" text-anchor="end" font-family="Arial" font-size="9">scaffold bend</text>
<rect x="176" y="536" width="26" height="14" fill="#f5e6d8" stroke="#ffffff"/>
<rect x="203" y="536" width="26" height="14" fill="#8ba6c4" stroke="#ffffff"/>
<rect x="230" y="536" width="26" height="14" fill="#7395ba" stroke="#ffffff"/>
<rect x="257" y="536" width="26" height="14" fill="#b7c7d9" stroke="#ffffff"/>
<rect x="284" y="536" width="26" height="14" fill="#a3b8cf" stroke="#ffffff"/>
<rect x="311" y="536" width="26" height="14" fill="#ccd7e2" stroke="#ffffff"/>
<rect x="338" y="536" width="26" height="14" fill="#e6e6e6" stroke="#ffffff"/>
<rect x="365" y="536" width="26" height="14" fill="#e6e6e6" stroke="#ffffff"/>
<rect x="392" y="536" width="26" height="14" fill="#e6e6e6" stroke="#ffffff"/>
<rect x="419" y="536" width="26" height="14" fill="#e6e6e6" stroke="#ffffff"/>
<rect x="446" y="536" width="26" height="14" fill="#e6e6e6" stroke="#ffffff"/>
<rect x="473" y="536" width="26" height="14" fill="#e6e6e6" stroke="#ffffff"/>
<rect x="500" y="536" width="26" height="14" fill="#e6e6e6" stroke="#ffffff"/>
<rect x="527" y="536" width="26" height="14" fill="#e6e6e6" stroke="#ffffff"/>
<rect x="554" y="536" width="26" height="14" fill="#e6e6e6" stroke="#ffffff"/>
<text x="168" y="564" text-anchor="end" font-family="Arial" font-size="9">chain coherence</text>
<rect x="176" y="553" width="26" height="14" fill="#6188b2" stroke="#ffffff"/>
<rect x="203" y="553" width="26" height="14" fill="#4f7aa9" stroke="#ffffff"/>
<rect x="230" y="553" width="26" height="14" fill="#7797bb" stroke="#ffffff"/>
<rect x="257" y="553" width="26" height="14" fill="#4e79a9" stroke="#ffffff"/>
<rect x="284" y="553" width="26" height="14" fill="#7797bb" stroke="#ffffff"/>
<rect x="311" y="553" width="26" height="14" fill="#4f7aa9" stroke="#ffffff"/>
<rect x="338" y="553" width="26" height="14" fill="#6188b2" stroke="#ffffff"/>
<rect x="365" y="553" width="26" height="14" fill="#e6e6e6" stroke="#ffffff"/>
<rect x="392" y="553" width="26" height="14" fill="#e6e6e6" stroke="#ffffff"/>
<rect x="419" y="553" width="26" height="14" fill="#e6e6e6" stroke="#ffffff"/>
<rect x="446" y="553" width="26" height="14" fill="#e6e6e6" stroke="#ffffff"/>
<rect x="473" y="553" width="26" height="14" fill="#e6e6e6" stroke="#ffffff"/>
<rect x="500" y="553" width="26" height="14" fill="#e6e6e6" stroke="#ffffff"/>
<rect x="527" y="553" width="26" height="14" fill="#e6e6e6" stroke="#ffffff"/>
<rect x="554" y="553" width="26" height="14" fill="#e6e6e6" stroke="#ffffff"/>
<text x="168" y="581" text-anchor="end" font-family="Arial" font-size="9">QC flag</text>
<rect x="176" y="570" width="26" height="14" fill="#e6e6e6" stroke="#ffffff"/>
<rect x="203" y="570" width="26" height="14" fill="#e6e6e6" stroke="#ffffff"/>
<rect x="230" y="570" width="26" height="14" fill="#e6e6e6" stroke="#ffffff"/>
<rect x="257" y="570" width="26" height="14" fill="#e6e6e6" stroke="#ffffff"/>
<rect x="284" y="570" width="26" height="14" fill="#e6e6e6" stroke="#ffffff"/>
<rect x="311" y="570" width="26" height="14" fill="#e6e6e6" stroke="#ffffff"/>
<rect x="338" y="570" width="26" height="14" fill="#e6e6e6" stroke="#ffffff"/>
<rect x="365" y="570" width="26" height="14" fill="#e6e6e6" stroke="#ffffff"/>
<rect x="392" y="570" width="26" height="14" fill="#e6e6e6" stroke="#ffffff"/>
<rect x="419" y="570" width="26" height="14" fill="#e6e6e6" stroke="#ffffff"/>
<rect x="446" y="570" width="26" height="14" fill="#e6e6e6" stroke="#ffffff"/>
<rect x="473" y="570" width="26" height="14" fill="#e6e6e6" stroke="#ffffff"/>
<rect x="500" y="570" width="26" height="14" fill="#e6e6e6" stroke="#ffffff"/>
<rect x="527" y="570" width="26" height="14" fill="#e6e6e6" stroke="#ffffff"/>
<rect x="554" y="570" width="26" height="14" fill="#e6e6e6" stroke="#ffffff"/>
</svg>
