<svg xmlns="http://www.w3.org/2000/svg" width="920" height="958" viewBox="0 0 920 958">
<rect width="100%" height="100%" fill="white"/>
<text x="460" y="26" text-anchor="middle" font-family="Arial" font-size="17">Aleph series fingerprint: absolute twist deviation from 30 deg</text>
<text x="460" y="46" text-anchor="middle" font-family="Arial" font-size="11" fill="#555">Aleph series fingerprint: deviation of handedness-normalized twist magnitude from nominal 30 deg repeat</text>
<line x1="94" y1="74" x2="94" y2="290" stroke="#333"/>
<line x1="94" y1="290" x2="886" y2="290" stroke="#333"/>
<line x1="90" y1="271.21" x2="886" y2="271.21" stroke="#e2e2e2"/>
<text x="86" y="275.21" text-anchor="end" font-family="Arial" font-size="10">-30</text>
<line x1="90" y1="223.13" x2="886" y2="223.13" stroke="#e2e2e2"/>
<text x="86" y="227.13" text-anchor="end" font-family="Arial" font-size="10">-20</text>
<line x1="90" y1="175.04" x2="886" y2="175.04" stroke="#e2e2e2"/>
<text x="86" y="179.04" text-anchor="end" font-family="Arial" font-size="10">-10</text>
<line x1="90" y1="126.96" x2="886" y2="126.96" stroke="#e2e2e2"/>
<text x="86" y="130.96" text-anchor="end" font-family="Arial" font-size="10">0</text>
<line x1="90" y1="78.88" x2="886" y2="78.88" stroke="#e2e2e2"/>
<text x="86" y="82.88" text-anchor="end" font-family="Arial" font-size="10">10</text>
<line x1="94.00" y1="290" x2="94.00" y2="294" stroke="#333"/>
<text x="94.00" y="302" text-anchor="end" font-family="Arial" font-size="9" transform="rotate(-45 94.00,302)">U1->U2</text>
<line x1="154.92" y1="290" x2="154.92" y2="294" stroke="#333"/>
<text x="154.92" y="302" text-anchor="end" font-family="Arial" font-size="9" transform="rotate(-45 154.92,302)">U2->U3</text>
<line x1="215.85" y1="290" x2="215.85" y2="294" stroke="#333"/>
<text x="215.85" y="302" text-anchor="end" font-family="Arial" font-size="9" transform="rotate(-45 215.85,302)">U3->U4</text>
<line x1="276.77" y1="290" x2="276.77" y2="294" stroke="#333"/>
<text x="276.77" y="302" text-anchor="end" font-family="Arial" font-size="9" transform="rotate(-45 276.77,302)">U4->U5</text>
<line x1="337.69" y1="290" x2="337.69" y2="294" stroke="#333"/>
<text x="337.69" y="302" text-anchor="end" font-family="Arial" font-size="9" transform="rotate(-45 337.69,302)">U5->U6</text>
<line x1="398.62" y1="290" x2="398.62" y2="294" stroke="#333"/>
<text x="398.62" y="302" text-anchor="end" font-family="Arial" font-size="9" transform="rotate(-45 398.62,302)">U6->U7</text>
<line x1="459.54" y1="290" x2="459.54" y2="294" stroke="#333"/>
<text x="459.54" y="302" text-anchor="end" font-family="Arial" font-size="9" transform="rotate(-45 459.54,302)">U7->U8</text>
<line x1="520.46" y1="290" x2="520.46" y2="294" stroke="#333"/>
<text x="520.46" y="302" text-anchor="end" font-family="Arial" font-size="9" transform="rotate(-45 520.46,302)">U8->U9</text>
<line x1="581.38" y1="290" x2="581.38" y2="294" stroke="#333"/>
<text x="581.38" y="302" text-anchor="end" font-family="Arial" font-size="9" transform="rotate(-45 581.38,302)">U9->U10</text>
<line x1="642.31" y1="290" x2="642.31" y2="294" stroke="#333"/>
<text x="642.31" y="302" text-anchor="end" font-family="Arial" font-size="9" transform="rotate(-45 642.31,302)">U10->U11</text>
<line x1="703.23" y1="290" x2="703.23" y2="294" stroke="#333"/>
<text x="703.23" y="302" text-anchor="end" font-family="Arial" font-size="9" transform="rotate(-45 703.23,302)">U11->U12</text>
<line x1="764.15" y1="290" x2="764.15" y2="294" stroke="#333"/>
<text x="764.15" y="302" text-anchor="end" font-family="Arial" font-size="9" transform="rotate(-45 764.15,302)">U12->U13</text>
<line x1="825.08" y1="290" x2="825.08" y2="294" stroke="#333"/>
<text x="825.08" y="302" text-anchor="end" font-family="Arial" font-size="9" transform="rotate(-45 825.08,302)">U13->U14</text>
<line x1="886.00" y1="290" x2="886.00" y2="294" stroke="#333"/>
<text x="886.00" y="302" text-anchor="end" font-family="Arial" font-size="9" transform="rotate(-45 886.00,302)">U14->U15</text>
<text x="18" y="88" font-family="Arial" font-size="12" font-weight="bold">full</text>
<line x1="94" y1="126.96" x2="886" y2="126.96" stroke="#777" stroke-dasharray="4 4"/>
<text x="882" y="122.96" text-anchor="end" font-family="Arial" font-size="10">nominal 30 deg repeat</text>
<polyline points="94.00,247.30 154.92,262.12 215.85,255.30 276.77,210.95 337.69,137.14 398.62,94.90 459.54,131.11 520.46,142.60 581.38,118.75 642.31,137.26 703.23,198.92 764.15,245.48 825.08,269.10 886.00,252.05" fill="none" stroke="#4c78a8" stroke-width="2"/>
<rect x="90.00" y="243.30" width="8" height="8" transform="rotate(45 94.00,247.30)" fill="#d62728" stroke="white" stroke-width="1"/>
<rect x="150.92" y="258.12" width="8" height="8" transform="rotate(45 154.92,262.12)" fill="#d62728" stroke="white" stroke-width="1"/>
<rect x="211.85" y="251.30" width="8" height="8" transform="rotate(45 215.85,255.30)" fill="#d62728" stroke="white" stroke-width="1"/>
<rect x="272.77" y="206.95" width="8" height="8" transform="rotate(45 276.77,210.95)" fill="#d62728" stroke="white" stroke-width="1"/>
<circle cx="337.69" cy="137.14" r="4" fill="#4c78a8" stroke="white" stroke-width="1"/>
<circle cx="398.62" cy="94.90" r="4" fill="#4c78a8" stroke="white" stroke-width="1"/>
<circle cx="459.54" cy="131.11" r="4" fill="#4c78a8" stroke="white" stroke-width="1"/>
<circle cx="520.46" cy="142.60" r="4" fill="#4c78a8" stroke="white" stroke-width="1"/>
<circle cx="581.38" cy="118.75" r="4" fill="#4c78a8" stroke="white" stroke-width="1"/>
<circle cx="642.31" cy="137.26" r="4" fill="#4c78a8" stroke="white" stroke-width="1"/>
<circle cx="703.23" cy="198.92" r="4" fill="#4c78a8" stroke="white" stroke-width="1"/>
<rect x="760.15" y="241.48" width="8" height="8" transform="rotate(45 764.15,245.48)" fill="#d62728" stroke="white" stroke-width="1"/>
<rect x="821.08" y="265.10" width="8" height="8" transform="rotate(45 825.08,269.10)" fill="#d62728" stroke="white" stroke-width="1"/>
<rect x="882.00" y="248.05" width="8" height="8" transform="rotate(45 886.00,252.05)" fill="#d62728" stroke="white" stroke-width="1"/>
<text x="18" y="187" text-anchor="middle" font-family="Arial" font-size="11" transform="rotate(-90 18,187)">absolute local twist - 30 deg</text>
<line x1="94" y1="368" x2="94" y2="584" stroke="#333"/>
<line x1="94" y1="584" x2="886" y2="584" stroke="#333"/>
<line x1="90" y1="536.24" x2="886" y2="536.24" stroke="#e2e2e2"/>
<text x="86" y="540.24" text-anchor="end" font-family="Arial" font-size="10">-20</text>
<line x1="90" y1="466.07" x2="886" y2="466.07" stroke="#e2e2e2"/>
<text x="86" y="470.07" text-anchor="end" font-family="Arial" font-size="10">0</text>
<line x1="90" y1="395.89" x2="886" y2="395.89" stroke="#e2e2e2"/>
<text x="86" y="399.89" text-anchor="end" font-family="Arial" font-size="10">20</text>
<line x1="94.00" y1="584" x2="94.00" y2="588" stroke="#333"/>
<text x="94.00" y="600" text-anchor="middle" font-family="Arial" font-size="10">U1->U2</text>
<line x1="154.92" y1="584" x2="154.92" y2="588" stroke="#333"/>
<text x="154.92" y="600" text-anchor="middle" font-family="Arial" font-size="10">U2->U3</text>
<line x1="215.85" y1="584" x2="215.85" y2="588" stroke="#333"/>
<text x="215.85" y="600" text-anchor="middle" font-family="Arial" font-size="10">U3->U4</text>
<line x1="276.77" y1="584" x2="276.77" y2="588" stroke="#333"/>
<text x="276.77" y="600" text-anchor="middle" font-family="Arial" font-size="10">U4->U5</text>
<line x1="337.69" y1="584" x2="337.69" y2="588" stroke="#333"/>
<text x="337.69" y="600" text-anchor="middle" font-family="Arial" font-size="10">U5->U6</text>
<text x="18" y="382" font-family="Arial" font-size="12" font-weight="bold">central6</text>
<line x1="94" y1="466.07" x2="886" y2="466.07" stroke="#777" stroke-dasharray="4 4"/>
<text x="882" y="462.07" text-anchor="end" font-family="Arial" font-size="10">nominal 30 deg repeat</text>
<polyline points="94.00,388.90 154.92,527.29 215.85,563.10 276.77,561.45 337.69,489.20" fill="none" stroke="#f58518" stroke-width="2"/>
<circle cx="94.00" cy="388.90" r="4" fill="#f58518" stroke="white" stroke-width="1"/>
<circle cx="154.92" cy="527.29" r="4" fill="#f58518" stroke="white" stroke-width="1"/>
<circle cx="215.85" cy="563.10" r="4" fill="#f58518" stroke="white" stroke-width="1"/>
<circle cx="276.77" cy="561.45" r="4" fill="#f58518" stroke="white" stroke-width="1"/>
<circle cx="337.69" cy="489.20" r="4" fill="#f58518" stroke="white" stroke-width="1"/>
<text x="18" y="481" text-anchor="middle" font-family="Arial" font-size="11" transform="rotate(-90 18,481)">absolute local twist - 30 deg</text>
<line x1="94" y1="662" x2="94" y2="878" stroke="#333"/>
<line x1="94" y1="878" x2="886" y2="878" stroke="#333"/>
<line x1="90" y1="839.58" x2="886" y2="839.58" stroke="#e2e2e2"/>
<text x="86" y="843.58" text-anchor="end" font-family="Arial" font-size="10">-20</text>
<line x1="90" y1="797.12" x2="886" y2="797.12" stroke="#e2e2e2"/>
<text x="86" y="801.12" text-anchor="end" font-family="Arial" font-size="10">0</text>
<line x1="90" y1="754.65" x2="886" y2="754.65" stroke="#e2e2e2"/>
<text x="86" y="758.65" text-anchor="end" font-family="Arial" font-size="10">20</text>
<line x1="90" y1="712.19" x2="886" y2="712.19" stroke="#e2e2e2"/>
<text x="86" y="716.19" text-anchor="end" font-family="Arial" font-size="10">40</text>
<line x1="90" y1="669.73" x2="886" y2="669.73" stroke="#e2e2e2"/>
<text x="86" y="673.73" text-anchor="end" font-family="Arial" font-size="10">60</text>
<line x1="94.00" y1="878" x2="94.00" y2="882" stroke="#333"/>
<text x="94.00" y="894" text-anchor="middle" font-family="Arial" font-size="10">U1->U2</text>
<line x1="154.92" y1="878" x2="154.92" y2="882" stroke="#333"/>
<text x="154.92" y="894" text-anchor="middle" font-family="Arial" font-size="10">U2->U3</text>
<line x1="215.85" y1="878" x2="215.85" y2="882" stroke="#333"/>
<text x="215.85" y="894" text-anchor="middle" font-family="Arial" font-size="10">U3->U4</text>
<line x1="276.77" y1="878" x2="276.77" y2="882" stroke="#333"/>
<text x="276.77" y="894" text-anchor="middle" font-family="Arial" font-size="10">U4->U5</text>
<line x1="337.69" y1="878" x2="337.69" y2="882" stroke="#333"/>
<text x="337.69" y="894" text-anchor="middle" font-family="Arial" font-size="10">U5->U6</text>
<line x1="398.62" y1="878" x2="398.62" y2="882" stroke="#333"/>
<text x="398.62" y="894" text-anchor="middle" font-family="Arial" font-size="10">U6->U7</text>
<text x="18" y="676" font-family="Arial" font-size="12" font-weight="bold">central7</text>
<line x1="94" y1="797.12" x2="886" y2="797.12" stroke="#777" stroke-dasharray="4 4"/>
<text x="882" y="793.12" text-anchor="end" font-family="Arial" font-size="10">nominal 30 deg repeat</text>
<polyline points="94.00,729.78 154.92,833.37 215.85,857.10 276.77,856.73 337.69,822.80 398.62,682.90" fill="none" stroke="#54a24b" stroke-width="2"/>
<circle cx="94.00" cy="729.78" r="4" fill="#54a24b" stroke="white" stroke-width="1"/>
<circle cx="154.92" cy="833.37" r="4" fill="#54a24b" stroke="white" stroke-width="1"/>
<circle cx="215.85" cy="857.10" r="4" fill="#54a24b" stroke="white" stroke-width="1"/>
<circle cx="276.77" cy="856.73" r="4" fill="#54a24b" stroke="white" stroke-width="1"/>
<circle cx="337.69" cy="822.80" r="4" fill="#54a24b" stroke="white" stroke-width="1"/>
<circle cx="398.62" cy="682.90" r="4" fill="#54a24b" stroke="white" stroke-width="1"/>
<text x="18" y="775" text-anchor="middle" font-family="Arial" font-size="11" transform="rotate(-90 18,775)">absolute local twist - 30 deg</text>
<text x="460" y="942" text-anchor="middle" font-family="Arial" font-size="12">Aleph unit transition</text>
</svg>
